<?xml version="1.0" encoding="UTF-8" standalone="no"?><svg xmlns="http://www.w3.org/2000/svg" xmlns:xlink="http://www.w3.org/1999/xlink" contentScriptType="text/ecmascript" fill="#000000" width="59.1" zoomAndPan="magnify" contentStyleType="text/css" viewBox="0.0 0.0 59.1 59.4" height="59.4" preserveAspectRatio="xMidYMid meet" version="1"><g id="change1_1"><path fill="#ffffff" d="M38.4,33.3c2.4-3.4,3.9-7.6,3.9-12.2C42.2,9.4,32.8,0,21.1,0C9.5,0,0,9.4,0,21.1c0,11.7,9.5,21.1,21.1,21.1 c4.4,0,8.5-1.3,11.8-3.6l20.8,20.8l5.4-5.4L38.4,33.3z M21.1,35.6c-8,0-14.5-6.5-14.5-14.5S13.1,6.6,21.1,6.6 c8,0,14.5,6.5,14.5,14.5S29.1,35.6,21.1,35.6z"/></g></svg>