<?xml version="1.0" encoding="UTF-8" standalone="no"?><svg xmlns="http://www.w3.org/2000/svg" xmlns:xlink="http://www.w3.org/1999/xlink" contentScriptType="text/ecmascript" fill="#000000" width="61.1" zoomAndPan="magnify" contentStyleType="text/css" viewBox="0.0 0.0 61.1 55.7" height="55.7" preserveAspectRatio="xMidYMid meet" version="1"><g><g fill="#ffffff" id="change1_1"><path fill="inherit" d="M0,25.2v30.5h13V25.2H0z M6.5,51.8c-0.9,0-1.7-0.8-1.7-1.7c0-0.9,0.8-1.7,1.7-1.7c0.9,0,1.7,0.8,1.7,1.7 C8.2,51,7.4,51.8,6.5,51.8z"/><path fill="inherit" d="M61,27.6l-0.2-3.4c-0.1-1.3-1.4-2.3-2.7-2.3l-22.9-0.2l2.1-16.4C37.6,2.5,35.4,0,32.6,0 c-1.7,0-3.2,0.9-4.1,2.4L17,22.9l-1.4,2.5v30.3h32.2c2.1,0,3.7-1.7,3.6-3.8l-0.2-3.9l0.5-0.1c1.9-0.2,3.3-1.8,3.3-3.8l-0.2-3.9 c1.8-0.3,3.1-1.9,3-3.7l-0.2-5l0.1,0C59.7,31.2,61.1,29.5,61,27.6z"/></g></g></svg>