<?xml version="1.0" encoding="UTF-8" standalone="no"?><svg xmlns="http://www.w3.org/2000/svg" xmlns:xlink="http://www.w3.org/1999/xlink" contentScriptType="text/ecmascript" fill="#000000" width="987.5" zoomAndPan="magnify" contentStyleType="text/css" viewBox="-1.1 -7.0 987.5 137.6" height="137.6" preserveAspectRatio="xMidYMid meet" version="1"><g id="change1_1"><path fill="#95a9d3" d="M31.4,78c28.1-26.6,61.4-36.4,99.3-28.7c16.2,3.3,30.3,11.8,43.5,21.5c10.5,7.7,20.7,15.6,31.2,23.3 c10.5,7.7,22.1,13.5,34.5,17.7c15.6,5.3,30.7,4.6,45.8-1.5c14.6-5.9,26-15.9,36.3-27.4c9.6-10.7,18.7-21.7,28.3-32.4 c13.6-15.4,29.5-27.8,48.4-36.3c22.9-10.3,45.7-10,68.6,0.2c15.5,7,28.2,17.6,39.3,30.1c8.9,10,17.3,20.3,26.2,30.2 c16,17.7,35.5,29.9,58.3,37c10,3.2,20.1,3.8,30.5,1.9c20.1-3.5,36.8-13.4,51.5-26.9c11-10.1,21.4-21,32.1-31.5 c9.5-9.4,19.5-18.1,31.4-24.5c16.4-8.9,33.4-10.4,51.1-4.1c15.3,5.4,28.7,13.9,40.4,25.1c8.5,8,16.3,16.7,24,25.5 c8.6,9.8,17.1,19.6,26.9,28.2c7.8,6.9,16.1,13,25.8,16.7c15.6,5.9,31.6,8.5,47.5,1.2c13-6,23-15.7,30.8-27.7c1.1-1.7,3.3-3.5,1.4-6 c-2-0.3-3.1,1.2-4.4,2.1c-3.9,2.7-6.7,6.5-9.8,9.9c-19,20.4-38.1,25.8-67.6,12.4c-6.7-3-12.5-7.6-18.1-12.4 c-7.6-6.6-14.4-13.9-21-21.4c-9.7-11-19.2-22.1-29.8-32.3c-12.9-12.4-27.5-22-44.6-27.7c-18.6-6.2-36.7-4.9-54.2,4 c-9.2,4.7-17.7,10.7-25.1,17.9c-10.1,9.7-19.9,19.7-29.8,29.5c-10,9.8-20.4,19.2-32.8,26c-21.4,11.9-43.1,14.2-65.9,3.6 c-15.6-7.3-29.8-16.3-41.5-28.9c-6.8-7.3-13.2-15-19.7-22.6c-9.1-10.7-18.3-21.2-29.8-29.4c-32.8-23.4-67-27.3-103-7.5 c-17.2,9.4-31.6,22.1-44.4,36.8c-6.8,7.8-13.3,15.8-20.2,23.5c-7.7,8.7-15.6,17.4-25.3,24c-18.6,12.6-38.4,16-59.7,7.5 c-10.9-4.3-21.1-9.9-30.5-16.9C195.6,79,184.3,70.2,172.6,62c-21.1-14.6-44.1-23.1-70.3-21.2c-45.1,3.3-77.3,25.9-98,65.6 c-2.8,5.4-5.4,11.5-3.9,18.4C7.3,106.9,17.5,91.1,31.4,78z"/></g></svg>