<?xml version="1.0" encoding="UTF-8" standalone="no"?><svg xmlns="http://www.w3.org/2000/svg" xmlns:xlink="http://www.w3.org/1999/xlink" contentScriptType="text/ecmascript" fill="#000000" width="56.7" zoomAndPan="magnify" contentStyleType="text/css" viewBox="0.0 0.0 56.7 57.3" height="57.3" preserveAspectRatio="xMidYMid meet" version="1"><g fill="#ffffff" id="change1_1"><path fill="inherit" d="M56.6,27.1c-0.1-0.8-0.7-1.4-1.5-1.4H29.2V2.1c0-0.4-0.2-0.8-0.5-1.1c-0.3-0.3-0.7-0.4-1.1-0.4 C12.4,1,0,13.7,0,29c0,15.6,12.7,28.3,28.3,28.3c15.6,0,28.3-12.7,28.3-28.3C56.7,28.3,56.6,27.7,56.6,27.1z M28.3,54.3 C14.4,54.3,3,42.9,3,29C3,15.8,13.3,4.8,26.2,3.7v23.5c0,0.8,0.7,1.5,1.5,1.5h26c0,0.1,0,0.2,0,0.3C53.7,42.9,42.3,54.3,28.3,54.3z"/><path fill="inherit" d="M34.8,21.6h18.6c0.8,0,1.5-0.7,1.5-1.5c0-2.8-0.6-5.5-1.6-8C51,7,46.7,3,41.4,1.1C39.3,0.4,37.1,0,34.8,0 c-0.8,0-1.5,0.7-1.5,1.5v18.6C33.3,20.9,34,21.6,34.8,21.6z M36.3,3.1c1.4,0.1,2.8,0.4,4.2,0.9c4.5,1.6,8.1,5,10,9.3 c0.7,1.7,1.2,3.5,1.3,5.3H36.3V3.1z"/></g></svg>