<?xml version="1.0" encoding="UTF-8" standalone="no"?><svg xmlns="http://www.w3.org/2000/svg" xmlns:xlink="http://www.w3.org/1999/xlink" contentScriptType="text/ecmascript" fill="#000000" width="61.3" zoomAndPan="magnify" contentStyleType="text/css" viewBox="0.0 0.0 61.3 65.1" height="65.1" preserveAspectRatio="xMidYMid meet" version="1"><g><g><g><g id="change1_1"><path fill="#ffffff" d="M60.3,64.1H1v-3.5c0-13.9,11.2-25.1,25.1-25.1h9.1c13.9,0,25.1,11.2,25.1,25.1V64.1z"/></g></g><g><g id="change2_2"><path fill="#ffffff" d="M60.3,65.1H1c-0.6,0-1-0.4-1-1v-3.5c0-14.4,11.7-26.1,26.1-26.1h9.1c14.4,0,26.1,11.7,26.1,26.1v3.5 C61.3,64.7,60.9,65.1,60.3,65.1z M2,63.1h57.3v-2.5c0-13.3-10.8-24.1-24.1-24.1h-9.1C12.8,36.5,2,47.3,2,60.6V63.1z"/></g></g></g><g><g><g id="change1_2"><circle fill="#ffffff" r="13.8" cx="30.7" cy="14.8"/></g></g><g><g id="change2_1"><path fill="#ffffff" d="M30.7,29.6c-8.2,0-14.8-6.6-14.8-14.8S22.5,0,30.7,0c8.2,0,14.8,6.6,14.8,14.8S38.8,29.6,30.7,29.6z M30.7,2c-7.1,0-12.8,5.7-12.8,12.8s5.7,12.8,12.8,12.8s12.8-5.7,12.8-12.8S37.7,2,30.7,2z"/></g></g></g></g></svg>