<?xml version="1.0" encoding="UTF-8" standalone="no"?><!-- Generator: Adobe Illustrator 21.1.0, SVG Export Plug-In . SVG Version: 6.00 Build 0)  --><svg xmlns="http://www.w3.org/2000/svg" xmlns:xlink="http://www.w3.org/1999/xlink" contentScriptType="text/ecmascript" zoomAndPan="magnify" contentStyleType="text/css" id="Layer_1" enable-background="new 0 0 500 499.4" version="1.1" xml:space="preserve" fill="#000000" preserveAspectRatio="xMidYMid meet" viewBox="0 0 500 499.4" x="0px" y="0px">
<g id="change1_1"><path fill="#eff0f2" d="m499.7 28.1v-2h-26.1v-26h-2v26h-35.1v-26h-2v26h-35.1v-26h-2v26h-35.1v-26h-2v26h-35.1v-26h-2v26h-35.1v-26h-2v26h-35.1v-26h-2v26h-35.1v-26h-2v26h-35.1v-26h-2v26h-35.1v-26h-2v26h-35.1v-26h-2v26h-35.1v-26h-2v26h-35.1v-26h-2v26h-26v2h26v35.1h-26v2h26v35.1h-26v2h26v35.1h-26v2h26v35.1h-26v2h26v35.1h-26v2h26v35.1h-26v2h26v35.1h-26v2h26v35.1h-26v2h26v35.1h-26v2h26v35.1h-26v2h26v35.1h-26v2h26v35.1h-26v2h26v26h2v-26h35.1v26h2v-26h35.1v26h2v-26h35.1v26h2v-26h35.1v26h2v-26h35.1v26h2v-26h35.1v26h2v-26h35.1v26h2v-26h35.1v26h2v-26h35.1v26h2v-26h35.1v26h2v-26h35.1v26h2v-26h35.1v26h2v-26h26.1v-2h-26.1v-35.1h26.1v-2h-26.1v-35.1h26.1v-2h-26.1v-35.1h26.1v-2h-26.1v-35.1h26.1v-2h-26.1v-35.1h26.1v-2h-26.1v-35.1h26.1v-2h-26.1v-35.1h26.1v-2h-26.1v-35.1h26.1v-2h-26.1v-35.1h26.1v-2h-26.1v-35.1h26.1v-2h-26.1v-35.1h26.1v-2h-26.1v-35.1h26.1zm-65.2 0v35.1h-35.1v-35.1h35.1zm-185.5 222.6v35.1h-35.1v-35.1h35.1zm-35.1-2v-35.1h35.1v35.1h-35.1zm37.1 2h35.1v35.1h-35.1v-35.1zm0-2v-35.1h35.1v35.1h-35.1zm0-37.1v-35.1h35.1v35.1h-35.1zm-2 0h-35.1v-35.1h35.1v35.1zm-37.1 0h-35.1v-35.1h35.1v35.1zm0 2v35.1h-35.1v-35.1h35.1zm0 37.1v35.1h-35.1v-35.1h35.1zm0 37.1v35.1h-35.1v-35.1h35.1zm2 0h35.1v35.1h-35.1v-35.1zm37.1 0h35.1v35.1h-35.1v-35.1zm37.1 0h35.1v35.1h-35.1v-35.1zm0-2v-35.1h35.1v35.1h-35.1zm0-37.1v-35.1h35.1v35.1h-35.1zm0-37.1v-35.1h35.1v35.1h-35.1zm0-37.1v-35.1h35.1v35.1h-35.1zm-2 0h-35.1v-35.1h35.1v35.1zm-37.1 0h-35.1v-35.1h35.1v35.1zm-37.1 0h-35.1v-35.1h35.1v35.1zm-37.1 0h-35.1v-35.1h35.1v35.1zm0 2v35.1h-35.1v-35.1h35.1zm0 37.1v35.1h-35.1v-35.1h35.1zm0 37.1v35.1h-35.1v-35.1h35.1zm0 37.1v35.1h-35.1v-35.1h35.1zm0 37.1v35.1h-35.1v-35.1h35.1zm2 0h35.1v35.1h-35.1v-35.1zm37.1 0h35.1v35.1h-35.1v-35.1zm37.1 0h35.1v35.1h-35.1v-35.1zm37.1 0h35.1v35.1h-35.1v-35.1zm37.1 0h35.1v35.1h-35.1v-35.1zm0-2v-35.1h35.1v35.1h-35.1zm0-37.1v-35.1h35.1v35.1h-35.1zm0-37.1v-35.1h35.1v35.1h-35.1zm0-37.1v-35.1h35.1v35.1h-35.1zm0-37.1v-35.1h35.1v35.1h-35.1zm0-37.1v-35.1h35.1v35.1h-35.1zm-2 0h-35.1v-35.1h35.1v35.1zm-37.1 0h-35.1v-35.1h35.1v35.1zm-37.1 0h-35.1v-35.1h35.1v35.1zm-37.1 0h-35.1v-35.1h35.1v35.1zm-37.1 0h-35.1v-35.1h35.1v35.1zm-37.1 0h-35.1v-35.1h35.1v35.1zm0 2v35.1h-35.1v-35.1h35.1zm0 37.1v35.1h-35.1v-35.1h35.1zm0 37.1v35.1h-35.1v-35.1h35.1zm0 37.1v35.1h-35.1v-35.1h35.1zm0 37.1v35.1h-35.1v-35.1h35.1zm0 37.1v35.1h-35.1v-35.1h35.1zm0 37.1v35.1h-35.1v-35.1h35.1zm2 0h35.1v35.1h-35.1v-35.1zm37.1 0h35.1v35.1h-35.1v-35.1zm37.1 0h35.1v35.1h-35.1v-35.1zm37.1 0h35.1v35.1h-35.1v-35.1zm37.1 0h35.1v35.1h-35.1v-35.1zm37.1 0h35.1v35.1h-35.1v-35.1zm37.1 0h35.1v35.1h-35.1v-35.1zm0-2v-35.1h35.1v35.1h-35.1zm0-37.1v-35.1h35.1v35.1h-35.1zm0-37.1v-35.1h35.1v35.1h-35.1zm0-37.1v-35.1h35.1v35.1h-35.1zm0-37.1v-35.1h35.1v35.1h-35.1zm0-37.1v-35.1h35.1v35.1h-35.1zm0-37.1v-35.1h35.1v35.1h-35.1zm0-37.1v-35.1h35.1v35.1h-35.1zm-2 0h-35.1v-35.1h35.1v35.1zm-37.1 0h-35.1v-35.1h35.1v35.1zm-37.1 0h-35.1v-35.1h35.1v35.1zm-37.1 0h-35.1v-35.1h35.1v35.1zm-37.1 0h-35.1v-35.1h35.1v35.1zm-37.1 0h-35.1v-35.1h35.1v35.1zm-37.1 0h-35.1v-35.1h35.1v35.1zm-37.1 0h-35.1v-35.1h35.1v35.1zm0 2v35.1h-35.1v-35.1h35.1zm0 37.1v35.1h-35.1v-35.1h35.1zm0 37.1v35.1h-35.1v-35.1h35.1zm0 37.1v35.1h-35.1v-35.1h35.1zm0 37.1v35.1h-35.1v-35.1h35.1zm0 37.1v35.1h-35.1v-35.1h35.1zm0 37.1v35.1h-35.1v-35.1h35.1zm0 37.1v35.1h-35.1v-35.1h35.1zm0 37.1v35.1h-35.1v-35.1h35.1zm2 0h35.1v35.1h-35.1v-35.1zm37.1 0h35.1v35.1h-35.1v-35.1zm37.1 0h35.1v35.1h-35.1v-35.1zm37.1 0h35.1v35.1h-35.1v-35.1zm37.1 0h35.1v35.1h-35.1v-35.1zm37.1 0h35.1v35.1h-35.1v-35.1zm37.1 0h35.1v35.1h-35.1v-35.1zm37.1 0h35.1v35.1h-35.1v-35.1zm37.1 0h35.1v35.1h-35.1v-35.1zm0-2v-35.1h35.1v35.1h-35.1zm0-37.1v-35.1h35.1v35.1h-35.1zm0-37.1v-35.1h35.1v35.1h-35.1zm0-37.1v-35.1h35.1v35.1h-35.1zm0-37.1v-35.1h35.1v35.1h-35.1zm0-37.1v-35.1h35.1v35.1h-35.1zm0-37.1v-35.1h35.1v35.1h-35.1zm0-37.1v-35.1h35.1v35.1h-35.1zm0-37.1v-35.1h35.1v35.1h-35.1zm-2-72.2v35.1h-35.1v-35.1h35.1zm-37.1 0v35.1h-35.1v-35.1h35.1zm-37.1 0v35.1h-35.1v-35.1h35.1zm-37.1 0v35.1h-35.1v-35.1h35.1zm-37.1 0v35.1h-35.1v-35.1h35.1zm-37.1 0v35.1h-35.1v-35.1h35.1zm-37.1 0v35.1h-35.1v-35.1h35.1zm-37.1 0v35.1h-35.1v-35.1h35.1zm-37.1 0v35.1h-35.1v-35.1h35.1zm-72.2 0h35.1v35.1h-35.1v-35.1zm0 37.1h35.1v35.1h-35.1v-35.1zm0 37.1h35.1v35.1h-35.1v-35.1zm0 37.1h35.1v35.1h-35.1v-35.1zm0 37.1h35.1v35.1h-35.1v-35.1zm0 37.1h35.1v35.1h-35.1v-35.1zm0 37.1h35.1v35.1h-35.1v-35.1zm0 37.1h35.1v35.1h-35.1v-35.1zm0 37.1h35.1v35.1h-35.1v-35.1zm0 37.1h35.1v35.1h-35.1v-35.1zm0 37.1h35.1v35.1h-35.1v-35.1zm0 72.2v-35.1h35.1v35.1h-35.1zm37.1 0v-35.1h35.1v35.1h-35.1zm37.1 0v-35.1h35.1v35.1h-35.1zm37.1 0v-35.1h35.1v35.1h-35.1zm37.1 0v-35.1h35.1v35.1h-35.1zm37.1 0v-35.1h35.1v35.1h-35.1zm37.1 0v-35.1h35.1v35.1h-35.1zm37.1 0v-35.1h35.1v35.1h-35.1zm37.1 0v-35.1h35.1v35.1h-35.1zm37.1 0v-35.1h35.1v35.1h-35.1zm37.1 0v-35.1h35.1v35.1h-35.1zm72.2 0h-35.1v-35.1h35.1v35.1zm0-37.1h-35.1v-35.1h35.1v35.1zm0-37.1h-35.1v-35.1h35.1v35.1zm0-37.1h-35.1v-35.1h35.1v35.1zm0-37.1h-35.1v-35.1h35.1v35.1zm0-37.1h-35.1v-35.1h35.1v35.1zm0-37.1h-35.1v-35.1h35.1v35.1zm0-37.1h-35.1v-35.1h35.1v35.1zm0-37.1h-35.1v-35.1h35.1v35.1zm0-37.1h-35.1v-35.1h35.1v35.1zm0-37.1h-35.1v-35.1h35.1v35.1zm0-37.1h-35.1v-35.1h35.1v35.1z"/></g>
</svg>