<?xml version="1.0" encoding="UTF-8" standalone="no"?><svg xmlns="http://www.w3.org/2000/svg" xmlns:xlink="http://www.w3.org/1999/xlink" contentScriptType="text/ecmascript" fill="#000000" width="372.2" zoomAndPan="magnify" contentStyleType="text/css" viewBox="-19.2 2.8 372.2 77.8" height="77.8" preserveAspectRatio="xMidYMid meet" version="1"><filter xlink:actuate="onLoad" xlink:type="simple" id="a" xlink:show="other"><feGaussianBlur stdDeviation="4"/></filter><g id="change1_1" filter="url(#a)"><path fill="#c6c6c6" d="M310.3,74.1H23.5c-6.5,0-11.7-5.3-11.7-11.7V21c0-6.5,5.3-11.7,11.7-11.7h286.8c6.5,0,11.7,5.3,11.7,11.7 v41.4C322,68.9,316.7,74.1,310.3,74.1z"/></g><g id="change2_1"><path fill="#ffffff" d="M318.2,15.6v43c0,6.6-5.4,12-12,12h-290c-6.6,0-12-5.4-12-12v-43c0-6.6,5.4-12,12-12h290 C312.8,3.6,318.2,9,318.2,15.6z"/></g><g id="change3_1"><path fill="#22231f" d="M92.2,3.6v67h-76c-6.6,0-12-5.4-12-12v-43c0-6.6,5.4-12,12-12H92.2z"/></g></svg>