<?xml version="1.0" encoding="UTF-8" standalone="no"?><svg xmlns="http://www.w3.org/2000/svg" xmlns:xlink="http://www.w3.org/1999/xlink" contentScriptType="text/ecmascript" fill="#22231f" width="56" zoomAndPan="magnify" contentStyleType="text/css" viewBox="4.0 4.0 56.0 56.0" height="56" data-name="Files and document" preserveAspectRatio="xMidYMid meet" version="1"><g id="change1_1"><path fill="inherit" d="M11,41H6a2,2,0,0,1,0-4h5a2,2,0,0,1,0,4ZM49,4H11a1,1,0,0,0-1,1V8h1a4,4,0,0,1,0,8H10v5h1a4,4,0,0,1,0,8H10v6h1a4,4,0,0,1,0,8H10v5h1a4,4,0,0,1,0,8H10v3a1,1,0,0,0,1,1H49a1,1,0,0,0,1-1V5A1,1,0,0,0,49,4ZM13,52a2.006,2.006,0,0,0-2-2H6a2,2,0,0,0,0,4h5A2.006,2.006,0,0,0,13,52Zm0-27a2.006,2.006,0,0,0-2-2H6a2,2,0,0,0,0,4h5A2.006,2.006,0,0,0,13,25Zm0-13a2.006,2.006,0,0,0-2-2H6a2,2,0,0,0,0,4h5A2.006,2.006,0,0,0,13,12ZM59.21,26.02l-.06.06a1.217,1.217,0,0,1-.17.15,2.883,2.883,0,0,1-.39.3l-.21.12a2.882,2.882,0,0,1-.45.19c-.07.02-.14.05-.21.07A3.461,3.461,0,0,1,57,27H52v8h7a1,1,0,0,0,1-1V27A1.007,1.007,0,0,0,59.21,26.02ZM57.87,24.5A1.094,1.094,0,0,0,58,24V18H52v7h5A1.016,1.016,0,0,0,57.87,24.5ZM59,7H52v9h7a1,1,0,0,0,1-1V8A1,1,0,0,0,59,7ZM52,44h5a1,1,0,0,0,1-1V37H52Z"/></g></svg>