<?xml version="1.0" encoding="UTF-8" standalone="no"?><svg xmlns="http://www.w3.org/2000/svg" xmlns:xlink="http://www.w3.org/1999/xlink" contentScriptType="text/ecmascript" zoomAndPan="magnify" contentStyleType="text/css" stroke="#000000" stroke-linecap="square" version="1" width="159.83" stroke-miterlimit="10" fill="#000000" preserveAspectRatio="xMidYMid meet" height="176.93"><g><g fill="#00ffff" stroke="#00ffff"><path d="M0 165.72c0 6.23 4.96 11.21 11.15 11.21 0 0 0 0 0 0 136.29 0 136.29 0 136.29 0 7.43 0 12.39-4.98 12.39-11.21 0 0 0 0 0 0 0-139.55 0-139.55 0-139.55 0-6.23-4.96-11.21-12.39-11.21 0 0 0 0 0 0-56.99 0-56.99 0-56.99 0C79.3 0 79.3 0 79.3 0c-9.91 14.95-9.91 14.95-9.91 14.95-58.23 0-58.23 0-58.23 0C4.96 14.95 0 19.94 0 26.17c0 0 0 0 0 0V165.72Z" stroke="none"/></g></g></svg>