<?xml version="1.0" encoding="UTF-8" standalone="no"?><svg xmlns="http://www.w3.org/2000/svg" xmlns:xlink="http://www.w3.org/1999/xlink" contentScriptType="text/ecmascript" fill="#000000" width="1996.6" zoomAndPan="magnify" contentStyleType="text/css" viewBox="2.4 -0.5 1996.6 712.7" height="712.7" preserveAspectRatio="xMidYMid meet" version="1"><g fill="#00ffff"><g><g id="change1_19"><path d="M386.14,361.79c-0.02,0-0.04,0-0.06,0L60.41,309.85c-0.15-0.03-0.27-0.15-0.3-0.3 c-0.02-0.15,0.06-0.3,0.2-0.37l97.98-47.11c0.09-0.04,0.2-0.05,0.3-0.01l227.7,99.04c0.16,0.07,0.25,0.25,0.2,0.43 C386.44,361.69,386.3,361.79,386.14,361.79z M61.64,309.33l321.79,51.32l-224.98-97.86L61.64,309.33z"/><path d="M332.7,451.24c-0.13,0-0.24-0.07-0.31-0.18c-0.07-0.11-0.06-0.25,0-0.36l54.03-89.78 c0.07-0.11,0.19-0.17,0.32-0.17c0.13,0.01,0.25,0.08,0.3,0.19l44.76,87.21c0.06,0.11,0.05,0.24-0.01,0.34 c-0.06,0.11-0.17,0.17-0.3,0.17L332.7,451.24L332.7,451.24z M386.7,361.83l-53.36,88.68l97.57-2.54L386.7,361.83z"/><path d="M332.7,451.24c-0.05,0-0.09-0.01-0.14-0.03l-145.4-60.81c-0.14-0.06-0.23-0.21-0.22-0.36 c0.02-0.15,0.13-0.28,0.28-0.31l88.93-18.41c0.14-0.03,0.28,0.03,0.36,0.14l56.46,79.22c0.09,0.13,0.09,0.3-0.01,0.43 C332.91,451.19,332.8,451.24,332.7,451.24z M188.5,390.18l143.19,59.89l-55.61-78.02L188.5,390.18z"/><path d="M276.23,372.02c-0.09,0-0.18-0.03-0.24-0.1l-117.1-110c-0.12-0.12-0.15-0.31-0.05-0.45 c0.09-0.14,0.28-0.2,0.44-0.13l227.59,99.45c0.15,0.06,0.23,0.22,0.21,0.38c-0.03,0.16-0.16,0.28-0.32,0.3l-110.49,10.56 C276.26,372.02,276.25,372.02,276.23,372.02z M160.88,262.81l115.48,108.48l108.97-10.41L160.88,262.81z"/><path d="M5.31,477.1c-0.1,0-0.2-0.05-0.27-0.13c-0.1-0.12-0.11-0.3-0.02-0.43l153.83-215.08 c0.08-0.11,0.22-0.17,0.35-0.14c0.13,0.02,0.24,0.12,0.28,0.25l34.94,127.01c0.05,0.17-0.04,0.34-0.19,0.42L5.46,477.06 C5.41,477.08,5.36,477.1,5.31,477.1z M158.99,262.47L6.38,475.85l187.27-87.37L158.99,262.47z"/><path d="M432.06,448.13c-0.13,0-0.26-0.07-0.32-0.2c-0.08-0.17-0.02-0.36,0.13-0.46l160.35-97.36 c0.15-0.09,0.34-0.06,0.46,0.08c0.11,0.14,0.11,0.33-0.01,0.46l-49.41,55.53c-0.04,0.04-0.09,0.08-0.14,0.1l-110.93,41.83 C432.14,448.12,432.1,448.13,432.06,448.13z M590.56,351.95l-155.06,94.15l107.27-40.45L590.56,351.95z"/><path d="M613.51,526.29c-0.07,0-0.15-0.02-0.21-0.07L386.52,361.39c-0.14-0.1-0.19-0.29-0.11-0.44 c0.07-0.15,0.25-0.23,0.42-0.19l156.26,44.84c0.09,0.02,0.16,0.08,0.21,0.16l70.52,119.98c0.09,0.15,0.06,0.33-0.07,0.44 C613.68,526.26,613.6,526.29,613.51,526.29z M388.56,362l223.78,162.64l-69.59-118.39L388.56,362z"/><path d="M613.51,526.29c-0.13,0-0.25-0.07-0.31-0.18c-0.09-0.16-0.04-0.36,0.11-0.46l176.53-124.86 c0.15-0.1,0.35-0.08,0.47,0.05c0.12,0.13,0.13,0.33,0.01,0.47l-67.11,80.24c-0.04,0.05-0.08,0.08-0.14,0.1l-109.43,44.62 C613.6,526.28,613.56,526.29,613.51,526.29z M788.03,402.94l-171.78,121.5l106.48-43.42L788.03,402.94z"/><path d="M722.94,481.66c-0.09,0-0.18-0.04-0.25-0.1L592.15,350.67c-0.11-0.11-0.14-0.29-0.06-0.43 c0.08-0.14,0.24-0.21,0.4-0.17l197.65,50.65c0.12,0.03,0.21,0.12,0.25,0.23c0.04,0.12,0.01,0.24-0.07,0.34l-67.11,80.24 c-0.06,0.08-0.16,0.12-0.26,0.13C722.95,481.66,722.94,481.66,722.94,481.66z M593.57,351.08l129.35,129.7l66.5-79.51 L593.57,351.08z"/><path d="M722.94,481.66c-0.12,0-0.23-0.06-0.3-0.17c-0.1-0.16-0.06-0.37,0.1-0.48l141.8-99.62 c0.05-0.03,0.1-0.05,0.15-0.06l50.92-7.27c0.17-0.02,0.33,0.08,0.39,0.24c0.05,0.16-0.01,0.34-0.16,0.42l-192.73,106.9 C723.06,481.65,723,481.66,722.94,481.66z M864.88,382.03l-136.26,95.73l185.19-102.72L864.88,382.03z"/><path d="M984.42,437.97c-0.02,0-0.04,0-0.07-0.01l-194.37-36.55c-0.17-0.03-0.29-0.18-0.29-0.34 c0-0.17,0.12-0.32,0.28-0.35l125.62-26.66c0.11-0.02,0.23,0.01,0.31,0.09l68.75,63.21c0.12,0.11,0.15,0.28,0.08,0.42 C984.67,437.9,984.55,437.97,984.42,437.97z M791.86,401.05l191.4,35.99l-67.7-62.24L791.86,401.05z"/><path d="M984.42,437.97c-0.09,0-0.17-0.03-0.24-0.09l-68.75-63.21c-0.12-0.11-0.15-0.3-0.07-0.44 s0.26-0.21,0.42-0.16l173.65,55.67c0.16,0.05,0.27,0.21,0.24,0.38c-0.02,0.17-0.16,0.3-0.33,0.31l-104.9,7.54 C984.43,437.97,984.42,437.97,984.42,437.97z M917.09,375.24l67.45,62.01l102.92-7.4L917.09,375.24z"/><path d="M1045,512.8c-0.12,0-0.24-0.06-0.3-0.17c-0.07-0.11-0.07-0.24-0.01-0.35l44.31-82.37 c0.05-0.09,0.13-0.16,0.23-0.18c0.1-0.02,0.21,0,0.29,0.06l106.19,79.09c0.12,0.09,0.17,0.25,0.13,0.39 c-0.05,0.14-0.18,0.24-0.33,0.25L1045,512.8C1045.01,512.8,1045.01,512.8,1045,512.8z M1089.44,430.61l-43.83,81.47l148.86-3.25 L1089.44,430.61z"/><path d="M1216.35,540.12c-0.02,0-0.04,0-0.06,0l-171.35-27.32c-0.08-0.01-0.16-0.06-0.21-0.12l-66.76-76.77 c-0.11-0.13-0.12-0.31-0.02-0.44c0.1-0.13,0.28-0.18,0.43-0.11l238.11,104.09c0.16,0.07,0.25,0.25,0.2,0.43 C1216.65,540.02,1216.51,540.12,1216.35,540.12z M1045.19,512.12l168.47,26.86L979.55,436.64L1045.19,512.12z"/><path d="M1216.35,540.12c-0.12,0-0.23-0.06-0.29-0.16l-20.85-30.6c-0.08-0.11-0.08-0.26-0.01-0.38l84.94-146.15 c0.09-0.16,0.29-0.22,0.46-0.14c0.17,0.08,0.25,0.27,0.18,0.44l-64.09,176.76c-0.05,0.13-0.16,0.21-0.29,0.23 C1216.38,540.12,1216.37,540.12,1216.35,540.12z M1195.92,509.15l20.33,29.85l62.51-172.38L1195.92,509.15z"/><path d="M1409.56,630.7c-0.02,0-0.04,0-0.05,0c-0.12-0.02-0.22-0.09-0.27-0.2l-129.12-267.33 c-0.06-0.13-0.04-0.28,0.05-0.38c0.09-0.11,0.23-0.15,0.37-0.11l296.83,87.34c0.12,0.03,0.21,0.13,0.24,0.25 c0.03,0.12,0,0.25-0.08,0.34l-167.71,179.99C1409.76,630.66,1409.66,630.7,1409.56,630.7z M1281.11,363.58l128.55,266.14 l166.96-179.19L1281.11,363.58z"/><path d="M1409.56,630.7c-0.05,0-0.1-0.01-0.15-0.03l-193.21-90.57c-0.14-0.06-0.22-0.21-0.2-0.36 c0.02-0.15,0.13-0.28,0.28-0.31l248.52-48.97c0.12-0.03,0.26,0.02,0.34,0.12c0.08,0.1,0.11,0.24,0.06,0.36l-55.31,139.54 c-0.04,0.09-0.11,0.16-0.2,0.2C1409.65,630.69,1409.61,630.7,1409.56,630.7z M1217.48,539.91l191.89,89.95l54.93-138.59 L1217.48,539.91z"/><path d="M1464.87,491.16c-0.11,0-0.21-0.05-0.28-0.14c-0.09-0.12-0.1-0.29-0.01-0.42l116.97-167.04 c0.09-0.13,0.26-0.18,0.4-0.13c0.15,0.05,0.25,0.19,0.24,0.35l-4.57,126.59c-0.01,0.14-0.1,0.27-0.23,0.32l-112.4,40.45 C1464.96,491.15,1464.92,491.16,1464.87,491.16z M1581.44,324.95l-115.64,165.14l111.12-39.99L1581.44,324.95z"/><path d="M1577.27,450.7c-0.1,0-0.19-0.04-0.25-0.11c-0.07-0.07-0.1-0.16-0.1-0.26l4.57-126.59 c0-0.13,0.08-0.24,0.19-0.3c0.11-0.06,0.25-0.05,0.35,0.01l194.23,123.22c0.13,0.08,0.19,0.25,0.15,0.4 c-0.04,0.15-0.18,0.26-0.34,0.26L1577.27,450.7L1577.27,450.7z M1582.17,324.39l-4.53,125.6l197.24-3.35L1582.17,324.39z"/><path d="M487.1,572.86c-0.01,0-0.02,0-0.03,0l-207.89-14.81c-0.12-0.01-0.22-0.07-0.28-0.18 c-0.06-0.1-0.06-0.23-0.01-0.34l53.49-106.81c0.05-0.1,0.14-0.16,0.24-0.19c0.1-0.02,0.21,0,0.3,0.07l154.4,121.62 c0.12,0.1,0.17,0.26,0.11,0.41C487.38,572.77,487.25,572.86,487.1,572.86z M279.76,557.37l206.21,14.69L332.82,451.43 L279.76,557.37z"/><path d="M487.1,572.86c-0.09,0-0.18-0.03-0.25-0.1c-0.1-0.1-0.13-0.24-0.09-0.37l55.89-166.56 c0.04-0.13,0.16-0.23,0.3-0.24c0.13-0.02,0.27,0.05,0.34,0.17l70.52,119.98c0.05,0.09,0.06,0.2,0.03,0.3 c-0.04,0.1-0.11,0.18-0.21,0.21l-126.41,46.57C487.18,572.85,487.14,572.86,487.1,572.86z M543.08,406.8l-55.41,165.12 l125.32-46.17L543.08,406.8z"/><path d="M1581.84,324.11c-0.15,0-0.29-0.1-0.34-0.24c-0.05-0.15,0-0.31,0.12-0.4l230.38-174.85 c0.11-0.08,0.25-0.1,0.37-0.04c0.12,0.06,0.2,0.18,0.2,0.32l1.11,171.88c0,0.19-0.16,0.35-0.35,0.36L1581.84,324.11 C1581.85,324.11,1581.84,324.11,1581.84,324.11z M1811.87,149.62l-228.96,173.77l230.06-2.95L1811.87,149.62z"/><path d="M1776.07,447.33c-0.11,0-0.21-0.05-0.28-0.14c-0.07-0.09-0.09-0.21-0.06-0.32l37.26-126.19 c0.03-0.11,0.11-0.19,0.22-0.23c0.1-0.04,0.22-0.03,0.32,0.04l182.74,119.32c0.13,0.09,0.19,0.24,0.15,0.39 c-0.04,0.15-0.17,0.25-0.33,0.26l-220,6.87H1776.07z M1813.54,321.35l-36.98,125.26l218.38-6.82L1813.54,321.35z"/><path d="M1914.02,224.22c-0.07,0-0.15-0.02-0.21-0.07l-101.8-74.96c-0.09-0.06-0.14-0.16-0.14-0.27 c0-0.11,0.04-0.21,0.12-0.28l163.1-145.75c0.12-0.1,0.29-0.12,0.42-0.04c0.13,0.08,0.2,0.25,0.16,0.4l-61.3,220.71 c-0.03,0.11-0.12,0.2-0.23,0.24C1914.1,224.22,1914.06,224.22,1914.02,224.22z M1812.79,148.88l101.03,74.4l60.84-219.05 L1812.79,148.88z"/><path d="M1996.08,440.46c-0.07,0-0.13-0.02-0.19-0.06l-182.74-119.32c-0.09-0.06-0.15-0.16-0.16-0.26 c-0.01-0.11,0.03-0.21,0.11-0.29l100.69-96.92c0.09-0.08,0.21-0.11,0.32-0.09c0.12,0.03,0.21,0.11,0.25,0.22l82.06,216.23 c0.06,0.14,0.01,0.31-0.11,0.4C1996.24,440.43,1996.16,440.46,1996.08,440.46z M1813.9,320.73l181.46,118.48l-81.48-214.71 L1813.9,320.73z"/><path d="M903.51,531.43c-0.09,0-0.18-0.03-0.24-0.1c-0.08-0.07-0.12-0.18-0.11-0.29l12.15-156.66 c0.01-0.14,0.1-0.26,0.24-0.31c0.13-0.05,0.28-0.01,0.38,0.09l129.34,138.03c0.09,0.1,0.12,0.24,0.07,0.36 c-0.04,0.13-0.16,0.22-0.29,0.23l-141.49,18.63C903.54,531.43,903.53,531.43,903.51,531.43z M915.96,375.24L903.9,530.67 l140.37-18.48L915.96,375.24z"/><path d="M72.54,712.2l-0.42-0.57l206.64-154.05l-84.76-170.42l0.64-0.32l84.9,170.68c0.08,0.15,0.03,0.34-0.11,0.44 L72.54,712.2z"/><path d="M1720.41,530.06c-0.09,0-0.18-0.04-0.25-0.11c-0.1-0.11-0.13-0.26-0.07-0.4l92.87-207.28l-155.06-159.39 l-69.38,159.39l-0.65-0.28l69.59-159.88c0.05-0.11,0.15-0.19,0.26-0.21c0.11-0.02,0.24,0.02,0.32,0.1l155.6,159.95 c0.02,0.03,0.05,0.05,0.06,0.08l71.06,137.01c0.05,0.09,0.05,0.19,0.02,0.28c-0.03,0.09-0.1,0.17-0.19,0.21l-164.03,70.48 C1720.5,530.05,1720.45,530.06,1720.41,530.06z M1813.4,323.02l-92.3,205.99l162.84-69.97L1813.4,323.02z"/><path d="M1914.18,224.19l-0.32-0.64l66.02-32.79l-322.14-28.15l0.06-0.71l323.4,28.25c0.16,0.01,0.29,0.13,0.32,0.29 c0.03,0.16-0.05,0.31-0.19,0.38L1914.18,224.19z"/><path d="M1647.78 408.83H1648.49V571.27H1647.78z" transform="rotate(-60.738 1648.187 490.028)"/><path d="M1409.68 630.68L1409.45 630.01 1718.65 522.31 1718.88 522.98z"/><path d="M279.21,558.04c-0.15,0-0.29-0.1-0.34-0.25c-0.05-0.16,0.02-0.33,0.16-0.42l263.78-151.74l0.35,0.62 L280.8,557.18l332.68-31.6l0.07,0.71l-334.31,31.76C279.23,558.04,279.22,558.04,279.21,558.04z"/></g><g id="change1_20"><path d="M1580.11,450.26c0.05,1.57-1.18,2.88-2.75,2.93c-1.57,0.05-2.88-1.18-2.93-2.75 c-0.05-1.57,1.18-2.88,2.75-2.93C1578.75,447.46,1580.06,448.69,1580.11,450.26z"/></g><g id="change1_21"><path d="M1722.51,528.93c0.05,1.57-1.18,2.88-2.75,2.93c-1.57,0.05-2.88-1.18-2.93-2.75 c-0.05-1.57,1.18-2.88,2.75-2.93C1721.16,526.13,1722.47,527.36,1722.51,528.93z"/></g><g id="change1_22"><path d="M1722.29,521.83c0.05,1.57-1.18,2.88-2.75,2.93c-1.57,0.05-2.88-1.18-2.93-2.75 c-0.05-1.57,1.18-2.88,2.75-2.93C1720.93,519.03,1722.24,520.26,1722.29,521.83z"/></g><g id="change1_23"><path d="M1778.18,446.2c0.05,1.57-1.18,2.88-2.75,2.93c-1.57,0.05-2.88-1.18-2.93-2.75 c-0.05-1.57,1.18-2.88,2.75-2.93C1776.82,443.4,1778.13,444.63,1778.18,446.2z"/></g><g id="change1_24"><path d="M1887.26,458.78c0.05,1.57-1.18,2.88-2.75,2.93c-1.57,0.05-2.88-1.18-2.93-2.75 c-0.05-1.57,1.18-2.88,2.75-2.93C1885.9,455.98,1887.21,457.21,1887.26,458.78z"/></g><g id="change1_25"><path d="M1998.92,440.01c0.05,1.57-1.18,2.88-2.75,2.93c-1.57,0.05-2.88-1.18-2.93-2.75 c-0.05-1.57,1.18-2.88,2.75-2.93C1997.56,437.22,1998.87,438.45,1998.92,440.01z"/></g><g id="change1_26"><path d="M1816.17,320.7c0.05,1.57-1.18,2.88-2.75,2.93c-1.57,0.05-2.88-1.18-2.93-2.75 c-0.05-1.57,1.18-2.88,2.75-2.93C1814.81,317.9,1816.12,319.13,1816.17,320.7z"/></g><g id="change1_27"><path d="M1660.62,162.17c0.05,1.57-1.18,2.88-2.75,2.93c-1.57,0.05-2.88-1.18-2.93-2.75 c-0.05-1.57,1.18-2.88,2.75-2.93C1659.26,159.37,1660.57,160.6,1660.62,162.17z"/></g><g id="change1_28"><path d="M1815.06,148.82c0.05,1.57-1.18,2.88-2.75,2.93c-1.57,0.05-2.88-1.18-2.93-2.75 c-0.05-1.57,1.18-2.88,2.75-2.93C1813.7,146.02,1815.01,147.25,1815.06,148.82z"/></g><g id="change1_29"><path d="M1917.41,223.76c0.05,1.57-1.18,2.88-2.75,2.93c-1.57,0.05-2.88-1.18-2.93-2.75 c-0.05-1.57,1.18-2.88,2.75-2.93C1916.05,220.96,1917.36,222.2,1917.41,223.76z"/></g><g id="change1_30"><path d="M1584.68,323.67c0.05,1.57-1.18,2.88-2.75,2.93c-1.57,0.05-2.88-1.18-2.93-2.75 c-0.05-1.57,1.18-2.88,2.75-2.93C1583.32,320.87,1584.63,322.1,1584.68,323.67z"/></g><g id="change1_31"><path d="M1591.29,320.62c0.05,1.57-1.18,2.88-2.75,2.93c-1.57,0.05-2.88-1.18-2.93-2.75 c-0.05-1.57,1.18-2.88,2.75-2.93C1589.93,317.82,1591.24,319.05,1591.29,320.62z"/></g><g id="change1_32"><path d="M1282.75,363.65c0.05,1.57-1.18,2.88-2.75,2.93c-1.57,0.05-2.88-1.18-2.93-2.75 c-0.05-1.57,1.18-2.88,2.75-2.93C1281.39,360.85,1282.7,362.08,1282.75,363.65z"/></g><g id="change1_33"><path d="M1412.4,630.26c0.05,1.57-1.18,2.88-2.75,2.93c-1.57,0.05-2.88-1.18-2.93-2.75 c-0.05-1.57,1.18-2.88,2.75-2.93C1411.04,627.46,1412.35,628.69,1412.4,630.26z"/></g><g id="change1_34"><path d="M1218.59,539.7c0.05,1.57-1.18,2.88-2.75,2.93c-1.57,0.05-2.88-1.18-2.93-2.75 c-0.05-1.57,1.18-2.88,2.75-2.93C1217.23,536.9,1218.54,538.13,1218.59,539.7z"/></g><g id="change1_35"><path d="M1047.84,512.36c0.05,1.57-1.18,2.88-2.75,2.93c-1.57,0.05-2.88-1.18-2.93-2.75 c-0.05-1.57,1.18-2.88,2.75-2.93C1046.48,509.56,1047.79,510.79,1047.84,512.36z"/></g><g id="change1_36"><path d="M1090.74,430.03c0.05,1.57-1.18,2.88-2.75,2.93c-1.57,0.05-2.88-1.18-2.93-2.75 c-0.05-1.57,1.18-2.88,2.75-2.93C1089.38,427.24,1090.69,428.47,1090.74,430.03z"/></g><g id="change1_37"><path d="M986.56,438.09c0.05,1.57-1.18,2.88-2.75,2.93c-1.57,0.05-2.88-1.18-2.93-2.75 c-0.05-1.57,1.18-2.88,2.75-2.93C985.2,435.29,986.51,436.52,986.56,438.09z"/></g><g id="change1_38"><path d="M906.35,530.99c0.05,1.57-1.18,2.88-2.75,2.93c-1.57,0.05-2.88-1.18-2.93-2.75 c-0.05-1.57,1.18-2.88,2.75-2.93C904.99,528.19,906.3,529.42,906.35,530.99z"/></g><g id="change1_39"><path d="M917.67,374.35c0.05,1.57-1.18,2.88-2.75,2.93c-1.57,0.05-2.88-1.18-2.93-2.75 c-0.05-1.57,1.18-2.88,2.75-2.93C916.31,371.55,917.62,372.78,917.67,374.35z"/></g><g id="change1_40"><path d="M792.91,401.69c0.05,1.57-1.18,2.88-2.75,2.93c-1.57,0.05-2.88-1.18-2.93-2.75 c-0.05-1.57,1.18-2.88,2.75-2.93C791.55,398.89,792.86,400.12,792.91,401.69z"/></g><g id="change1_41"><path d="M725.35,481.23c0.05,1.57-1.18,2.88-2.75,2.93c-1.57,0.05-2.88-1.18-2.93-2.75 c-0.05-1.57,1.18-2.88,2.75-2.93C723.99,478.43,725.3,479.67,725.35,481.23z"/></g><g id="change1_42"><path d="M594.53,350.35c0.05,1.57-1.18,2.88-2.75,2.93c-1.57,0.05-2.88-1.18-2.93-2.75 c-0.05-1.57,1.18-2.88,2.75-2.93C593.17,347.55,594.48,348.78,594.53,350.35z"/></g><g id="change1_43"><path d="M546.23,405.85c0.05,1.57-1.18,2.88-2.75,2.93c-1.57,0.05-2.88-1.18-2.93-2.75 c-0.05-1.57,1.18-2.88,2.75-2.93C544.87,403.05,546.18,404.28,546.23,405.85z"/></g><g id="change1_44"><path d="M616.35,525.61c0.05,1.57-1.18,2.88-2.75,2.93c-1.57,0.05-2.88-1.18-2.93-2.75 c-0.05-1.57,1.18-2.88,2.75-2.93C614.99,522.81,616.3,524.04,616.35,525.61z"/></g><g id="change1_45"><path d="M489.19,571.14c0.05,1.57-1.18,2.88-2.75,2.93c-1.57,0.05-2.88-1.18-2.93-2.75 c-0.05-1.57,1.18-2.88,2.75-2.93C487.83,568.34,489.14,569.57,489.19,571.14z"/></g><g id="change1_46"><path d="M434.32,448.23c0.05,1.57-1.18,2.88-2.75,2.93c-1.57,0.05-2.88-1.18-2.93-2.75 c-0.05-1.57,1.18-2.88,2.75-2.93C432.96,445.43,434.27,446.66,434.32,448.23z"/></g><g id="change1_47"><path d="M388.98,361.35c0.05,1.57-1.18,2.88-2.75,2.93c-1.57,0.05-2.88-1.18-2.93-2.75 c-0.05-1.57,1.18-2.88,2.75-2.93C387.62,358.55,388.93,359.78,388.98,361.35z"/></g><g id="change1_48"><path d="M335.54,450.79c0.05,1.57-1.18,2.88-2.75,2.93c-1.57,0.05-2.88-1.18-2.93-2.75 c-0.05-1.57,1.18-2.88,2.75-2.93C334.18,447.99,335.49,449.22,335.54,450.79z"/></g><g id="change1_49"><path d="M190.14,389.98c0.05,1.57-1.18,2.88-2.75,2.93c-1.57,0.05-2.88-1.18-2.93-2.75 c-0.05-1.57,1.18-2.88,2.75-2.93C188.78,387.18,190.09,388.41,190.14,389.98z"/></g><g id="change1_50"><path d="M196.89,387.7c0.05,1.57-1.18,2.88-2.75,2.93c-1.57,0.05-2.88-1.18-2.93-2.75c-0.05-1.57,1.18-2.88,2.75-2.93 C195.53,384.9,196.84,386.13,196.89,387.7z"/></g><g id="change1_51"><path d="M162,261.57c0.05,1.57-1.18,2.88-2.75,2.93c-1.57,0.05-2.88-1.18-2.93-2.75c-0.05-1.57,1.18-2.88,2.75-2.93 C160.64,258.77,161.95,260,162,261.57z"/></g><g id="change1_52"><path d="M63.3,309.41c0.05,1.57-1.18,2.88-2.75,2.93c-1.57,0.05-2.88-1.18-2.93-2.75c-0.05-1.57,1.18-2.88,2.75-2.93 C61.95,306.61,63.26,307.84,63.3,309.41z"/></g><g id="change1_53"><path d="M8.15,476.65c0.05,1.57-1.18,2.88-2.75,2.93c-1.57,0.05-2.88-1.18-2.93-2.75c-0.05-1.57,1.18-2.88,2.75-2.93 C6.79,473.85,8.1,475.08,8.15,476.65z"/></g><g id="change1_54"><path d="M282.04,557.6c0.05,1.57-1.18,2.88-2.75,2.93c-1.57,0.05-2.88-1.18-2.93-2.75c-0.05-1.57,1.18-2.88,2.75-2.93 C280.68,554.8,282,556.03,282.04,557.6z"/></g><g id="change1_55"><path d="M1198,508.62c0.05,1.57-1.18,2.88-2.75,2.93c-1.57,0.05-2.88-1.18-2.93-2.75c-0.05-1.57,1.18-2.88,2.75-2.93 C1196.64,505.82,1197.95,507.05,1198,508.62z"/></g></g><g id="change1_1"><path opacity="0.2" d="M1577.18 447.51L1719.77 531.85 1659.16 479.42z"/></g><g id="change1_2"><path opacity="0.2" d="M722.51 481.32L790.07 401.78 864.74 381.69z"/></g><g id="change1_3"><path opacity="0.2" d="M792.91 401.69L983.72 438.18 912 374.53z"/></g><g id="change1_4"><path opacity="0.2" d="M1577.27 450.35L1581.93 326.6 1464.88 490.8z"/></g><g id="change1_5"><path opacity="0.2" d="M1775.34 446.29L1813.33 320.79 1996.08 440.1z"/></g><g id="change1_6"><path opacity="0.2" d="M434.32 448.23L588.85 350.53 543.39 405.94z"/></g><g id="change1_7"><path opacity="0.2" d="M191.21 387.87L386.14 361.44 63.3 309.41z"/></g><g id="change1_8"><path opacity="0.2" d="M159.25 264.5L386.14 361.44 332.79 453.72z"/></g><g id="change1_9"><path opacity="0.2" d="M486.35 571.23L335.54 450.79 276.37 557.78z"/></g><g id="change1_10"><path opacity="0.2" d="M279.12 554.85L613.51 525.69 486.44 574.07z"/></g><g id="change1_11"><path opacity="0.2" d="M1212.91 539.88L1045.09 515.29 912 374.53z"/></g><g id="change1_12"><path opacity="0.2" d="M1775.43 449.13L1914.66 226.69 1813.33 320.79z"/></g><g id="change1_13"><path opacity="0.2" d="M1581.84 323.76L1979.47 -0.53 1809.39 149z"/></g><g id="change1_14"><path opacity="0.2" d="M1657.78 162.26L1981.17 190.51 1914.66 226.69z"/></g><g id="change1_15"><path opacity="0.2" d="M1581.93 326.6L1657.78 162.26 1812.22 148.91z"/></g><g id="change1_16"><path opacity="0.2" d="M1218.59 539.7L1195.08 505.87 1279.83 360.9z"/></g><g id="change1_17"><path opacity="0.2" d="M1212.91 539.88L1454.54 614.68 1409.56 630.34z"/></g><g id="change1_18"><path opacity="0.2" d="M1409.65 633.18L1574.43 450.44 1579 323.85z"/></g></g></svg>