<?xml version="1.0" encoding="UTF-8" standalone="no"?><svg xmlns="http://www.w3.org/2000/svg" xmlns:xlink="http://www.w3.org/1999/xlink" contentScriptType="text/ecmascript" zoomAndPan="magnify" contentStyleType="text/css" stroke="#000000" stroke-linecap="square" version="1" width="159.83" stroke-miterlimit="10" fill="#000000" preserveAspectRatio="xMidYMid meet" height="176.93"><g><g fill="#00ffff" stroke="#00ffff"><path d="M0 26.17C0 165.72 0 165.72 0 165.72c0 6.23 4.96 11.21 11.15 11.21 0 0 0 0 0 0 137.53 0 137.53 0 137.53 0 6.19 0 11.15-4.98 11.15-11.21 0 0 0 0 0 0 0-139.55 0-139.55 0-139.55 0-6.23-4.96-11.21-11.15-11.21 0 0 0 0 0 0-58.23 0-58.23 0-58.23 0C80.53 0 80.53 0 80.53 0 69.38 14.95 69.38 14.95 69.38 14.95c-58.23 0-58.23 0-58.23 0C4.96 14.95 0 19.94 0 26.17Z" stroke="none"/></g></g></svg>