<?xml version="1.0" encoding="UTF-8" standalone="no"?><svg xmlns="http://www.w3.org/2000/svg" xmlns:xlink="http://www.w3.org/1999/xlink" contentScriptType="text/ecmascript" zoomAndPan="magnify" contentStyleType="text/css" stroke="#000000" stroke-linecap="square" version="1" width="158.65" stroke-miterlimit="10" fill="#000000" preserveAspectRatio="xMidYMid meet" height="178.11"><g><g fill="#00ffff" stroke="#00ffff"><path d="M158.65 150.71c0-138.26 0-138.26 0-138.26C158.65 4.98 153.69 0 147.5 0c0 0 0 0 0 0C11.16 0 11.16 0 11.16 0 4.96 0 0 4.98 0 12.46c0 0 0 0 0 0C0 150.71 0 150.71 0 150.71c0 6.23 4.96 11.21 11.16 11.21 0 0 0 0 0 0 57.02 0 57.02 0 57.02 0 11.16 16.19 11.16 16.19 11.16 16.19 11.16-16.19 11.16-16.19 11.16-16.19 57.02 0 57.02 0 57.02 0 6.2 0 11.16-4.98 11.16-11.21Z" stroke="none"/></g></g></svg>