<svg width="1996.6" height="712.7" viewBox="2.4 -0.5 1996.6 712.7" xmlns="http://www.w3.org/2000/svg" xmlns:xlink="http://www.w3.org/1999/xlink" overflow="hidden"><g fill="#00FFFF"><g><g id="change1_19"><path d="M386.14 361.79C386.12 361.79 386.1 361.79 386.08 361.79L60.41 309.85C60.26 309.82 60.14 309.7 60.11 309.55 60.09 309.4 60.17 309.25 60.31 309.18L158.29 262.07C158.38 262.03 158.49 262.02 158.59 262.06L386.29 361.1C386.45 361.17 386.54 361.35 386.49 361.53 386.44 361.69 386.3 361.79 386.14 361.79ZM61.64 309.33 383.43 360.65 158.45 262.79 61.64 309.33Z"/><path d="M332.7 451.24C332.57 451.24 332.46 451.17 332.39 451.06 332.32 450.95 332.33 450.81 332.39 450.7L386.42 360.92C386.49 360.81 386.61 360.75 386.74 360.75 386.87 360.76 386.99 360.83 387.04 360.94L431.8 448.15C431.86 448.26 431.85 448.39 431.79 448.49 431.73 448.6 431.62 448.66 431.49 448.66L332.7 451.24 332.7 451.24ZM386.7 361.83 333.34 450.51 430.91 447.97 386.7 361.83Z"/><path d="M332.7 451.24C332.65 451.24 332.61 451.23 332.56 451.21L187.16 390.4C187.02 390.34 186.93 390.19 186.94 390.04 186.96 389.89 187.07 389.76 187.22 389.73L276.15 371.32C276.29 371.29 276.43 371.35 276.51 371.46L332.97 450.68C333.06 450.81 333.06 450.98 332.96 451.11 332.91 451.19 332.8 451.24 332.7 451.24ZM188.5 390.18 331.69 450.07 276.08 372.05 188.5 390.18Z"/><path d="M276.23 372.02C276.14 372.02 276.05 371.99 275.99 371.92L158.89 261.92C158.77 261.8 158.74 261.61 158.84 261.47 158.93 261.33 159.12 261.27 159.28 261.34L386.87 360.79C387.02 360.85 387.1 361.01 387.08 361.17 387.05 361.33 386.92 361.45 386.76 361.47L276.27 372.03C276.26 372.02 276.25 372.02 276.23 372.02ZM160.88 262.81 276.36 371.29 385.33 360.88 160.88 262.81Z"/><path d="M5.31 477.1C5.21 477.1 5.11 477.05 5.04 476.97 4.94 476.85 4.93 476.67 5.02 476.54L158.85 261.46C158.93 261.35 159.07 261.29 159.2 261.32 159.33 261.34 159.44 261.44 159.48 261.57L194.42 388.58C194.47 388.75 194.38 388.92 194.23 389L5.46 477.06C5.41 477.08 5.36 477.1 5.31 477.1ZM158.99 262.47 6.38 475.85 193.65 388.48 158.99 262.47Z"/><path d="M432.06 448.13C431.93 448.13 431.8 448.06 431.74 447.93 431.66 447.76 431.72 447.57 431.87 447.47L592.22 350.11C592.37 350.02 592.56 350.05 592.68 350.19 592.79 350.33 592.79 350.52 592.67 350.65L543.26 406.18C543.22 406.22 543.17 406.26 543.12 406.28L432.19 448.11C432.14 448.12 432.1 448.13 432.06 448.13ZM590.56 351.95 435.5 446.1 542.77 405.65 590.56 351.95Z"/><path d="M613.51 526.29C613.44 526.29 613.36 526.27 613.3 526.22L386.52 361.39C386.38 361.29 386.33 361.1 386.41 360.95 386.48 360.8 386.66 360.72 386.83 360.76L543.09 405.6C543.18 405.62 543.25 405.68 543.3 405.76L613.82 525.74C613.91 525.89 613.88 526.07 613.75 526.18 613.68 526.26 613.6 526.29 613.51 526.29ZM388.56 362 612.34 524.64 542.75 406.25 388.56 362Z"/><path d="M613.51 526.29C613.38 526.29 613.26 526.22 613.2 526.11 613.11 525.95 613.16 525.75 613.31 525.65L789.84 400.79C789.99 400.69 790.19 400.71 790.31 400.84 790.43 400.97 790.44 401.17 790.32 401.31L723.21 481.55C723.17 481.6 723.13 481.63 723.07 481.65L613.64 526.27C613.6 526.28 613.56 526.29 613.51 526.29ZM788.03 402.94 616.25 524.44 722.73 481.02 788.03 402.94Z"/><path d="M722.94 481.66C722.85 481.66 722.76 481.62 722.69 481.56L592.15 350.67C592.04 350.56 592.01 350.38 592.09 350.24 592.17 350.1 592.33 350.03 592.49 350.07L790.14 400.72C790.26 400.75 790.35 400.84 790.39 400.95 790.43 401.07 790.4 401.19 790.32 401.29L723.21 481.53C723.15 481.61 723.05 481.65 722.95 481.66 722.95 481.66 722.94 481.66 722.94 481.66ZM593.57 351.08 722.92 480.78 789.42 401.27 593.57 351.08Z"/><path d="M722.94 481.66C722.82 481.66 722.71 481.6 722.64 481.49 722.54 481.33 722.58 481.12 722.74 481.01L864.54 381.39C864.59 381.36 864.64 381.34 864.69 381.33L915.61 374.06C915.78 374.04 915.94 374.14 916 374.3 916.05 374.46 915.99 374.64 915.84 374.72L723.11 481.62C723.06 481.65 723 481.66 722.94 481.66ZM864.88 382.03 728.62 477.76 913.81 375.04 864.88 382.03Z"/><path d="M984.42 437.97C984.4 437.97 984.38 437.97 984.35 437.96L789.98 401.41C789.81 401.38 789.69 401.23 789.69 401.07 789.69 400.9 789.81 400.75 789.97 400.72L915.59 374.06C915.7 374.04 915.82 374.07 915.9 374.15L984.65 437.36C984.77 437.47 984.8 437.64 984.73 437.78 984.67 437.9 984.55 437.97 984.42 437.97ZM791.86 401.05 983.26 437.04 915.56 374.8 791.86 401.05Z"/><path d="M984.42 437.97C984.33 437.97 984.25 437.94 984.18 437.88L915.43 374.67C915.31 374.56 915.28 374.37 915.36 374.23 915.44 374.09 915.62 374.02 915.78 374.07L1089.43 429.74C1089.59 429.79 1089.7 429.95 1089.67 430.12 1089.65 430.29 1089.51 430.42 1089.34 430.43L984.44 437.97C984.43 437.97 984.42 437.97 984.42 437.97ZM917.09 375.24 984.54 437.25 1087.46 429.85 917.09 375.24Z"/><path d="M1045 512.8C1044.88 512.8 1044.76 512.74 1044.7 512.63 1044.63 512.52 1044.63 512.39 1044.69 512.28L1089 429.91C1089.05 429.82 1089.13 429.75 1089.23 429.73 1089.33 429.71 1089.44 429.73 1089.52 429.79L1195.71 508.88C1195.83 508.97 1195.88 509.13 1195.84 509.27 1195.79 509.41 1195.66 509.51 1195.51 509.52L1045 512.8C1045.01 512.8 1045.01 512.8 1045 512.8ZM1089.44 430.61 1045.61 512.08 1194.47 508.83 1089.44 430.61Z"/><path d="M1216.35 540.12C1216.33 540.12 1216.31 540.12 1216.29 540.12L1044.94 512.8C1044.86 512.79 1044.78 512.74 1044.73 512.68L977.97 435.91C977.86 435.78 977.85 435.6 977.95 435.47 978.05 435.34 978.23 435.29 978.38 435.36L1216.49 539.45C1216.65 539.52 1216.74 539.7 1216.69 539.88 1216.65 540.02 1216.51 540.12 1216.35 540.12ZM1045.19 512.12 1213.66 538.98 979.55 436.64 1045.19 512.12Z"/><path d="M1216.35 540.12C1216.23 540.12 1216.12 540.06 1216.06 539.96L1195.21 509.36C1195.13 509.25 1195.13 509.1 1195.2 508.98L1280.14 362.83C1280.23 362.67 1280.43 362.61 1280.6 362.69 1280.77 362.77 1280.85 362.96 1280.78 363.13L1216.69 539.89C1216.64 540.02 1216.53 540.1 1216.4 540.12 1216.38 540.12 1216.37 540.12 1216.35 540.12ZM1195.92 509.15 1216.25 539 1278.76 366.62 1195.92 509.15Z"/><path d="M1409.56 630.7C1409.54 630.7 1409.52 630.7 1409.51 630.7 1409.39 630.68 1409.29 630.61 1409.24 630.5L1280.12 363.17C1280.06 363.04 1280.08 362.89 1280.17 362.79 1280.26 362.68 1280.4 362.64 1280.54 362.68L1577.37 450.02C1577.49 450.05 1577.58 450.15 1577.61 450.27 1577.64 450.39 1577.61 450.52 1577.53 450.61L1409.82 630.6C1409.76 630.66 1409.66 630.7 1409.56 630.7ZM1281.11 363.58 1409.66 629.72 1576.62 450.53 1281.11 363.58Z"/><path d="M1409.56 630.7C1409.51 630.7 1409.46 630.69 1409.41 630.67L1216.2 540.1C1216.06 540.04 1215.98 539.89 1216 539.74 1216.02 539.59 1216.13 539.46 1216.28 539.43L1464.8 490.46C1464.92 490.43 1465.06 490.48 1465.14 490.58 1465.22 490.68 1465.25 490.82 1465.2 490.94L1409.89 630.48C1409.85 630.57 1409.78 630.64 1409.69 630.68 1409.65 630.69 1409.61 630.7 1409.56 630.7ZM1217.48 539.91 1409.37 629.86 1464.3 491.27 1217.48 539.91Z"/><path d="M1464.87 491.16C1464.76 491.16 1464.66 491.11 1464.59 491.02 1464.5 490.9 1464.49 490.73 1464.58 490.6L1581.55 323.56C1581.64 323.43 1581.81 323.38 1581.95 323.43 1582.1 323.48 1582.2 323.62 1582.19 323.78L1577.62 450.37C1577.61 450.51 1577.52 450.64 1577.39 450.69L1464.99 491.14C1464.96 491.15 1464.92 491.16 1464.87 491.16ZM1581.44 324.95 1465.8 490.09 1576.92 450.1 1581.44 324.95Z"/><path d="M1577.27 450.7C1577.17 450.7 1577.08 450.66 1577.02 450.59 1576.95 450.52 1576.92 450.43 1576.92 450.33L1581.49 323.74C1581.49 323.61 1581.57 323.5 1581.68 323.44 1581.79 323.38 1581.93 323.39 1582.03 323.45L1776.26 446.67C1776.39 446.75 1776.45 446.92 1776.41 447.07 1776.37 447.22 1776.23 447.33 1776.07 447.33L1577.27 450.7 1577.27 450.7ZM1582.17 324.39 1577.64 449.99 1774.88 446.64 1582.17 324.39Z"/><path d="M487.1 572.86C487.09 572.86 487.08 572.86 487.07 572.86L279.18 558.05C279.06 558.04 278.96 557.98 278.9 557.87 278.84 557.77 278.84 557.64 278.89 557.53L332.38 450.72C332.43 450.62 332.52 450.56 332.62 450.53 332.72 450.51 332.83 450.53 332.92 450.6L487.32 572.22C487.44 572.32 487.49 572.48 487.43 572.63 487.38 572.77 487.25 572.86 487.1 572.86ZM279.76 557.37 485.97 572.06 332.82 451.43 279.76 557.37Z"/><path d="M487.1 572.86C487.01 572.86 486.92 572.83 486.85 572.76 486.75 572.66 486.72 572.52 486.76 572.39L542.65 405.83C542.69 405.7 542.81 405.6 542.95 405.59 543.08 405.57 543.22 405.64 543.29 405.76L613.81 525.74C613.86 525.83 613.87 525.94 613.84 526.04 613.8 526.14 613.73 526.22 613.63 526.25L487.22 572.82C487.18 572.85 487.14 572.86 487.1 572.86ZM543.08 406.8 487.67 571.92 612.99 525.75 543.08 406.8Z"/><path d="M1581.84 324.11C1581.69 324.11 1581.55 324.01 1581.5 323.87 1581.45 323.72 1581.5 323.56 1581.62 323.47L1812 148.62C1812.11 148.54 1812.25 148.52 1812.37 148.58 1812.49 148.64 1812.57 148.76 1812.57 148.9L1813.68 320.78C1813.68 320.97 1813.52 321.13 1813.33 321.14L1581.84 324.11C1581.85 324.11 1581.84 324.11 1581.84 324.11ZM1811.87 149.62 1582.91 323.39 1812.97 320.44 1811.87 149.62Z"/><path d="M1776.07 447.33C1775.96 447.33 1775.86 447.28 1775.79 447.19 1775.72 447.1 1775.7 446.98 1775.73 446.87L1812.99 320.68C1813.02 320.57 1813.1 320.49 1813.21 320.45 1813.31 320.41 1813.43 320.42 1813.53 320.49L1996.27 439.81C1996.4 439.9 1996.46 440.05 1996.42 440.2 1996.38 440.35 1996.25 440.45 1996.09 440.46L1776.09 447.33 1776.07 447.33ZM1813.54 321.35 1776.56 446.61 1994.94 439.79 1813.54 321.35Z"/><path d="M1914.02 224.22C1913.95 224.22 1913.87 224.2 1913.81 224.15L1812.01 149.19C1811.92 149.13 1811.87 149.03 1811.87 148.92 1811.87 148.81 1811.91 148.71 1811.99 148.64L1975.09 2.89C1975.21 2.79 1975.38 2.77 1975.51 2.85 1975.64 2.93 1975.71 3.1 1975.67 3.25L1914.37 223.96C1914.34 224.07 1914.25 224.16 1914.14 224.2 1914.1 224.22 1914.06 224.22 1914.02 224.22ZM1812.79 148.88 1913.82 223.28 1974.66 4.23 1812.79 148.88Z"/><path d="M1996.08 440.46C1996.01 440.46 1995.95 440.44 1995.89 440.4L1813.15 321.08C1813.06 321.02 1813 320.92 1812.99 320.82 1812.98 320.71 1813.02 320.61 1813.1 320.53L1913.79 223.61C1913.88 223.53 1914 223.5 1914.11 223.52 1914.23 223.55 1914.32 223.63 1914.36 223.74L1996.42 439.97C1996.48 440.11 1996.43 440.28 1996.31 440.37 1996.24 440.43 1996.16 440.46 1996.08 440.46ZM1813.9 320.73 1995.36 439.21 1913.88 224.5 1813.9 320.73Z"/><path d="M903.51 531.43C903.42 531.43 903.33 531.4 903.27 531.33 903.19 531.26 903.15 531.15 903.16 531.04L915.31 374.38C915.32 374.24 915.41 374.12 915.55 374.07 915.68 374.02 915.83 374.06 915.93 374.16L1045.27 512.19C1045.36 512.29 1045.39 512.43 1045.34 512.55 1045.3 512.68 1045.18 512.77 1045.05 512.78L903.56 531.41C903.54 531.43 903.53 531.43 903.51 531.43ZM915.96 375.24 903.9 530.67 1044.27 512.19 915.96 375.24Z"/><path d="M72.54 712.2 72.12 711.63 278.76 557.58 194 387.16 194.64 386.84 279.54 557.52C279.62 557.67 279.57 557.86 279.43 557.96L72.54 712.2Z"/><path d="M1720.41 530.06C1720.32 530.06 1720.23 530.02 1720.16 529.95 1720.06 529.84 1720.03 529.69 1720.09 529.55L1812.96 322.27 1657.9 162.88 1588.52 322.27 1587.87 321.99 1657.46 162.11C1657.51 162 1657.61 161.92 1657.72 161.9 1657.83 161.88 1657.96 161.92 1658.04 162L1813.64 321.95C1813.66 321.98 1813.69 322 1813.7 322.03L1884.76 459.04C1884.81 459.13 1884.81 459.23 1884.78 459.32 1884.75 459.41 1884.68 459.49 1884.59 459.53L1720.56 530.01C1720.5 530.05 1720.45 530.06 1720.41 530.06ZM1813.4 323.02 1721.1 529.01 1883.94 459.04 1813.4 323.02Z"/><path d="M1914.18 224.19 1913.86 223.55 1979.88 190.76 1657.74 162.61 1657.8 161.9 1981.2 190.15C1981.36 190.16 1981.49 190.28 1981.52 190.44 1981.55 190.6 1981.47 190.75 1981.33 190.82L1914.18 224.19Z"/><path d="M1647.78 408.83 1648.49 408.83 1648.49 571.27 1647.78 571.27Z" transform="matrix(0.488804 -0.872394 0.872394 0.488804 415.049 1688.37)"/><path d="M1409.68 630.68 1409.45 630.01 1718.65 522.31 1718.88 522.98Z"/><path d="M279.21 558.04C279.06 558.04 278.92 557.94 278.87 557.79 278.82 557.63 278.89 557.46 279.03 557.37L542.81 405.63 543.16 406.25 280.8 557.18 613.48 525.58 613.55 526.29 279.24 558.05C279.23 558.04 279.22 558.04 279.21 558.04Z"/></g><g id="change1_20"><path d="M1580.11 450.26C1580.16 451.83 1578.93 453.14 1577.36 453.19 1575.79 453.24 1574.48 452.01 1574.43 450.44 1574.38 448.87 1575.61 447.56 1577.18 447.51 1578.75 447.46 1580.06 448.69 1580.11 450.26Z"/></g><g id="change1_21"><path d="M1722.51 528.93C1722.56 530.5 1721.33 531.81 1719.76 531.86 1718.19 531.91 1716.88 530.68 1716.83 529.11 1716.78 527.54 1718.01 526.23 1719.58 526.18 1721.16 526.13 1722.47 527.36 1722.51 528.93Z"/></g><g id="change1_22"><path d="M1722.29 521.83C1722.34 523.4 1721.11 524.71 1719.54 524.76 1717.97 524.81 1716.66 523.58 1716.61 522.01 1716.56 520.44 1717.79 519.13 1719.36 519.08 1720.93 519.03 1722.24 520.26 1722.29 521.83Z"/></g><g id="change1_23"><path d="M1778.18 446.2C1778.23 447.77 1777 449.08 1775.43 449.13 1773.86 449.18 1772.55 447.95 1772.5 446.38 1772.45 444.81 1773.68 443.5 1775.25 443.45 1776.82 443.4 1778.13 444.63 1778.18 446.2Z"/></g><g id="change1_24"><path d="M1887.26 458.78C1887.31 460.35 1886.08 461.66 1884.51 461.71 1882.94 461.76 1881.63 460.53 1881.58 458.96 1881.53 457.39 1882.76 456.08 1884.33 456.03 1885.9 455.98 1887.21 457.21 1887.26 458.78Z"/></g><g id="change1_25"><path d="M1998.92 440.01C1998.97 441.58 1997.74 442.89 1996.17 442.94 1994.6 442.99 1993.29 441.76 1993.24 440.19 1993.19 438.62 1994.42 437.31 1995.99 437.26 1997.56 437.22 1998.87 438.45 1998.92 440.01Z"/></g><g id="change1_26"><path d="M1816.17 320.7C1816.22 322.27 1814.99 323.58 1813.42 323.63 1811.85 323.68 1810.54 322.45 1810.49 320.88 1810.44 319.31 1811.67 318 1813.24 317.95 1814.81 317.9 1816.12 319.13 1816.17 320.7Z"/></g><g id="change1_27"><path d="M1660.62 162.17C1660.67 163.74 1659.44 165.05 1657.87 165.1 1656.3 165.15 1654.99 163.92 1654.94 162.35 1654.89 160.78 1656.12 159.47 1657.69 159.42 1659.26 159.37 1660.57 160.6 1660.62 162.17Z"/></g><g id="change1_28"><path d="M1815.06 148.82C1815.11 150.39 1813.88 151.7 1812.31 151.75 1810.74 151.8 1809.43 150.57 1809.38 149 1809.33 147.43 1810.56 146.12 1812.13 146.07 1813.7 146.02 1815.01 147.25 1815.06 148.82Z"/></g><g id="change1_29"><path d="M1917.41 223.76C1917.46 225.33 1916.23 226.64 1914.66 226.69 1913.09 226.74 1911.78 225.51 1911.73 223.94 1911.68 222.37 1912.91 221.06 1914.48 221.01 1916.05 220.96 1917.36 222.2 1917.41 223.76Z"/></g><g id="change1_30"><path d="M1584.68 323.67C1584.73 325.24 1583.5 326.55 1581.93 326.6 1580.36 326.65 1579.05 325.42 1579 323.85 1578.95 322.28 1580.18 320.97 1581.75 320.92 1583.32 320.87 1584.63 322.1 1584.68 323.67Z"/></g><g id="change1_31"><path d="M1591.29 320.62C1591.34 322.19 1590.11 323.5 1588.54 323.55 1586.97 323.6 1585.66 322.37 1585.61 320.8 1585.56 319.23 1586.79 317.92 1588.36 317.87 1589.93 317.82 1591.24 319.05 1591.29 320.62Z"/></g><g id="change1_32"><path d="M1282.75 363.65C1282.8 365.22 1281.57 366.53 1280 366.58 1278.43 366.63 1277.12 365.4 1277.07 363.83 1277.02 362.26 1278.25 360.95 1279.82 360.9 1281.39 360.85 1282.7 362.08 1282.75 363.65Z"/></g><g id="change1_33"><path d="M1412.4 630.26C1412.45 631.83 1411.22 633.14 1409.65 633.19 1408.08 633.24 1406.77 632.01 1406.72 630.44 1406.67 628.87 1407.9 627.56 1409.47 627.51 1411.04 627.46 1412.35 628.69 1412.4 630.26Z"/></g><g id="change1_34"><path d="M1218.59 539.7C1218.64 541.27 1217.41 542.58 1215.84 542.63 1214.27 542.68 1212.96 541.45 1212.91 539.88 1212.86 538.31 1214.09 537 1215.66 536.95 1217.23 536.9 1218.54 538.13 1218.59 539.7Z"/></g><g id="change1_35"><path d="M1047.84 512.36C1047.89 513.93 1046.66 515.24 1045.09 515.29 1043.52 515.34 1042.21 514.11 1042.16 512.54 1042.11 510.97 1043.34 509.66 1044.91 509.61 1046.48 509.56 1047.79 510.79 1047.84 512.36Z"/></g><g id="change1_36"><path d="M1090.74 430.03C1090.79 431.6 1089.56 432.91 1087.99 432.96 1086.42 433.01 1085.11 431.78 1085.06 430.21 1085.01 428.64 1086.24 427.33 1087.81 427.28 1089.38 427.24 1090.69 428.47 1090.74 430.03Z"/></g><g id="change1_37"><path d="M986.56 438.09C986.61 439.66 985.38 440.97 983.81 441.02 982.24 441.07 980.93 439.84 980.88 438.27 980.83 436.7 982.06 435.39 983.63 435.34 985.2 435.29 986.51 436.52 986.56 438.09Z"/></g><g id="change1_38"><path d="M906.35 530.99C906.4 532.56 905.17 533.87 903.6 533.92 902.03 533.97 900.72 532.74 900.67 531.17 900.62 529.6 901.85 528.29 903.42 528.24 904.99 528.19 906.3 529.42 906.35 530.99Z"/></g><g id="change1_39"><path d="M917.67 374.35C917.72 375.92 916.49 377.23 914.92 377.28 913.35 377.33 912.04 376.1 911.99 374.53 911.94 372.96 913.17 371.65 914.74 371.6 916.31 371.55 917.62 372.78 917.67 374.35Z"/></g><g id="change1_40"><path d="M792.91 401.69C792.96 403.26 791.73 404.57 790.16 404.62 788.59 404.67 787.28 403.44 787.23 401.87 787.18 400.3 788.41 398.99 789.98 398.94 791.55 398.89 792.86 400.12 792.91 401.69Z"/></g><g id="change1_41"><path d="M725.35 481.23C725.4 482.8 724.17 484.11 722.6 484.16 721.03 484.21 719.72 482.98 719.67 481.41 719.62 479.84 720.85 478.53 722.42 478.48 723.99 478.43 725.3 479.67 725.35 481.23Z"/></g><g id="change1_42"><path d="M594.53 350.35C594.58 351.92 593.35 353.23 591.78 353.28 590.21 353.33 588.9 352.1 588.85 350.53 588.8 348.96 590.03 347.65 591.6 347.6 593.17 347.55 594.48 348.78 594.53 350.35Z"/></g><g id="change1_43"><path d="M546.23 405.85C546.28 407.42 545.05 408.73 543.48 408.78 541.91 408.83 540.6 407.6 540.55 406.03 540.5 404.46 541.73 403.15 543.3 403.1 544.87 403.05 546.18 404.28 546.23 405.85Z"/></g><g id="change1_44"><path d="M616.35 525.61C616.4 527.18 615.17 528.49 613.6 528.54 612.03 528.59 610.72 527.36 610.67 525.79 610.62 524.22 611.85 522.91 613.42 522.86 614.99 522.81 616.3 524.04 616.35 525.61Z"/></g><g id="change1_45"><path d="M489.19 571.14C489.24 572.71 488.01 574.02 486.44 574.07 484.87 574.12 483.56 572.89 483.51 571.32 483.46 569.75 484.69 568.44 486.26 568.39 487.83 568.34 489.14 569.57 489.19 571.14Z"/></g><g id="change1_46"><path d="M434.32 448.23C434.37 449.8 433.14 451.11 431.57 451.16 430 451.21 428.69 449.98 428.64 448.41 428.59 446.84 429.82 445.53 431.39 445.48 432.96 445.43 434.27 446.66 434.32 448.23Z"/></g><g id="change1_47"><path d="M388.98 361.35C389.03 362.92 387.8 364.23 386.23 364.28 384.66 364.33 383.35 363.1 383.3 361.53 383.25 359.96 384.48 358.65 386.05 358.6 387.62 358.55 388.93 359.78 388.98 361.35Z"/></g><g id="change1_48"><path d="M335.54 450.79C335.59 452.36 334.36 453.67 332.79 453.72 331.22 453.77 329.91 452.54 329.86 450.97 329.81 449.4 331.04 448.09 332.61 448.04 334.18 447.99 335.49 449.22 335.54 450.79Z"/></g><g id="change1_49"><path d="M190.14 389.98C190.19 391.55 188.96 392.86 187.39 392.91 185.82 392.96 184.51 391.73 184.46 390.16 184.41 388.59 185.64 387.28 187.21 387.23 188.78 387.18 190.09 388.41 190.14 389.98Z"/></g><g id="change1_50"><path d="M196.89 387.7C196.94 389.27 195.71 390.58 194.14 390.63 192.57 390.68 191.26 389.45 191.21 387.88 191.16 386.31 192.39 385 193.96 384.95 195.53 384.9 196.84 386.13 196.89 387.7Z"/></g><g id="change1_51"><path d="M162 261.57C162.05 263.14 160.82 264.45 159.25 264.5 157.68 264.55 156.37 263.32 156.32 261.75 156.27 260.18 157.5 258.87 159.07 258.82 160.64 258.77 161.95 260 162 261.57Z"/></g><g id="change1_52"><path d="M63.3 309.41C63.35 310.98 62.12 312.29 60.55 312.34 58.98 312.39 57.67 311.16 57.62 309.59 57.57 308.02 58.8 306.71 60.37 306.66 61.95 306.61 63.26 307.84 63.3 309.41Z"/></g><g id="change1_53"><path d="M8.15 476.65C8.2 478.22 6.97 479.53 5.4 479.58 3.83 479.63 2.52 478.4 2.47 476.83 2.42 475.26 3.65 473.95 5.22 473.9 6.79 473.85 8.1 475.08 8.15 476.65Z"/></g><g id="change1_54"><path d="M282.04 557.6C282.09 559.17 280.86 560.48 279.29 560.53 277.72 560.58 276.41 559.35 276.36 557.78 276.31 556.21 277.54 554.9 279.11 554.85 280.68 554.8 282 556.03 282.04 557.6Z"/></g><g id="change1_55"><path d="M1198 508.62C1198.05 510.19 1196.82 511.5 1195.25 511.55 1193.68 511.6 1192.37 510.37 1192.32 508.8 1192.27 507.23 1193.5 505.92 1195.07 505.87 1196.64 505.82 1197.95 507.05 1198 508.62Z"/></g></g><g id="change1_1"><path d="M1577.18 447.51 1719.77 531.85 1659.16 479.42Z" opacity="0.2"/></g><g id="change1_2"><path d="M722.51 481.32 790.07 401.78 864.74 381.69Z" opacity="0.2"/></g><g id="change1_3"><path d="M792.91 401.69 983.72 438.18 912 374.53Z" opacity="0.2"/></g><g id="change1_4"><path d="M1577.27 450.35 1581.93 326.6 1464.88 490.8Z" opacity="0.2"/></g><g id="change1_5"><path d="M1775.34 446.29 1813.33 320.79 1996.08 440.1Z" opacity="0.2"/></g><g id="change1_6"><path d="M434.32 448.23 588.85 350.53 543.39 405.94Z" opacity="0.2"/></g><g id="change1_7"><path d="M191.21 387.87 386.14 361.44 63.3 309.41Z" opacity="0.2"/></g><g id="change1_8"><path d="M159.25 264.5 386.14 361.44 332.79 453.72Z" opacity="0.2"/></g><g id="change1_9"><path d="M486.35 571.23 335.54 450.79 276.37 557.78Z" opacity="0.2"/></g><g id="change1_10"><path d="M279.12 554.85 613.51 525.69 486.44 574.07Z" opacity="0.2"/></g><g id="change1_11"><path d="M1212.91 539.88 1045.09 515.29 912 374.53Z" opacity="0.2"/></g><g id="change1_12"><path d="M1775.43 449.13 1914.66 226.69 1813.33 320.79Z" opacity="0.2"/></g><g id="change1_13"><path d="M1581.84 323.76 1979.47-0.53 1809.39 149Z" opacity="0.2"/></g><g id="change1_14"><path d="M1657.78 162.26 1981.17 190.51 1914.66 226.69Z" opacity="0.2"/></g><g id="change1_15"><path d="M1581.93 326.6 1657.78 162.26 1812.22 148.91Z" opacity="0.2"/></g><g id="change1_16"><path d="M1218.59 539.7 1195.08 505.87 1279.83 360.9Z" opacity="0.2"/></g><g id="change1_17"><path d="M1212.91 539.88 1454.54 614.68 1409.56 630.34Z" opacity="0.2"/></g><g id="change1_18"><path d="M1409.65 633.18 1574.43 450.44 1579 323.85Z" opacity="0.2"/></g></g></svg>