<?xml version="1.0" encoding="UTF-8" standalone="no"?><!-- Generator: Adobe Illustrator 21.0.0, SVG Export Plug-In . SVG Version: 6.00 Build 0)  --><svg xmlns="http://www.w3.org/2000/svg" xmlns:xlink="http://www.w3.org/1999/xlink" contentScriptType="text/ecmascript" zoomAndPan="magnify" contentStyleType="text/css" id="图层_1" enable-background="new 0 0 44 36" version="1.1" xml:space="preserve" fill="#000000" preserveAspectRatio="xMidYMid meet" viewBox="0 0 44 36" x="0px" y="0px">
<g fill="#00ffff" id="change1_1">
	<rect x="43.4" fill="inherit" width="0.6" y="0" height="5.4"/>
	<rect x="40.9" fill="inherit" width="1.3" y="2.4" height="3"/>
	<rect x="38.5" fill="inherit" width="1.2" y="2.4" height="3"/>
	<rect x="36.1" fill="inherit" width="1.2" y="2.4" height="3"/>
	<rect x="33.6" fill="inherit" width="1.2" y="2.4" height="3"/>
	<rect x="31.2" fill="inherit" width="1.2" y="2.4" height="3"/>
	<rect x="28.7" fill="inherit" width="1.3" y="2.4" height="3"/>
	<rect x="26.3" fill="inherit" width="1.2" y="2.4" height="3"/>
	<rect x="23.9" fill="inherit" width="1.2" y="2.4" height="3"/>
	<polygon fill="inherit" points="22.6 0 22.6 5.4 22 5.4 21.4 5.4 21.4 0 22 0"/>
	<rect x="0" fill="inherit" width="0.7" y="0" height="5.4"/>
	<rect x="19" fill="inherit" width="1.2" y="2.4" height="3"/>
	<rect x="16.5" fill="inherit" width="1.2" y="2.4" height="3"/>
	<rect x="14.1" fill="inherit" width="1.2" y="2.4" height="3"/>
	<rect x="11.6" fill="inherit" width="1.3" y="2.4" height="3"/>
	<rect x="9.2" fill="inherit" width="1.2" y="2.4" height="3"/>
	<rect x="6.8" fill="inherit" width="1.2" y="2.4" height="3"/>
	<rect x="4.3" fill="inherit" width="1.2" y="2.4" height="3"/>
	<rect x="1.9" fill="inherit" width="1.2" y="2.4" height="3"/>
	<rect x="0" fill="inherit" width="0.7" y="30.6" height="5.4"/>
	<rect x="1.9" fill="inherit" width="1.2" y="30.6" height="3"/>
	<rect x="4.3" fill="inherit" width="1.2" y="30.6" height="3"/>
	<rect x="6.8" fill="inherit" width="1.2" y="30.6" height="3"/>
	<rect x="9.2" fill="inherit" width="1.2" y="30.6" height="3"/>
	<rect x="11.6" fill="inherit" width="1.3" y="30.6" height="3"/>
	<rect x="14.1" fill="inherit" width="1.2" y="30.6" height="3"/>
	<rect x="16.5" fill="inherit" width="1.2" y="30.6" height="3"/>
	<rect x="19" fill="inherit" width="1.2" y="30.6" height="3"/>
	<polygon fill="inherit" points="22.6 30.6 22.6 36 22 36 21.4 36 21.4 30.6 22 30.6"/>
	<rect x="43.4" fill="inherit" width="0.6" y="30.6" height="5.4"/>
	<rect x="23.9" fill="inherit" width="1.2" y="30.6" height="3"/>
	<rect x="26.3" fill="inherit" width="1.2" y="30.6" height="3"/>
	<rect x="28.7" fill="inherit" width="1.3" y="30.6" height="3"/>
	<rect x="31.2" fill="inherit" width="1.2" y="30.6" height="3"/>
	<rect x="33.6" fill="inherit" width="1.2" y="30.6" height="3"/>
	<rect x="36.1" fill="inherit" width="1.2" y="30.6" height="3"/>
	<rect x="38.5" fill="inherit" width="1.2" y="30.6" height="3"/>
	<rect x="40.9" fill="inherit" width="1.3" y="30.6" height="3"/>
</g>
</svg>