<?xml version="1.0" encoding="UTF-8" standalone="no"?><!-- Generator: Adobe Illustrator 21.0.0, SVG Export Plug-In . SVG Version: 6.00 Build 0)  --><svg xmlns="http://www.w3.org/2000/svg" xmlns:xlink="http://www.w3.org/1999/xlink" contentScriptType="text/ecmascript" zoomAndPan="magnify" contentStyleType="text/css" id="图层_1" enable-background="new 0 0 71.5 83.9" version="1.1" xml:space="preserve" fill="#000000" preserveAspectRatio="xMidYMid meet" viewBox="0 0 71.5 83.9" x="0px" y="0px">
<g>
	<g id="change1_1"><polygon fill="#00ffff" points="60.1 70.5 60 70.5 53.1 81.6 17.9 81.6 11.7 71.6 19 81 51.9 81 60.1 70.6 60.1 70.5 60 70.5 60.1 70.5 60 70.4 51.8 80.8 19.1 80.8 11 70.4 10.9 70.6 17.9 81.8 53.1 81.8 60.1 70.6 60 70.4" id="XMLID_9260_"/></g>
	<g id="change1_2"><path fill="#00ffff" id="XMLID_9259_" d="m49.4 79.6h-27.8c-0.4 0-0.8 0.1-1.1 0.3l-2.6 1.8h35.2l-2.6-1.7c-0.3-0.3-0.7-0.4-1.1-0.4z"/></g>
	<g id="change1_3"><polygon fill="#00ffff" points="11 11.3 11 11.4 17.9 0.2 53.1 0.2 59.3 10.2 52 0.8 19.1 0.8 10.9 11.2 11 11.3 11 11.4 11 11.3 11 11.4 19.2 1 52 1 60 11.4 60.1 11.3 53.1 0 17.9 0 10.9 11.3 11 11.4" id="XMLID_9258_"/></g>
	<g id="change1_4"><path fill="#00ffff" id="XMLID_9257_" d="m21.6 2.2h27.8c0.4 0 0.8-0.1 1.1-0.3l2.6-1.7h-35.2l2.6 1.7c0.3 0.2 0.7 0.3 1.1 0.3z"/></g>
	<g id="change1_5"><polygon fill="#00ffff" points="1.2 15.8 0 14 0 8.5 3.7 3.6 12.5 3.6 11.5 5.2 4.2 5.2 1.2 9.1" id="XMLID_9256_"/></g>
	<g id="change1_6"><polygon fill="#00ffff" points="69.8 15.8 71.1 14 71.1 8.5 67.4 3.6 58.5 3.6 59.5 5.2 66.9 5.2 69.8 9.1" id="XMLID_9255_"/></g>
	<g id="change1_7"><polygon fill="#00ffff" points="1.2 71.7 0 73.5 0 79.1 3.7 83.9 12.5 83.9 11.5 82.3 4.2 82.3 1.2 78.4" id="XMLID_9254_"/></g>
	<g id="change1_8"><polygon fill="#00ffff" points="69.8 71.7 71.1 73.5 71.1 79.1 67.4 83.9 58.5 83.9 59.5 82.3 66.9 82.3 69.8 78.4" id="XMLID_9253_"/></g>
	<g id="change1_9"><path fill="#00ffff" id="XMLID_9795_" d="m10.7 25.8c-0.2 0.1-0.3 0.3-0.4 0.5s-0.3 0.4-0.4 0.5c-0.1 0.2-0.2 0.4-0.4 0.5-0.1 0.2-0.2 0.4-0.3 0.5-0.1 0.2-0.2 0.4-0.3 0.5-0.1 0.2-0.2 0.4-0.3 0.5-0.1 0.2-0.2 0.4-0.3 0.5-0.1 0.2-0.2 0.4-0.3 0.5-0.1 0.2-0.2 0.4-0.2 0.5-0.1 0.2-0.2 0.4-0.2 0.5-0.1 0.2-0.1 0.4-0.2 0.5-0.1 0.2-0.1 0.4-0.2 0.5-0.1 0.2-0.1 0.4-0.2 0.5-0.1 0.2-0.1 0.4-0.2 0.5-0.1 0.2-0.1 0.4-0.2 0.5-0.1 0.2-0.1 0.4-0.1 0.5 0 0.2-0.1 0.4-0.1 0.5 0 0.2-0.1 0.4-0.1 0.5 0 0.2-0.1 0.4-0.1 0.5 0 0.2-0.1 0.4-0.1 0.5 0 0.2-0.1 0.4-0.1 0.5 0 0.2-0.1 0.4-0.1 0.5 0 0.2-0.1 0.4-0.1 0.5 0 0.2 0 0.4-0.1 0.5 0 0.2 0 0.3-0.1 0.5v0.5s0 0.3 0 0.5 0 0.3 0 0.5 0 0.3 0 0.5 0 0.3 0 0.5v0.3s0 0.2 0 0.3v0.5s0 0.3 0 0.5 0 0.3 0 0.5 0 0.3 0 0.5 0 0.3 0 0.5 0 0.3 0.1 0.5c0 0.2 0 0.4 0.1 0.5 0 0.2 0 0.4 0.1 0.5 0 0.2 0.1 0.4 0.1 0.5 0 0.2 0.1 0.4 0.1 0.5 0 0.2 0.1 0.4 0.1 0.5 0 0.2 0.1 0.4 0.1 0.5 0 0.2 0.1 0.4 0.1 0.5 0 0.2 0.1 0.4 0.1 0.5 0 0.2 0.1 0.4 0.1 0.5 0.1 0.2 0.1 0.4 0.2 0.5 0.1 0.2 0.1 0.4 0.2 0.5 0.1 0.2 0.1 0.4 0.2 0.5 0.1 0.2 0.1 0.4 0.2 0.5 0.1 0.2 0.1 0.4 0.2 0.5 0.1 0.2 0.2 0.4 0.2 0.5 0.1 0.2 0.2 0.4 0.2 0.5 0.1 0.2 0.2 0.4 0.3 0.5 0.1 0.2 0.2 0.4 0.3 0.5 0.1 0.2 0.2 0.4 0.3 0.5 0.1 0.2 0.2 0.4 0.3 0.5 0.1 0.2 0.2 0.4 0.3 0.5 0.1 0.2 0.2 0.4 0.4 0.5 0.1 0.2 0.2 0.4 0.4 0.5 0.1 0.2 0.3 0.4 0.4 0.5-0.1 0.2-0.2 0.3-0.4 0.5-0.1 0.2-0.2 0.3-0.3 0.4s-0.2 0.3-0.3 0.4-0.2 0.3-0.3 0.4-0.2 0.2-0.3 0.4c-0.1 0.1-0.2 0.2-0.3 0.4-0.1 0.1-0.2 0.2-0.3 0.4-0.1 0.1-0.2 0.3-0.3 0.4s-0.2 0.3-0.3 0.4-0.2 0.3-0.3 0.4c-0.1 0.2-0.2 0.3-0.4 0.5-0.1-0.2-0.3-0.4-0.4-0.5-0.1-0.2-0.3-0.4-0.4-0.5-0.1-0.2-0.2-0.4-0.4-0.5-0.1-0.2-0.2-0.4-0.3-0.5-0.1-0.2-0.2-0.4-0.3-0.5-0.1-0.2-0.2-0.4-0.3-0.5-0.1-0.2-0.2-0.4-0.3-0.5-0.1-0.2-0.2-0.4-0.3-0.5-0.1-0.2-0.2-0.4-0.3-0.5-0.1-0.2-0.2-0.4-0.3-0.5-0.1-0.2-0.2-0.4-0.2-0.5-0.1-0.2-0.2-0.4-0.2-0.5-0.1-0.2-0.2-0.4-0.2-0.5-0.1-0.2-0.1-0.4-0.2-0.5-0.1 1-0.1 0.8-0.2 0.7-0.1-0.2-0.1-0.4-0.2-0.5-0.1-0.2-0.1-0.4-0.2-0.5-0.1-0.2-0.1-0.4-0.2-0.5-0.1-0.2-0.1-0.4-0.2-0.5-0.1-0.2-0.1-0.4-0.2-0.5 0-0.2-0.1-0.4-0.1-0.5 0-0.2-0.1-0.4-0.1-0.5 0-0.2-0.1-0.4-0.1-0.5 0-0.2-0.1-0.4-0.1-0.5 0-0.2-0.1-0.4-0.1-0.5 0-0.2-0.1-0.4-0.1-0.5 0-0.2-0.1-0.4-0.1-0.5 0-0.2-0.1-0.3-0.1-0.5s-0.1-0.3-0.1-0.5 0-0.3-0.1-0.5c0-0.2 0-0.3-0.1-0.5 0-0.2 0-0.3-0.1-0.5v-0.5s0-0.3 0-0.5 0-0.3 0-0.5 0-0.3 0-0.5 0-0.3 0-0.5 0-0.3 0-0.5 0-0.3 0-0.5 0-0.3 0-0.5 0-0.3 0-0.5 0-0.3 0-0.5 0-0.3 0-0.5 0-0.3 0-0.5 0-0.3 0-0.5 0-0.3 0-0.5 0-0.3 0.1-0.5c0.2-1 0.2-1.2 0.2-1.3 0-0.2 0-0.3 0.1-0.5 0-0.2 0-0.3 0.1-0.5 0-0.2 0.1-0.3 0.1-0.5s0.1-0.4 0.1-0.5c0-0.2 0.1-0.4 0.1-0.5 0-0.2 0.1-0.4 0.1-0.5 0-0.2 0.1-0.4 0.1-0.5 0-0.2 0.1-0.4 0.1-0.5 0-0.2 0.1-0.4 0.1-0.5 0-0.2 0.1-0.4 0.1-0.5 0-0.2 0.1-0.4 0.2-0.5 0.1-0.2 0.1-0.4 0.2-0.5 0.1-0.2 0.1-0.4 0.2-0.5 0.1-0.2 0.1-0.4 0.2-0.5 0.1-0.2 0.1-0.4 0.2-0.5 0.1-0.2 0.1-0.4 0.2-0.5 0.1-0.2 0.1-0.4 0.2-0.5 0.1-0.2 0.1-0.4 0.2-0.5 0.1-0.2 0.2-0.4 0.2-0.5 0.1-0.2 0.2-0.4 0.2-0.5 0.1-0.2 0.2-0.4 0.3-0.5 0.1-0.2 0.2-0.4 0.3-0.5 0.1-0.2 0.2-0.4 0.3-0.5 0.1-0.2 0.2-0.4 0.3-0.5 0.1-0.2 0.2-0.4 0.3-0.5 0.1-0.2 0.2-0.4 0.3-0.5 0.1-0.2 0.2-0.4 0.3-0.5 0.1-0.2 0.2-0.4 0.4-0.5 0.1-0.2 0.2-0.4 0.4-0.5 0.1-0.2 0.3-0.4 0.4-0.5 0.1 0.2 0.2 0.3 0.4 0.5 0.1 0.2 0.2 0.3 0.3 0.4s0.2 0.3 0.3 0.4 0.2 0.3 0.3 0.4 0.2 0.2 0.3 0.4c0.1 0.1 0.2 0.2 0.3 0.4 0.1 0.1 0.2 0.2 0.3 0.4 0.1 0.1 0.2 0.3 0.3 0.4s0.2 0.3 0.3 0.4 0.2 0.3 0.3 0.4c0-1 0.1-0.8 0.3-0.7-0.1-0.2-0.2-0.4-0.3-0.5-0.1-0.2-0.2-0.3-0.3-0.4s-0.2-0.3-0.3-0.4-0.2-0.3-0.3-0.4-0.2-0.2-0.3-0.4c-0.1-0.1-0.2-0.2-0.3-0.4-0.1-0.1-0.2-0.2-0.3-0.4-0.1-0.1-0.2-0.3-0.3-0.4s-0.2-0.3-0.3-0.4-0.2-0.3-0.3-0.4c-0.1-0.2-0.2-0.3-0.4-0.5-0.1 0.2-0.3 0.4-0.4 0.5-0.1 0.2-0.3 0.4-0.4 0.5-0.1 0.2-0.2 0.4-0.4 0.5-0.1 0.2-0.2 0.4-0.3 0.5-0.1 0.2-0.2 0.4-0.3 0.5-0.1 0.2-0.2 0.4-0.3 0.5-0.1 0.2-0.2 0.4-0.3 0.5-0.1 0.2-0.2 0.4-0.3 0.5-0.1 0.2-0.2 0.4-0.3 0.5-0.1 0.2-0.2 0.4-0.3 0.5-0.1 0.2-0.2 0.4-0.2 0.5-0.1 0.2-0.2 0.4-0.2 0.5-0.1 0.2-0.2 0.4-0.2 0.5-0.1 0.2-0.1 0.4-0.2 0.5-0.1 0.2-0.1 0.4-0.2 0.5-0.1 0.2-0.1 0.4-0.2 0.5-0.1 0.2-0.1 0.4-0.2 0.5-0.1 0.2-0.1 0.4-0.2 0.5-0.1 0.2-0.1 0.4-0.2 0.5-0.1 1-0.2 1.2-0.2 1.3 0 0.2-0.1 0.4-0.1 0.5 0 0.2-0.1 0.4-0.1 0.5 0 0.2-0.1 0.4-0.1 0.5 0 0.2-0.1 0.4-0.1 0.5 0 0.2-0.1 0.4-0.1 0.5 0 0.2-0.1 0.4-0.1 0.5 0 0.2-0.1 0.4-0.1 0.5 0 0.2-0.1 0.4-0.1 0.5-0.2 0.5-0.2 0.6-0.2 0.8s0 0.4-0.1 0.5c0 0.2 0 0.3-0.1 0.5 0 0.2 0 0.3-0.1 0.5v0.5s0 0.3 0 0.5 0 0.3 0 0.5 0 0.3 0 0.5 0 0.3 0 0.5 0 0.3 0 0.5 0 0.3 0 0.5 0 0.3 0 0.5 0 0.3 0 0.5 0 0.3 0 0.5 0 0.3 0 0.5 0 0.3 0 0.5 0 0.3 0 0.5 0 0.3 0 0.5 0 0.3 0.1 0.5c0 0.2 0 0.3 0.1 0.5 0 0.2 0 0.3 0.1 0.5 0 0.2 0 0.4 0.1 0.5 0 0.2 0.1 0.4 0.1 0.5 0 0.2 0.1 0.4 0.1 0.5 0 0.2 0.1 0.4 0.1 0.5 0 0.2 0.1 0.4 0.1 0.5 0 0.2 0.1 0.4 0.1 0.5 0 0.2 0.1 0.4 0.1 0.5 0 0.2 0.1 0.4 0.1 0.5 0 0.2 0.1 0.4 0.1 0.5 0 0.2 0.1 0.4 0.2 0.5 0.1 0.2 0.1 0.4 0.2 0.5 0.1 0.2 0.1 0.4 0.2 0.5 0.1 0.2 0.1 0.4 0.2 0.5 0.1 0.2 0.1 0.4 0.2 0.5 0.1 0.2 0.1 0.4 0.2 0.5 0.1 0.2 0.1 0.4 0.2 0.5 0.1 0.2 0.1 0.4 0.2 0.5 0.1 0.2 0.2 0.4 0.2 0.5 0.1 0.2 0.2 0.4 0.2 0.5 0.1 0.2 0.2 0.4 0.3 0.5 0.1 0.2 0.2 0.4 0.3 0.5 0.1 0.2 0.2 0.4 0.3 0.5 0.1 0.2 0.2 0.4 0.3 0.5 0.1 0.2 0.2 0.4 0.3 0.5 0.1 0.2 0.2 0.4 0.3 0.5 0.1 0.2 0.2 0.4 0.3 0.5 0.1 0.2 0.2 0.4 0.4 0.5 0.1 0.2 0.2 0.4 0.4 0.5 0.1 0.2 0.3 0.4 0.4 0.5 0.1-0.2 0.2-0.3 0.4-0.5 0.1-0.2 0.2-0.3 0.3-0.4s0.2-0.3 0.3-0.4 0.2-0.3 0.3-0.4 0.2-0.2 0.3-0.4c0.1-0.1 0.2-0.2 0.3-0.4 0.1-0.1 0.2-0.2 0.3-0.4 0.1-0.1 0.2-0.3 0.3-0.4s0.2-0.3 0.3-0.4 0.2-0.3 0.3-0.4c0.1-0.2 0.2-0.3 0.4-0.5-0.1-0.2-0.3-0.4-0.4-0.5-0.1-0.2-0.2-0.4-0.4-0.5-0.1-0.2-0.2-0.4-0.3-0.5-0.1-0.2-0.2-0.4-0.3-0.5-0.1-0.2-0.2-0.4-0.3-0.5-0.1-0.2-0.2-0.4-0.3-0.5-0.1-0.2-0.2-0.4-0.3-0.5-0.1-0.2-0.2-0.4-0.3-0.5-0.1-0.2-0.2-0.4-0.2-0.5s-0.2-0.4-0.2-0.5c-0.1-0.2-0.1-0.4-0.2-0.5-0.1-0.2-0.1-0.4-0.2-0.5-0.1-0.2-0.1-0.4-0.2-0.5-0.1 0.9-0.1 0.7-0.2 0.5s-0.1-0.4-0.2-0.5c-0.1-0.2-0.1-0.4-0.1-0.5 0-0.2-0.1-0.4-0.1-0.5 0-0.2-0.1-0.4-0.1-0.5 0-0.2-0.1-0.4-0.1-0.5 0-0.2-0.1-0.4-0.1-0.5 0-0.2-0.1-0.4-0.1-0.5 0-0.2-0.1-0.4-0.1-0.5 0-0.2-0.1-0.3-0.1-0.5s0-0.3-0.1-0.5c0-0.2 0-0.3-0.1-0.5v-0.5s0-0.3 0-0.5 0-0.3 0-0.5 0-0.3 0-0.5 0-0.3 0-0.5v-0.3s0-0.2 0-0.3v-0.5s0-0.3 0-0.5 0-0.3 0-0.5 0-0.3 0-0.5 0-0.3 0-0.5 0-0.3 0.1-0.5c0-0.2 0-0.3 0.1-0.5 0-0.2 0-0.3 0.1-0.5 0-0.2 0.1-0.3 0.1-0.5s0.1-0.4 0.1-0.5c0-0.2 0.1-0.4 0.1-0.5 0-0.2 0.1-0.4 0.1-0.5 0-0.2 0.1-0.4 0.1-0.5 0-0.2 0.1-0.4 0.1-0.5 0-0.2 0.1-0.4 0.1-0.5 0.1-0.2 0.1-0.4 0.2-0.5 0.1-0.2 0.1-0.4 0.2-0.5 0.1-0.2 0.1-0.4 0.2-0.5 0.1-0.2 0.1-0.4 0.2-0.5 0.1-0.2 0.1-0.4 0.2-0.5 0.1-0.2 0.1-0.4 0.2-0.5 0.1-0.2 0.2-0.4 0.2-0.5 0.1-0.2 0.2-0.4 0.3-0.5 0.1-0.2 0.2-0.4 0.3-0.5 0.1-0.2 0.2-0.4 0.3-0.5 0.1-0.2 0.2-0.4 0.3-0.5 0.1-0.2 0.2-0.4 0.3-0.5 0.1-0.2 0.2-0.4 0.3-0.5 0.1-0.2 0.2-0.4 0.4-0.5 0.2-1.4 0.3-1.6 0.4-1.8"/></g>
	<g id="change1_10"><path fill="#00ffff" id="XMLID_9794_" d="m9.5 57.6c-0.1 0.2-0.1 0.3-0.3 0.4v-0.1l0.3-0.3z"/></g>
	<g id="change1_11"><path fill="#00ffff" id="XMLID_9793_" d="m8.3 55.5v0c-0.1 0.2-0.2 0.2-0.3 0.4v-0.1l0.3-0.3z"/></g>
	<g id="change1_12"><path fill="#00ffff" id="XMLID_9792_" d="m9.4 57.3s0 0.1 0.1 0.1l-0.2 0.2s0-0.1-0.1-0.1c0.1 0 0.1-0.1 0.2-0.2z"/></g>
	<g id="change1_13"><path fill="#00ffff" id="XMLID_9791_" d="m9.2 57.1s0 0.1 0.1 0.1l-0.2 0.2s0-0.1-0.1-0.1c0.1-0.1 0.2-0.1 0.2-0.2z"/></g>
	<g id="change1_14"><path fill="#00ffff" id="XMLID_9790_" d="m9.1 56.9s0 0.1 0.1 0.1l-0.2 0.2s0-0.1-0.1-0.1l0.2-0.2z"/></g>
	<g id="change1_15"><path fill="#00ffff" id="XMLID_9789_" d="m8.9 56.7s0 0.1 0.1 0.1l-0.2 0.2s0-0.1-0.1-0.1l0.2-0.2z"/></g>
	<g id="change1_16"><path fill="#00ffff" id="XMLID_9788_" d="m8.8 56.4s0 0.1 0.1 0.1l-0.2 0.2s0-0.1-0.1-0.1l0.2-0.2z"/></g>
	<g id="change1_17"><path fill="#00ffff" id="XMLID_9787_" d="m8.7 56.2s0 0.1 0.1 0.1l-0.2 0.2s0-0.1-0.1-0.1l0.2-0.2z"/></g>
	<g id="change1_18"><path fill="#00ffff" id="XMLID_9786_" d="m8.5 55.9s0 0.1 0.1 0.1l-0.2 0.2s0-0.1-0.1-0.1c0.1-0.1 0.2-0.1 0.2-0.2z"/></g>
	<g id="change1_19"><path fill="#00ffff" id="XMLID_9785_" d="m8.4 55.7s0 0.1 0.1 0.1l-0.2 0.2s0-0.1-0.1-0.1l0.2-0.2z"/></g>
	<g id="change1_20"><path fill="#00ffff" id="XMLID_9784_" d="m8.3 55.5c-0.1 0.2-0.2 0.2-0.3 0.4v-0.1c0.1-0.2 0.1-0.2 0.3-0.3z"/></g>
	<g id="change1_21"><path fill="#00ffff" id="XMLID_9783_" d="m7.3 53.3c-0.1 0.2-0.2 0.2-0.3 0.3v-0.1s0.1-0.1 0.3-0.2z"/></g>
	<g id="change1_22"><path fill="#00ffff" id="XMLID_9782_" d="m8.1 55.2s0 0.1 0.1 0.1l-0.2 0.2s0-0.1-0.1-0.1c0.1-0.1 0.2-0.1 0.2-0.2z"/></g>
	<g id="change1_23"><path fill="#00ffff" id="XMLID_9781_" d="m8 55s0 0.1 0.1 0.1l-0.2 0.2s0-0.1-0.1-0.1c0.1-0.1 0.1-0.2 0.2-0.2z"/></g>
	<g id="change1_24"><path fill="#00ffff" id="XMLID_9780_" d="m7.9 54.7v0c0 0.2 0 0.2-0.1 0.3 0 0 0-0.1-0.1-0.1l0.2-0.2z"/></g>
	<g id="change1_25"><path fill="#00ffff" id="XMLID_9779_" d="m7.8 54.5v0c0 0.2 0 0.2-0.1 0.3 0-0.1 0-0.1-0.1-0.1 0.1-0.1 0.1-0.2 0.2-0.2z"/></g>
	<g id="change1_26"><path fill="#00ffff" id="XMLID_9778_" d="m7.7 54.2v0c0 0.2 0 0.2-0.1 0.3 0-0.1 0-0.1-0.1-0.1 0-0.1 0.1-0.1 0.2-0.2z"/></g>
	<g id="change1_27"><path fill="#00ffff" id="XMLID_9777_" d="m7.6 54v0c0 0.2 0 0.2-0.1 0.3 0-0.1 0-0.1-0.1-0.1 0-0.1 0.1-0.2 0.2-0.2z"/></g>
	<g id="change1_28"><path fill="#00ffff" id="XMLID_9776_" d="m7.4 53.7v0c0 0.2 0 0.2-0.1 0.2 0-0.1 0-0.1-0.1-0.1 0.1 0 0.2 0 0.2-0.1z"/></g>
	<g id="change1_29"><path fill="#00ffff" id="XMLID_9775_" d="m7.3 53.5v0c0 0.2 0 0.2-0.1 0.2 0-0.1 0-0.1-0.1-0.1 0.1 0 0.2-0.1 0.2-0.1z"/></g>
	<g id="change1_30"><path fill="#00ffff" id="XMLID_9774_" d="m7.2 53.2v0c-0.1 0.2-0.2 0.2-0.3 0.3v-0.1c0.1 0 0.2-0.1 0.3-0.2z"/></g>
	<g id="change1_31"><path fill="#00ffff" id="XMLID_9773_" d="m6.4 50.9v0c-0.1 0.1-0.2 0.2-0.4 0.3v-0.1c0.2 0 0.3-0.1 0.4-0.2z"/></g>
	<g id="change1_32"><path fill="#00ffff" id="XMLID_9772_" d="m7.1 53v0c0 0.2 0 0.2-0.1 0.2 0-0.1 0-0.1-0.1-0.1 0.1-0.1 0.1-0.1 0.2-0.1z"/></g>
	<g id="change1_33"><path fill="#00ffff" id="XMLID_9771_" d="m7 52.7v0c-0.1 0.2-0.1 0.2-0.2 0.2 0-0.1 0-0.1-0.1-0.1 0.2 0 0.2 0 0.3-0.1z"/></g>
	<g id="change1_34"><path fill="#00ffff" id="XMLID_9770_" d="m6.9 52.4v0c-0.1 0.2-0.1 0.2-0.2 0.2v-0.1c0.1 0 0.1 0 0.2-0.1z"/></g>
	<g id="change1_35"><path fill="#00ffff" id="XMLID_9769_" d="m6.8 52.2v0c-0.1 0.2-0.1 0.2-0.2 0.2v-0.1c0.1 0 0.1-0.1 0.2-0.1z"/></g>
	<g id="change1_36"><path fill="#00ffff" id="XMLID_9768_" d="m6.7 51.9v0c-0.1 0.2-0.1 0.2-0.2 0.2v-0.1c0.1 0 0.2 0 0.2-0.1z"/></g>
	<g id="change1_37"><path fill="#00ffff" id="XMLID_9767_" d="m6.6 51.7v0c-0.1 0.1-0.1 0.2-0.2 0.2v-0.1c0.1-0.1 0.2-0.1 0.2-0.1z"/></g>
	<g id="change1_38"><path fill="#00ffff" id="XMLID_9766_" d="m6.6 51.4v0c-0.1 0.1-0.1 0.2-0.2 0.2v-0.1s0.1-0.1 0.2-0.1z"/></g>
	<g id="change1_39"><path fill="#00ffff" id="XMLID_9765_" d="m6.5 51.1v0c-0.1 0.1-0.1 0.2-0.2 0.2v-0.1s0.1 0 0.2-0.1z"/></g>
	<g id="change1_40"><path fill="#00ffff" id="XMLID_9764_" d="m6.4 50.9c-0.1 0.1-0.2 0.2-0.4 0.3v-0.1l0.4-0.2z"/></g>
	<g id="change1_41"><path fill="#00ffff" id="XMLID_9763_" d="m5.8 48.5c-0.1 0.1-0.2 0.2-0.4 0.2v-0.1c0.1 0 0.2 0 0.4-0.1z"/></g>
	<g id="change1_42"><path fill="#00ffff" id="XMLID_9762_" d="m6.3 50.6v0c-0.1 0.1-0.1 0.2-0.2 0.2v-0.1c0.1 0 0.1-0.1 0.2-0.1z"/></g>
	<g id="change1_43"><path fill="#00ffff" id="XMLID_9761_" d="m6.2 50.3v0c-0.1 0.1-0.1 0.2-0.2 0.2v-0.1c0.1 0 0.1 0 0.2-0.1z"/></g>
	<g id="change1_44"><path fill="#00ffff" id="XMLID_9760_" d="m6.2 50.1v0c-0.1 0.1-0.1 0.2-0.2 0.2v-0.1c0-0.1 0.1-0.1 0.2-0.1z"/></g>
	<g id="change1_45"><path fill="#00ffff" id="XMLID_9759_" d="m6.1 49.8v0c-0.1 0.1-0.1 0.2-0.2 0.2v-0.1c0.1 0 0.1-0.1 0.2-0.1z"/></g>
	<g id="change1_46"><path fill="#00ffff" id="XMLID_9758_" d="m6 49.5v0c-0.1 0.1-0.1 0.2-0.2 0.2v-0.1c0.1 0 0.1 0 0.2-0.1z"/></g>
	<g id="change1_47"><path fill="#00ffff" id="XMLID_9757_" d="m5.9 49.3v0c-0.1 0.1-0.1 0.2-0.2 0.2v-0.1c0.1-0.1 0.2-0.1 0.2-0.1z"/></g>
	<g id="change1_48"><path fill="#00ffff" id="XMLID_9756_" d="m5.9 49v0c-0.1 0.1-0.1 0.2-0.2 0.2v-0.1c0.1-0.1 0.1-0.1 0.2-0.1z"/></g>
	<g id="change1_49"><path fill="#00ffff" id="XMLID_9755_" d="m5.8 48.7v0c-0.1 0.1-0.1 0.2-0.2 0.2v-0.1c0.1 0 0.1-0.1 0.2-0.1z"/></g>
	<g id="change1_50"><path fill="#00ffff" id="XMLID_9754_" d="m5.8 48.4v0c-0.1 0.1-0.2 0.2-0.4 0.2v-0.1c0.1 0 0.2 0 0.4-0.1z"/></g>
	<g id="change1_51"><path fill="#00ffff" id="XMLID_9753_" d="m5.3 46s0.1 0.1 0 0l-0.4 0.2v-0.1c0.2 0 0.3 0 0.4-0.1z"/></g>
	<g id="change1_52"><path fill="#00ffff" id="XMLID_9752_" d="m5.7 48.2v0l-0.2 0.2v-0.1c0.1-0.1 0.1-0.1 0.2-0.1z"/></g>
	<g id="change1_53"><path fill="#00ffff" id="XMLID_9751_" d="m5.6 47.9v0l-0.2 0.2v-0.1c0.1-0.1 0.2-0.1 0.2-0.1z"/></g>
	<g id="change1_54"><path fill="#00ffff" id="XMLID_9750_" d="m5.6 47.6v0l-0.2 0.2v-0.1c0.1 0 0.1-0.1 0.2-0.1z"/></g>
	<g id="change1_55"><path fill="#00ffff" id="XMLID_9749_" d="m5.5 47.3v0l-0.2 0.2v-0.1c0.1 0 0.2 0 0.2-0.1z"/></g>
	<g id="change1_56"><path fill="#00ffff" id="XMLID_9748_" d="m5.5 47.1v0l-0.2 0.2v-0.1c0.1-0.1 0.1-0.1 0.2-0.1z"/></g>
	<g id="change1_57"><path fill="#00ffff" id="XMLID_9747_" d="m5.5 46.8v0l-0.2 0.2v-0.1c0-0.1 0.1-0.1 0.2-0.1z"/></g>
	<g id="change1_58"><path fill="#00ffff" id="XMLID_9746_" d="m5.4 46.5v0l-0.2 0.2v-0.1c0.1-0.1 0.1-0.1 0.2-0.1z"/></g>
	<g id="change1_59"><path fill="#00ffff" id="XMLID_9745_" d="m5.4 46.2v0l-0.2 0.2v-0.1s0.1-0.1 0.2-0.1z"/></g>
	<g id="change1_60"><path fill="#00ffff" id="XMLID_9744_" d="m5.3 45.9v0l-0.4 0.2v-0.1c0.2 0 0.3 0 0.4-0.1z"/></g>
	<g id="change1_61"><path fill="#00ffff" id="XMLID_9743_" d="m5.1 43.5c-0.2 0.1-0.2 0.1-0.4 0.1v-0.1h0.4z"/></g>
	<g id="change1_62"><path fill="#00ffff" id="XMLID_9742_" d="m5.3 45.7v0c-0.1 0.1-0.1 0.1-0.2 0.1v-0.1h0.2z"/></g>
	<g id="change1_63"><path fill="#00ffff" id="XMLID_9741_" d="m5.3 45.4v0c-0.1 0.1-0.1 0.1-0.2 0.1v-0.1s0.1 0 0.2 0z"/></g>
	<g id="change1_64"><path fill="#00ffff" id="XMLID_9740_" d="m5.2 45.1v0c-0.1 0.1-0.1 0.1-0.2 0.1v-0.1h0.2z"/></g>
	<g id="change1_65"><path fill="#00ffff" id="XMLID_9739_" d="m5.2 44.8v0c-0.1 0.1-0.1 0.1-0.2 0.1v-0.1h0.2z"/></g>
	<g id="change1_66"><path fill="#00ffff" id="XMLID_9738_" d="m5.2 44.5v0c-0.1 0.1-0.1 0.1-0.2 0.1v-0.1c0.1 0.1 0.1 0.1 0.2 0z"/></g>
	<g id="change1_67"><path fill="#00ffff" id="XMLID_9737_" d="m5.2 44.3v0c-0.1 0.1-0.1 0.1-0.2 0.1v-0.1s0.1 0 0.2 0z"/></g>
	<g id="change1_68"><path fill="#00ffff" id="XMLID_9736_" d="m5.1 44v0c-0.1 0.1-0.1 0.1-0.2 0.1v-0.1h0.2z"/></g>
	<g id="change1_69"><path fill="#00ffff" id="XMLID_9735_" d="m5.1 43.7v0c-0.1 0.1-0.1 0.1-0.2 0.1v-0.1h0.2z"/></g>
	<g id="change1_70"><path fill="#00ffff" id="XMLID_9734_" d="m5.1 43.4v0c-0.2 0.1-0.2 0.1-0.4 0.1v-0.1h0.4z"/></g>
	<g id="change1_71"><path fill="#00ffff" id="XMLID_9733_" d="m5.1 40.9v0c-0.2 0.1-0.2 0.1-0.4 0v-0.1c0.2 0.1 0.2 0.1 0.4 0.1z"/></g>
	<g id="change1_72"><path fill="#00ffff" id="XMLID_9732_" d="m5.1 43.1v0c-0.1 0.1-0.1 0.1-0.2 0.1v-0.1h0.2z"/></g>
	<g id="change1_73"><path fill="#00ffff" id="XMLID_9731_" d="m5.1 42.9v0c-0.1 0.1-0.1 0.1-0.2 0.1v-0.1h0.2z"/></g>
	<g id="change1_74"><path fill="#00ffff" id="XMLID_9730_" d="m5.1 42.6v0c-0.1 0.1-0.1 0.1-0.2 0.1v-0.1h0.2z"/></g>
	<g id="change1_75"><path fill="#00ffff" id="XMLID_9729_" d="m5.1 42.3v0c-0.1 0.1-0.1 0.1-0.2 0.1v-0.1h0.2z"/></g>
	<g id="change1_76"><path fill="#00ffff" id="XMLID_9728_" d="m5.1 42v0c-0.1 0.1-0.1 0.1-0.2 0.1v-0.1h0.2z"/></g>
	<g id="change1_77"><path fill="#00ffff" id="XMLID_9727_" d="m5.1 41.7v0c-0.1 0.1-0.1 0.1-0.2 0.1v-0.1h0.2z"/></g>
	<g id="change1_78"><path fill="#00ffff" id="XMLID_9726_" d="m5.1 41.4v0c-0.1 0.1-0.1 0.1-0.2 0.1v-0.1h0.2z"/></g>
	<g id="change1_79"><path fill="#00ffff" id="XMLID_9725_" d="m5.1 41.2v0c-0.1 0.1-0.1 0.1-0.2 0.1v-0.1h0.2z"/></g>
	<g id="change1_80"><path fill="#00ffff" id="XMLID_9724_" d="m5.1 40.9c-0.2 0.1-0.2 0.1-0.4 0v-0.1c0.2 0.1 0.2 0.1 0.4 0.1z"/></g>
	<g id="change1_81"><path fill="#00ffff" id="XMLID_9723_" d="m5.3 38.4v0h-0.4v-0.1c0.2 0.1 0.2 0.1 0.4 0.1z"/></g>
	<g id="change1_82"><path fill="#00ffff" id="XMLID_9722_" d="m5.1 40.6v0c-0.1 0.1-0.1 0.1-0.2 0.1v-0.1h0.2z"/></g>
	<g id="change1_83"><path fill="#00ffff" id="XMLID_9721_" d="m5.1 40.3v0c-0.1 0.1-0.1 0.1-0.2 0.1v-0.1h0.2z"/></g>
	<g id="change1_84"><path fill="#00ffff" id="XMLID_9720_" d="m5.2 40v0c-0.1 0.1-0.1 0.1-0.2 0.1v-0.1s0.1 0 0.2 0z"/></g>
	<g id="change1_85"><path fill="#00ffff" id="XMLID_9719_" d="m5.2 39.7v0c-0.1 0.1-0.1 0.1-0.2 0.1v-0.1s0.1 0 0.2 0z"/></g>
	<g id="change1_86"><path fill="#00ffff" id="XMLID_9718_" d="m5.2 39.5v0c-0.1 0.1-0.1 0.1-0.2 0.1v-0.1c0.1-0.1 0.1 0 0.2 0z"/></g>
	<g id="change1_87"><path fill="#00ffff" id="XMLID_9717_" d="m5.2 39.2v0c-0.1 0.1-0.1 0.1-0.2 0.1v-0.1h0.2z"/></g>
	<g id="change1_88"><path fill="#00ffff" id="XMLID_9716_" d="m5.2 38.9v0c-0.1 0.1-0.1 0.1-0.2 0.1v-0.1h0.2z"/></g>
	<g id="change1_89"><path fill="#00ffff" id="XMLID_9715_" d="m5.3 38.6v0c-0.1 0.1-0.1 0.1-0.2 0.1v-0.1s0.1 0 0.2 0z"/></g>
	<g id="change1_90"><path fill="#00ffff" id="XMLID_9714_" d="m5.3 38.3v0h-0.4v-0.1c0.2 0.1 0.2 0.1 0.4 0.1z"/></g>
	<g id="change1_91"><path fill="#00ffff" id="XMLID_9713_" d="m5.7 35.9v0c-0.2 0-0.3 0-0.4-0.1v-0.1c0.2 0.1 0.2 0.2 0.4 0.2z"/></g>
	<g id="change1_92"><path fill="#00ffff" id="XMLID_9712_" d="m5.3 38.1v0c-0.1 0.1-0.1 0.1-0.2 0.1v-0.1c0.1-0.1 0.2-0.1 0.2 0z"/></g>
	<g id="change1_93"><path fill="#00ffff" id="XMLID_9711_" d="m5.4 37.8v0c-0.1 0.1-0.1 0.1-0.2 0v-0.1c0 0.1 0.1 0.1 0.2 0.1z"/></g>
	<g id="change1_94"><path fill="#00ffff" id="XMLID_9710_" d="m5.4 37.5v0c-0.1 0.1-0.1 0.1-0.2 0v-0.1c0.1 0.1 0.1 0.1 0.2 0.1z"/></g>
	<g id="change1_95"><path fill="#00ffff" id="XMLID_9709_" d="m5.5 37.2v0c-0.1 0.1-0.1 0.1-0.2 0v-0.1c0 0.1 0.1 0.1 0.2 0.1z"/></g>
	<g id="change1_96"><path fill="#00ffff" id="XMLID_9708_" d="m5.5 37v0c-0.1 0.1-0.1 0.1-0.2 0v-0.1c0.1 0 0.1 0 0.2 0.1z"/></g>
	<g id="change1_97"><path fill="#00ffff" id="XMLID_9707_" d="m5.6 36.7v0c-0.1 0.1-0.1 0.1-0.2 0v-0.1s0.1 0 0.2 0.1z"/></g>
	<g id="change1_98"><path fill="#00ffff" id="XMLID_9706_" d="m5.6 36.4v0c-0.1 0.1-0.1 0.1-0.2 0v-0.1c0.1 0.1 0.1 0.1 0.2 0.1z"/></g>
	<g id="change1_99"><path fill="#00ffff" id="XMLID_9705_" d="m5.7 36.1v0c-0.1 0.1-0.1 0.1-0.2 0v-0.1c0 0.1 0.1 0.1 0.2 0.1z"/></g>
	<g id="change1_100"><path fill="#00ffff" id="XMLID_9704_" d="m5.7 35.8v0c-0.2 0-0.3 0-0.4-0.1v-0.1c0.2 0.2 0.3 0.2 0.4 0.2z"/></g>
	<g id="change1_101"><path fill="#00ffff" id="XMLID_9703_" d="m6.3 33.5c-0.2 0-0.2 0-0.4-0.1v-0.1c0.2 0.1 0.3 0.1 0.4 0.2z"/></g>
	<g id="change1_102"><path fill="#00ffff" id="XMLID_9702_" d="m5.8 35.6v0c-0.1 0.1-0.1 0.1-0.2 0v-0.1s0.1 0 0.2 0.1z"/></g>
	<g id="change1_103"><path fill="#00ffff" id="XMLID_9701_" d="m5.8 35.3v0c-0.1 0.1-0.1 0.1-0.2 0v-0.1c0.1 0.1 0.1 0.1 0.2 0.1z"/></g>
	<g id="change1_104"><path fill="#00ffff" id="XMLID_9700_" d="m5.9 35v0c-0.1 0.1-0.1 0-0.2 0v-0.1c0.1 0.1 0.1 0.1 0.2 0.1z"/></g>
	<g id="change1_105"><path fill="#00ffff" id="XMLID_9699_" d="m6 34.8v0c-0.1 0.1-0.1 0-0.2 0v-0.1s0.1 0 0.2 0.1z"/></g>
	<g id="change1_106"><path fill="#00ffff" id="XMLID_9698_" d="m6 34.5v0c-0.1 0.1-0.1 0-0.2 0v-0.1c0.1 0 0.1 0 0.2 0.1z"/></g>
	<g id="change1_107"><path fill="#00ffff" id="XMLID_9697_" d="m6.1 34.2v0c-0.1 0.1-0.1 0-0.2 0v-0.1c0.1 0.1 0.1 0.1 0.2 0.1z"/></g>
	<g id="change1_108"><path fill="#00ffff" id="XMLID_9696_" d="m6.2 33.9v0c-0.1 0.1-0.1 0-0.2 0v-0.1c0 0.1 0.1 0.1 0.2 0.1z"/></g>
	<g id="change1_109"><path fill="#00ffff" id="XMLID_9695_" d="m6.2 33.7v0c-0.1 0.1-0.1 0-0.2 0v-0.1c0.1 0 0.2 0 0.2 0.1z"/></g>
	<g id="change1_110"><path fill="#00ffff" id="XMLID_9694_" d="m6.3 33.4v0c-0.2 0-0.2 0-0.4-0.1v-0.1c0.2 0.1 0.3 0.1 0.4 0.2z"/></g>
	<g id="change1_111"><path fill="#00ffff" id="XMLID_9693_" d="m7.1 31.1v0c-0.2 0-0.2-0.1-0.4-0.2v-0.1c0.2 0.2 0.3 0.2 0.4 0.3z"/></g>
	<g id="change1_112"><path fill="#00ffff" id="XMLID_9692_" d="m6.4 33.1v0c-0.1 0.1-0.1 0-0.2 0v-0.1c0.1 0.1 0.1 0.1 0.2 0.1z"/></g>
	<g id="change1_113"><path fill="#00ffff" id="XMLID_9691_" d="m6.5 32.9v0c-0.1 0.1-0.1 0-0.2 0v-0.1c0.1 0 0.1 0 0.2 0.1z"/></g>
	<g id="change1_114"><path fill="#00ffff" id="XMLID_9690_" d="m6.6 32.6v0c-0.1 0.1-0.1 0-0.2 0v-0.1c0.1 0 0.1 0.1 0.2 0.1z"/></g>
	<g id="change1_115"><path fill="#00ffff" id="XMLID_9689_" d="m6.7 32.4v0c-0.1 0.1-0.1 0-0.2 0v-0.1s0.1 0 0.2 0.1z"/></g>
	<g id="change1_116"><path fill="#00ffff" id="XMLID_9688_" d="m6.8 32.1v0c-0.1 0.1-0.1 0-0.2 0v-0.1s0.1 0 0.2 0.1z"/></g>
	<g id="change1_117"><path fill="#00ffff" id="XMLID_9687_" d="m6.9 31.8v0h-0.2v-0.1c0 0.1 0.1 0.1 0.2 0.1z"/></g>
	<g id="change1_118"><path fill="#00ffff" id="XMLID_9686_" d="m6.9 31.6v0.1c-0.1-0.1-0.1-0.1-0.2-0.1v-0.1c0.1 0 0.2 0 0.2 0.1z"/></g>
	<g id="change1_119"><path fill="#00ffff" id="XMLID_9685_" d="m7 31.3v0.1c-0.1-0.1-0.1-0.1-0.2-0.1 0-0.1 0-0.1 0.1-0.1l0.1 0.1z"/></g>
	<g id="change1_120"><path fill="#00ffff" id="XMLID_9684_" d="m7.1 31.1c-0.2 0-0.2-0.1-0.4-0.2v-0.1c0.2 0.1 0.3 0.2 0.4 0.3z"/></g>
	<g id="change1_121"><path fill="#00ffff" id="XMLID_9683_" d="m8.1 28.9l-0.4-0.2v-0.1c0.2 0.1 0.3 0.1 0.4 0.3z"/></g>
	<g id="change1_122"><path fill="#00ffff" id="XMLID_9682_" d="m7.3 30.8c0 0.1 0 0.1-0.1 0.1-0.1-0.1-0.1-0.1-0.2-0.1 0-0.1 0-0.1 0.1-0.1 0 0 0.1 0 0.2 0.1z"/></g>
	<g id="change1_123"><path fill="#00ffff" id="XMLID_9681_" d="m7.4 30.5c0 0.1 0 0.1-0.1 0.1-0.1-0.1-0.1-0.1-0.2-0.1 0-0.1 0-0.1 0.1-0.1 0 0.1 0.1 0.1 0.2 0.1z"/></g>
	<g id="change1_124"><path fill="#00ffff" id="XMLID_9680_" d="m7.5 30.3c0 0.1 0 0.1-0.1 0.1-0.1-0.1-0.1-0.1-0.2-0.1 0-0.1 0-0.1 0.1-0.1 0 0 0.1 0 0.2 0.1z"/></g>
	<g id="change1_125"><path fill="#00ffff" id="XMLID_9679_" d="m7.6 30c0 0.1 0 0.1-0.1 0.1-0.1-0.1-0.1-0.1-0.2-0.1 0-0.1 0-0.1 0.1-0.1s0.1 0.1 0.2 0.1z"/></g>
	<g id="change1_126"><path fill="#00ffff" id="XMLID_9678_" d="m7.7 29.8s0 0.1-0.1 0.1l-0.2-0.2c0-0.1 0-0.1 0.1-0.1l0.2 0.2z"/></g>
	<g id="change1_127"><path fill="#00ffff" id="XMLID_9677_" d="m7.8 29.5s0 0.1-0.1 0.1l-0.2-0.2c0-0.1 0-0.1 0.1-0.1 0.1 0.1 0.1 0.2 0.2 0.2z"/></g>
	<g id="change1_128"><path fill="#00ffff" id="XMLID_9676_" d="m7.9 29.3s0 0.1-0.1 0.1l-0.2-0.2s0-0.1 0.1-0.1c0.1 0.1 0.2 0.1 0.2 0.2z"/></g>
	<g id="change1_129"><path fill="#00ffff" id="XMLID_9675_" d="m8 29s0 0.1-0.1 0.1l-0.2-0.2s0-0.1 0.1-0.1l0.2 0.2z"/></g>
	<g id="change1_130"><path fill="#00ffff" id="XMLID_9674_" d="m8.2 28.8c-0.2-0.1-0.3-0.1-0.4-0.2v-0.1c0.2 0.1 0.2 0.2 0.4 0.3z"/></g>
	<g id="change1_131"><path fill="#00ffff" id="XMLID_9673_" d="m9.4 26.7c0 0.1-0.1 0.1 0 0-0.2-0.1-0.2-0.1-0.3-0.3v-0.1c0.1 0.2 0.1 0.3 0.3 0.4z"/></g>
	<g id="change1_132"><path fill="#00ffff" id="XMLID_9672_" d="m8.3 28.6s0 0.1-0.1 0.1l-0.2-0.2s0-0.1 0.1-0.1l0.2 0.2z"/></g>
	<g id="change1_133"><path fill="#00ffff" id="XMLID_9671_" d="m8.4 28.3s0 0.1-0.1 0.1l-0.2-0.2s0-0.1 0.1-0.1c0.1 0.1 0.2 0.1 0.2 0.2z"/></g>
	<g id="change1_134"><path fill="#00ffff" id="XMLID_9670_" d="m8.6 28.1s0 0.1-0.1 0.1l-0.2-0.2s0-0.1 0.1-0.1l0.2 0.2z"/></g>
	<g id="change1_135"><path fill="#00ffff" id="XMLID_9669_" d="m8.7 27.8s0 0.1-0.1 0.1l-0.2-0.2s0-0.1 0.1-0.1c0.1 0.1 0.1 0.2 0.2 0.2z"/></g>
	<g id="change1_136"><path fill="#00ffff" id="XMLID_9668_" d="m8.8 27.6s0 0.1-0.1 0.1l-0.2-0.2s0-0.1 0.1-0.1c0.1 0.1 0.2 0.1 0.2 0.2z"/></g>
	<g id="change1_137"><path fill="#00ffff" id="XMLID_9667_" d="m9 27.4s0 0.1-0.1 0.1l-0.2-0.2s0-0.1 0.1-0.1l0.2 0.2z"/></g>
	<g id="change1_138"><path fill="#00ffff" id="XMLID_9666_" d="m9.1 27.1s0 0.1-0.1 0.1l-0.2-0.2s0-0.1 0.1-0.1c0.1 0.1 0.1 0.2 0.2 0.2z"/></g>
	<g id="change1_139"><path fill="#00ffff" id="XMLID_9665_" d="m9.3 26.9s0 0.1-0.1 0.1l-0.2-0.2s0-0.1 0.1-0.1l0.2 0.2z"/></g>
	<g id="change1_140"><path fill="#00ffff" id="XMLID_9664_" d="m6.3 23.5s0.1-0.1 0 0c0.2 0.1 0.2 0.1 0.4 0.3v0.1c-0.2-0.2-0.2-0.3-0.4-0.4z"/></g>
	<g id="change1_141"><path fill="#00ffff" id="XMLID_9663_" d="m4.9 26c0.2 0 0.2 0.1 0.4 0.2v0.1c-0.2-0.1-0.3-0.2-0.4-0.3z"/></g>
	<g id="change1_142"><path fill="#00ffff" id="XMLID_9662_" d="m6.2 23.8c0-0.1 0.1-0.1 0.1-0.1l0.2 0.2c0 0.1-0.1 0.1-0.1 0.1l-0.2-0.2z"/></g>
	<g id="change1_143"><path fill="#00ffff" id="XMLID_9661_" d="m6 24c0-0.1 0.1-0.1 0.1-0.1l0.2 0.2c0 0.1-0.1 0.1-0.1 0.1-0.1 0-0.2-0.1-0.2-0.2z"/></g>
	<g id="change1_144"><path fill="#00ffff" id="XMLID_9660_" d="m5.8 24.3c0-0.1 0.1-0.1 0.1-0.1l0.2 0.2c0 0.1-0.1 0.1-0.1 0.1l-0.2-0.2z"/></g>
	<g id="change1_145"><path fill="#00ffff" id="XMLID_9659_" d="m5.6 24.6c0-0.1 0.1-0.1 0.1-0.1l0.2 0.2c0 0.1 0 0.1-0.1 0.1l-0.2-0.2z"/></g>
	<g id="change1_146"><path fill="#00ffff" id="XMLID_9658_" d="m5.5 24.9c0-0.1 0-0.1 0.1-0.1l0.2 0.2c0 0.1 0 0.1-0.1 0.1-0.1-0.1-0.2-0.1-0.2-0.2z"/></g>
	<g id="change1_147"><path fill="#00ffff" id="XMLID_9657_" d="m5.3 25.2c0-0.1 0-0.1 0.1-0.1l0.2 0.2c0 0.1 0 0.1-0.1 0.1l-0.2-0.2z"/></g>
	<g id="change1_148"><path fill="#00ffff" id="XMLID_9656_" d="m5.2 25.5c0-0.1 0-0.1 0.1-0.1l0.2 0.2c0 0.1 0 0.1-0.1 0.1-0.1-0.1-0.2-0.1-0.2-0.2z"/></g>
	<g id="change1_149"><path fill="#00ffff" id="XMLID_9655_" d="m5 25.8c0-0.1 0-0.1 0.1-0.1l0.2 0.2c0 0.1 0 0.1-0.1 0.1-0.1-0.1-0.1-0.2-0.2-0.2z"/></g>
	<g id="change1_150"><path fill="#00ffff" id="XMLID_9654_" d="m4.8 26.1c0.1-0.1 0.1-0.1 0 0 0.2 0 0.2 0.1 0.4 0.2v0.1c-0.2-0.1-0.2-0.2-0.4-0.3z"/></g>
	<g id="change1_151"><path fill="#00ffff" id="XMLID_9653_" d="m3.6 28.7c0.1 0 0.1 0 0 0 0.2 0 0.2 0.1 0.4 0.2v0.1c-0.1-0.1-0.2-0.2-0.4-0.3z"/></g>
	<g id="change1_152"><path fill="#00ffff" id="XMLID_9652_" d="m4.7 26.4c0-0.1 0-0.1 0.1-0.1l0.2 0.2c0 0.1 0 0.1-0.1 0.1-0.1-0.1-0.1-0.2-0.2-0.2z"/></g>
	<g id="change1_153"><path fill="#00ffff" id="XMLID_9651_" d="m4.5 26.7c0-0.1 0-0.1 0.1-0.1l0.2 0.2c0 0.1 0 0.1-0.1 0.1 0-0.1-0.1-0.2-0.2-0.2z"/></g>
	<g id="change1_154"><path fill="#00ffff" id="XMLID_9650_" d="m4.4 27c0-0.1 0-0.1 0.1-0.2l0.2 0.2c0 0.1 0 0.1-0.1 0.1s-0.1-0.1-0.2-0.1z"/></g>
	<g id="change1_155"><path fill="#00ffff" id="XMLID_9649_" d="m4.3 27.3c0-0.1 0-0.1 0.1-0.2l0.2 0.2c0 0.1 0 0.1-0.1 0.2l-0.2-0.2z"/></g>
	<g id="change1_156"><path fill="#00ffff" id="XMLID_9648_" d="m4.1 27.6c0-0.1 0-0.1 0.1-0.2 0.1 0.1 0.1 0.1 0.2 0.1 0 0.1 0 0.1-0.1 0.2-0.1 0-0.1-0.1-0.2-0.1z"/></g>
	<g id="change1_157"><path fill="#00ffff" id="XMLID_9647_" d="m4 27.9c0-0.1 0-0.1 0.1-0.2 0.1 0.1 0.1 0.1 0.2 0.1 0 0.1 0 0.1-0.1 0.2-0.1 0-0.1 0-0.2-0.1z"/></g>
	<g id="change1_158"><path fill="#00ffff" id="XMLID_9646_" d="m3.9 28.2c0-0.1 0-0.1 0.1-0.2 0.1 0.1 0.1 0.1 0.2 0.1 0 0.1 0 0.1-0.1 0.2-0.1 0-0.2 0-0.2-0.1z"/></g>
	<g id="change1_159"><path fill="#00ffff" id="XMLID_9645_" d="m3.7 28.5c0-0.1 0-0.1 0.1-0.2 0.1 0.1 0.1 0.1 0.2 0.1 0 0.1 0 0.1-0.1 0.2 0 0-0.1 0-0.2-0.1z"/></g>
	<g id="change1_160"><path fill="#00ffff" id="XMLID_9644_" d="m3.6 28.8c0.2 0 0.2 0.1 0.4 0.2v0.1c-0.2-0.1-0.2-0.2-0.4-0.3z"/></g>
	<g id="change1_161"><path fill="#00ffff" id="XMLID_9643_" d="m2.6 31.6c0.1 0 0.1 0 0 0 0.2 0 0.3 0 0.4 0.1v0.1c-0.1-0.1-0.2-0.1-0.4-0.2z"/></g>
	<g id="change1_162"><path fill="#00ffff" id="XMLID_9642_" d="m3.5 29.1c0-0.1 0-0.1 0.1-0.2 0.1 0.1 0.1 0.1 0.2 0.1 0 0.1 0 0.1-0.1 0.2-0.1 0-0.1 0-0.2-0.1z"/></g>
	<g id="change1_163"><path fill="#00ffff" id="XMLID_9641_" d="m3.4 29.5c0-0.1 0-0.1 0.1-0.2 0.1 0.1 0.1 0.1 0.2 0.1 0 0.1 0 0.1-0.1 0.2-0.1-0.1-0.2-0.1-0.2-0.1z"/></g>
	<g id="change1_164"><path fill="#00ffff" id="XMLID_9640_" d="m3.3 29.8c0-0.1 0-0.1 0.1-0.2 0.1 0.1 0.1 0.1 0.2 0.1 0 0.1 0 0.1-0.1 0.2-0.1-0.1-0.2-0.1-0.2-0.1z"/></g>
	<g id="change1_165"><path fill="#00ffff" id="XMLID_9639_" d="m3.1 30.1c0-0.1 0-0.1 0.1-0.2 0.1 0 0.1 0.1 0.2 0.1 0 0.1 0 0.1-0.1 0.2 0 0-0.1-0.1-0.2-0.1z"/></g>
	<g id="change1_166"><path fill="#00ffff" id="XMLID_9638_" d="m3 30.4c0-0.1 0-0.1 0.1-0.2 0.1 0 0.1 0.1 0.2 0.1 0 0.1 0 0.1-0.1 0.2 0 0-0.1 0-0.2-0.1z"/></g>
	<g id="change1_167"><path fill="#00ffff" id="XMLID_9637_" d="m2.9 30.7c0-0.1 0-0.1 0.1-0.2 0.1 0 0.1 0.1 0.2 0.1 0 0.1 0 0.1-0.1 0.2-0.1 0-0.1 0-0.2-0.1z"/></g>
	<g id="change1_168"><path fill="#00ffff" id="XMLID_9636_" d="m2.8 31.1c0-0.1 0-0.1 0.1-0.2 0.1 0 0.1 0.1 0.2 0.1 0 0.1 0 0.1-0.1 0.2-0.1-0.1-0.1-0.1-0.2-0.1z"/></g>
	<g id="change1_169"><path fill="#00ffff" id="XMLID_9635_" d="m2.7 31.4v-0.2c0.1 0 0.1 0.1 0.2 0.1v0.2c-0.1-0.1-0.1-0.1-0.2-0.1z"/></g>
	<g id="change1_170"><path fill="#00ffff" id="XMLID_9634_" d="m2.6 31.7c0.2 0 0.3 0 0.4 0.1v0.1c-0.1-0.1-0.2-0.1-0.4-0.2z"/></g>
	<g id="change1_171"><path fill="#00ffff" id="XMLID_9633_" d="m1.9 34.6v0c0.2 0 0.3 0 0.4 0.1v0.1c-0.2-0.1-0.2-0.2-0.4-0.2z"/></g>
	<g id="change1_172"><path fill="#00ffff" id="XMLID_9632_" d="m2.5 32v-0.2c0.1 0 0.1 0.1 0.2 0.1v0.2s-0.1 0-0.2-0.1z"/></g>
	<g id="change1_173"><path fill="#00ffff" id="XMLID_9631_" d="m2.4 32.4v-0.2c0.1 0 0.1 0.1 0.2 0.1v0.2c0-0.1-0.1-0.1-0.2-0.1z"/></g>
	<g id="change1_174"><path fill="#00ffff" id="XMLID_9630_" d="m2.4 32.7v-0.2c0.1 0 0.1 0.1 0.2 0.1v0.2c-0.1-0.1-0.2-0.1-0.2-0.1z"/></g>
	<g id="change1_175"><path fill="#00ffff" id="XMLID_9629_" d="m2.3 33v-0.2c0.1 0 0.1 0.1 0.2 0.1v0.2c-0.1 0-0.1-0.1-0.2-0.1z"/></g>
	<g id="change1_176"><path fill="#00ffff" id="XMLID_9628_" d="m2.2 33.3v-0.2c0.1 0 0.1 0.1 0.2 0.1v0.2c-0.1 0-0.1 0-0.2-0.1z"/></g>
	<g id="change1_177"><path fill="#00ffff" id="XMLID_9627_" d="m2.1 33.7v-0.2c0.1 0 0.1 0.1 0.2 0.1v0.2c-0.1-0.1-0.1-0.1-0.2-0.1z"/></g>
	<g id="change1_178"><path fill="#00ffff" id="XMLID_9626_" d="m2 34v-0.2c0.1 0 0.1 0.1 0.2 0.1v0.2s-0.1-0.1-0.2-0.1z"/></g>
	<g id="change1_179"><path fill="#00ffff" id="XMLID_9625_" d="m2 34.3v-0.2c0.1 0 0.1 0 0.2 0.1v0.2c-0.1 0-0.2 0-0.2-0.1z"/></g>
	<g id="change1_180"><path fill="#00ffff" id="XMLID_9624_" d="m1.9 34.7v0c0.2 0 0.3 0 0.4 0.1v0.1c-0.2-0.1-0.2-0.2-0.4-0.2z"/></g>
	<g id="change1_181"><path fill="#00ffff" id="XMLID_9623_" d="m1.4 37.6c0.2-0.1 0.3 0 0.4 0v0.1c-0.1 0-0.2 0-0.4-0.1z"/></g>
	<g id="change1_182"><path fill="#00ffff" id="XMLID_9622_" d="m1.8 35v-0.2c0.1 0 0.1 0 0.2 0.1v0.2s-0.1-0.1-0.2-0.1z"/></g>
	<g id="change1_183"><path fill="#00ffff" id="XMLID_9621_" d="m1.8 35.3v-0.2c0.1 0 0.1 0 0.2 0.1v0.2c-0.1 0-0.1 0-0.2-0.1z"/></g>
	<g id="change1_184"><path fill="#00ffff" id="XMLID_9620_" d="m1.7 35.7v-0.2c0.1 0 0.1 0 0.2 0.1v0.2c-0.1-0.1-0.1-0.1-0.2-0.1z"/></g>
	<g id="change1_185"><path fill="#00ffff" id="XMLID_9619_" d="m1.6 36v-0.2c0.1 0 0.1 0 0.2 0.1v0.2s-0.1-0.1-0.2-0.1z"/></g>
	<g id="change1_186"><path fill="#00ffff" id="XMLID_9618_" d="m1.6 36.4v-0.2c0.1 0 0.1 0 0.2 0.1v0.2c-0.1-0.1-0.1-0.1-0.2-0.1z"/></g>
	<g id="change1_187"><path fill="#00ffff" id="XMLID_9617_" d="m1.5 36.7v-0.2c0.1 0 0.1 0 0.2 0.1v0.2c0-0.1-0.1-0.1-0.2-0.1z"/></g>
	<g id="change1_188"><path fill="#00ffff" id="XMLID_9616_" d="m1.5 37v-0.2c0.1 0 0.1 0 0.2 0.1v0.2c-0.1 0-0.1 0-0.2-0.1z"/></g>
	<g id="change1_189"><path fill="#00ffff" id="XMLID_9615_" d="m1.5 37.4v-0.2h0.2v0.2h-0.2z"/></g>
	<g id="change1_190"><path fill="#00ffff" id="XMLID_9614_" d="m1.4 37.7c0.2-0.1 0.3 0 0.4 0v0.1c-0.1 0-0.2-0.1-0.4-0.1z"/></g>
	<g id="change1_191"><path fill="#00ffff" id="XMLID_9613_" d="m1.2 40.7c0.2-0.1 0.2-0.1 0.4-0.1v0.1h-0.4z"/></g>
	<g id="change1_192"><path fill="#00ffff" id="XMLID_9612_" d="m1.4 38.1v-0.2h0.2v0.2h-0.2z"/></g>
	<g id="change1_193"><path fill="#00ffff" id="XMLID_9611_" d="m1.3 38.4v-0.2h0.2v0.2h-0.2z"/></g>
	<g id="change1_194"><path fill="#00ffff" id="XMLID_9610_" d="m1.3 38.7v-0.2h0.2v0.2c-0.1 0.1-0.1 0.1-0.2 0z"/></g>
	<g id="change1_195"><path fill="#00ffff" id="XMLID_9609_" d="m1.3 39.1v-0.2h0.2v0.2h-0.2z"/></g>
	<g id="change1_196"><path fill="#00ffff" id="XMLID_9608_" d="m1.3 39.4v-0.2h0.2v0.2h-0.2z"/></g>
	<g id="change1_197"><path fill="#00ffff" id="XMLID_9607_" d="m1.2 39.8v-0.2h0.2v0.2h-0.2z"/></g>
	<g id="change1_198"><path fill="#00ffff" id="XMLID_9606_" d="m1.2 40.1v-0.2h0.2v0.2h-0.2z"/></g>
	<g id="change1_199"><path fill="#00ffff" id="XMLID_9605_" d="m1.2 40.5v-0.2h0.2v0.2h-0.2z"/></g>
	<g id="change1_200"><path fill="#00ffff" id="XMLID_9604_" d="m1.2 40.8v0c0.2-0.1 0.2-0.1 0.4-0.1v0.1h-0.4z"/></g>
	<g id="change1_201"><path fill="#00ffff" id="XMLID_9603_" d="m1.2 43.8c0.2-0.1 0.2-0.1 0.4-0.1v0.1h-0.4z"/></g>
	<g id="change1_202"><path fill="#00ffff" id="XMLID_9602_" d="m1.2 41.1v-0.2h0.2v0.2h-0.2z"/></g>
	<g id="change1_203"><path fill="#00ffff" id="XMLID_9601_" d="m1.2 41.5v-0.2h0.2v0.2h-0.2z"/></g>
	<g id="change1_204"><path fill="#00ffff" id="XMLID_9600_" d="m1.2 41.8v-0.2h0.2v0.2h-0.2z"/></g>
	<g id="change1_205"><path fill="#00ffff" id="XMLID_9599_" d="m1.2 42.2v-0.2h0.2v0.2h-0.2z"/></g>
	<g id="change1_206"><path fill="#00ffff" id="XMLID_9598_" d="m1.2 42.5v-0.2h0.2v0.2h-0.2z"/></g>
	<g id="change1_207"><path fill="#00ffff" id="XMLID_9597_" d="m1.2 42.9v-0.2h0.2v0.2h-0.2z"/></g>
	<g id="change1_208"><path fill="#00ffff" id="XMLID_9596_" d="m1.2 43.2v-0.2h0.2v0.2h-0.2z"/></g>
	<g id="change1_209"><path fill="#00ffff" id="XMLID_9595_" d="m1.2 43.5v-0.2h0.2v0.2h-0.2z"/></g>
	<g id="change1_210"><path fill="#00ffff" id="XMLID_9594_" d="m1.2 43.9v0c0.2-0.1 0.2-0.1 0.4-0.1v0.1h-0.4z"/></g>
	<g id="change1_211"><path fill="#00ffff" id="XMLID_9593_" d="m1.5 46.9v0c0.1-0.1 0.2-0.2 0.4-0.2v0.1c-0.2 0-0.3 0-0.4 0.1z"/></g>
	<g id="change1_212"><path fill="#00ffff" id="XMLID_9592_" d="m1.2 44.2v-0.2h0.2v0.2h-0.2z"/></g>
	<g id="change1_213"><path fill="#00ffff" id="XMLID_9591_" d="m1.2 44.6v-0.2h0.2v0.2h-0.2z"/></g>
	<g id="change1_214"><path fill="#00ffff" id="XMLID_9590_" d="m1.3 44.9v-0.2h0.2v0.2h-0.2z"/></g>
	<g id="change1_215"><path fill="#00ffff" id="XMLID_9589_" d="m1.3 45.3v-0.2h0.2v0.2c-0.1-0.1-0.1-0.1-0.2 0z"/></g>
	<g id="change1_216"><path fill="#00ffff" id="XMLID_9588_" d="m1.3 45.6v-0.2h0.2v0.2h-0.2z"/></g>
	<g id="change1_217"><path fill="#00ffff" id="XMLID_9587_" d="m1.4 45.9v-0.2h0.2v0.2h-0.2z"/></g>
	<g id="change1_218"><path fill="#00ffff" id="XMLID_9586_" d="m1.4 46.3v-0.2h0.2v0.2h-0.2z"/></g>
	<g id="change1_219"><path fill="#00ffff" id="XMLID_9585_" d="m1.4 46.6v-0.2h0.2v0.2h-0.2z"/></g>
	<g id="change1_220"><path fill="#00ffff" id="XMLID_9584_" d="m1.5 47v0l0.4-0.2v0.1c-0.2 0-0.3 0-0.4 0.1z"/></g>
	<g id="change1_221"><path fill="#00ffff" id="XMLID_9583_" d="m2 49.9c0.1-0.1 0.2-0.2 0.4-0.2v0.1c-0.2 0-0.2 0.1-0.4 0.1z"/></g>
	<g id="change1_222"><path fill="#00ffff" id="XMLID_9582_" d="m1.5 47.3v-0.2c0.1 0 0.1 0 0.2-0.1v0.2c0 0.1-0.1 0.1-0.2 0.1z"/></g>
	<g id="change1_223"><path fill="#00ffff" id="XMLID_9581_" d="m1.6 47.6v-0.2c0.1 0 0.1 0 0.2-0.1v0.2c-0.1 0.1-0.1 0.1-0.2 0.1z"/></g>
	<g id="change1_224"><path fill="#00ffff" id="XMLID_9580_" d="m1.6 48v-0.2c0.1 0 0.1 0 0.2-0.1v0.2s-0.1 0.1-0.2 0.1z"/></g>
	<g id="change1_225"><path fill="#00ffff" id="XMLID_9579_" d="m1.7 48.3v-0.2c0.1 0 0.1 0 0.2-0.1v0.2c-0.1 0.1-0.1 0.1-0.2 0.1z"/></g>
	<g id="change1_226"><path fill="#00ffff" id="XMLID_9578_" d="m1.7 48.7v-0.2c0.1 0 0.1 0 0.2-0.1v0.2s-0.1 0-0.2 0.1z"/></g>
	<g id="change1_227"><path fill="#00ffff" id="XMLID_9577_" d="m1.8 49v-0.2c0.1 0 0.1 0 0.2-0.1v0.2c-0.1 0-0.1 0.1-0.2 0.1z"/></g>
	<g id="change1_228"><path fill="#00ffff" id="XMLID_9576_" d="m1.9 49.3v-0.2c0.1 0 0.1 0 0.2-0.1v0.2c-0.1 0.1-0.1 0.1-0.2 0.1z"/></g>
	<g id="change1_229"><path fill="#00ffff" id="XMLID_9575_" d="m1.9 49.7v-0.2c0.1 0 0.1 0 0.2-0.1v0.2s-0.1 0-0.2 0.1z"/></g>
	<g id="change1_230"><path fill="#00ffff" id="XMLID_9574_" d="m2 50v0c0.1-0.1 0.2-0.2 0.4-0.2v0.1c-0.1 0-0.2 0-0.4 0.1z"/></g>
	<g id="change1_231"><path fill="#00ffff" id="XMLID_9573_" d="m2.8 52.9v0c0.1-0.2 0.2-0.2 0.3-0.3v0.1c-0.1 0-0.2 0.1-0.3 0.2z"/></g>
	<g id="change1_232"><path fill="#00ffff" id="XMLID_9572_" d="m2.1 50.3v-0.2c0.1 0 0.1-0.1 0.2-0.1v0.2c-0.1 0.1-0.1 0.1-0.2 0.1z"/></g>
	<g id="change1_233"><path fill="#00ffff" id="XMLID_9571_" d="m2.2 50.7v-0.2c0.1 0 0.1-0.1 0.2-0.1v0.2c-0.1 0-0.1 0-0.2 0.1z"/></g>
	<g id="change1_234"><path fill="#00ffff" id="XMLID_9570_" d="m2.2 51v-0.2c0.1 0 0.1-0.1 0.2-0.1v0.2s-0.1 0.1-0.2 0.1z"/></g>
	<g id="change1_235"><path fill="#00ffff" id="XMLID_9569_" d="m2.3 51.3v-0.2c0.1 0 0.1-0.1 0.2-0.1v0.2c0 0.1-0.1 0.1-0.2 0.1z"/></g>
	<g id="change1_236"><path fill="#00ffff" id="XMLID_9568_" d="m2.4 51.6v-0.2c0.1 0 0.1-0.1 0.2-0.1v0.2c-0.1 0.1-0.1 0.1-0.2 0.1z"/></g>
	<g id="change1_237"><path fill="#00ffff" id="XMLID_9567_" d="m2.5 52v-0.2c0.1 0 0.1-0.1 0.2-0.1v0.2c-0.1 0-0.1 0-0.2 0.1z"/></g>
	<g id="change1_238"><path fill="#00ffff" id="XMLID_9566_" d="m2.6 52.3v-0.2c0.1 0 0.1-0.1 0.2-0.1v0.2c-0.1 0-0.1 0.1-0.2 0.1z"/></g>
	<g id="change1_239"><path fill="#00ffff" id="XMLID_9565_" d="m2.7 52.6v-0.2c0.1 0 0.1-0.1 0.2-0.1v0.2c-0.1 0.1-0.1 0.1-0.2 0.1z"/></g>
	<g id="change1_240"><path fill="#00ffff" id="XMLID_9564_" d="m2.8 52.9c0.1-0.1 0.2-0.2 0.4-0.2v0.1c-0.2 0-0.3 0.1-0.4 0.1z"/></g>
	<g id="change1_241"><path fill="#00ffff" id="XMLID_9563_" d="m3.8 55.7c0.1-0.2 0.2-0.2 0.3-0.3v0.1c-0.1 0.1-0.2 0.1-0.3 0.2z"/></g>
	<g id="change1_242"><path fill="#00ffff" id="XMLID_9562_" d="m2.9 53.3c0-0.1 0-0.1-0.1-0.2 0.1 0 0.1-0.1 0.2-0.1 0 0.1 0 0.1 0.1 0.2-0.1 0-0.1 0-0.2 0.1z"/></g>
	<g id="change1_243"><path fill="#00ffff" id="XMLID_9561_" d="m3 53.6c0-0.1 0-0.1-0.1-0.2 0.1 0 0.1-0.1 0.2-0.1 0 0.1 0 0.1 0.1 0.2-0.1 0-0.1 0-0.2 0.1z"/></g>
	<g id="change1_244"><path fill="#00ffff" id="XMLID_9560_" d="m3.1 53.9c0-0.1 0-0.1-0.1-0.2 0.1 0 0.1-0.1 0.2-0.1 0 0.1 0 0.1 0.1 0.2-0.1 0-0.1 0.1-0.2 0.1z"/></g>
	<g id="change1_245"><path fill="#00ffff" id="XMLID_9559_" d="m3.2 54.2c0-0.1 0-0.1-0.1-0.2 0.1 0 0.1-0.1 0.2-0.1 0 0.1 0 0.1 0.1 0.2-0.1 0.1-0.1 0.1-0.2 0.1z"/></g>
	<g id="change1_246"><path fill="#00ffff" id="XMLID_9558_" d="m3.3 54.5c0-0.1 0-0.1-0.1-0.2 0.1-0.1 0.1-0.1 0.2-0.1 0 0.1 0 0.1 0.1 0.2 0 0.1-0.1 0.1-0.2 0.1z"/></g>
	<g id="change1_247"><path fill="#00ffff" id="XMLID_9557_" d="m3.5 54.9c0-0.1 0-0.1-0.1-0.2 0.1-0.1 0.1-0.1 0.2-0.1 0 0.1 0 0.1 0.1 0.2-0.1 0-0.2 0-0.2 0.1z"/></g>
	<g id="change1_248"><path fill="#00ffff" id="XMLID_9556_" d="m3.6 55.2c0-0.1 0-0.1-0.1-0.2 0.1-0.1 0.1-0.1 0.2-0.1 0 0.1 0 0.1 0.1 0.2-0.1 0-0.1 0-0.2 0.1z"/></g>
	<g id="change1_249"><path fill="#00ffff" id="XMLID_9555_" d="m3.7 55.5c0-0.1 0-0.1-0.1-0.2 0.1-0.1 0.1-0.1 0.2-0.1 0 0.1 0 0.1 0.1 0.2-0.1 0-0.1 0-0.2 0.1z"/></g>
	<g id="change1_250"><path fill="#00ffff" id="XMLID_9554_" d="m3.8 55.8c0.1-0.2 0.2-0.2 0.3-0.3v0.1c-0.1 0-0.1 0.1-0.3 0.2z"/></g>
	<g id="change1_251"><path fill="#00ffff" id="XMLID_9553_" d="m5.1 58.4c0.1-0.2 0.2-0.3 0.3-0.4v0.1c-0.1 0.2-0.2 0.2-0.3 0.3z"/></g>
	<g id="change1_252"><path fill="#00ffff" id="XMLID_9552_" d="m4 56.1c0-0.1 0-0.1-0.1-0.2 0.1-0.1 0.1-0.1 0.2-0.1 0 0.1 0 0.1 0.1 0.2-0.1 0-0.2 0.1-0.2 0.1z"/></g>
	<g id="change1_253"><path fill="#00ffff" id="XMLID_9551_" d="m4.1 56.4c0-0.1 0-0.1-0.1-0.2 0.1-0.1 0.1-0.1 0.2-0.1 0 0.1 0 0.1 0.1 0.2-0.1 0-0.1 0.1-0.2 0.1z"/></g>
	<g id="change1_254"><path fill="#00ffff" id="XMLID_9550_" d="m4.2 56.7c0-0.1 0-0.1-0.1-0.2 0.1-0.1 0.1-0.1 0.2-0.1 0 0.1 0 0.1 0.1 0.2-0.1 0-0.1 0.1-0.2 0.1z"/></g>
	<g id="change1_255"><path fill="#00ffff" id="XMLID_9549_" d="m4.4 57c0-0.1 0-0.1-0.1-0.2l0.2-0.2c0 0.1 0 0.1 0.1 0.2l-0.2 0.2z"/></g>
	<g id="change1_256"><path fill="#00ffff" id="XMLID_9548_" d="m4.5 57.3c0-0.1 0-0.1-0.1-0.2l0.2-0.2c0 0.1 0 0.1 0.1 0.1-0.1 0.2-0.1 0.3-0.2 0.3z"/></g>
	<g id="change1_257"><path fill="#00ffff" id="XMLID_9547_" d="m4.7 57.6v0c0-0.2 0-0.2 0.1-0.3 0 0.1 0 0.1 0.1 0.1l-0.2 0.2z"/></g>
	<g id="change1_258"><path fill="#00ffff" id="XMLID_9546_" d="m4.8 57.9v0c0-0.2 0-0.2 0.1-0.3 0 0.1 0 0.1 0.1 0.1-0.1 0.1-0.1 0.2-0.2 0.2z"/></g>
	<g id="change1_259"><path fill="#00ffff" id="XMLID_9545_" d="m5 58.2v0c0-0.2 0-0.2 0.1-0.3 0 0.1 0 0.1 0.1 0.1l-0.2 0.2z"/></g>
	<g id="change1_260"><path fill="#00ffff" id="XMLID_9544_" d="m5.1 58.5c0.1-0.2 0.2-0.3 0.3-0.4v0.1l-0.3 0.3z"/></g>
	<g id="change1_261"><path fill="#00ffff" id="XMLID_9543_" d="m5.3 58.8v0c0-0.2 0-0.2 0.1-0.3 0 0.1 0 0.1 0.1 0.1-0.1 0.1-0.2 0.1-0.2 0.2z"/></g>
	<g id="change1_262"><path fill="#00ffff" id="XMLID_9542_" d="m5.4 59.1v0c0-0.2 0-0.2 0.1-0.3 0 0.1 0 0.1 0.1 0.1l-0.2 0.2z"/></g>
	<g id="change1_263"><path fill="#00ffff" id="XMLID_9541_" d="m5.6 59.4v0c0-0.2 0-0.2 0.1-0.3 0 0.1 0 0.1 0.1 0.1l-0.2 0.2z"/></g>
	<g id="change1_264"><path fill="#00ffff" id="XMLID_9540_" d="m5.8 59.7c0-0.1-0.1-0.1 0 0 0-0.2 0-0.2 0.1-0.3 0 0.1 0 0.1 0.1 0.1-0.1 0.1-0.2 0.1-0.2 0.2z"/></g>
	<g id="change1_265"><path fill="#00ffff" id="XMLID_9539_" d="m5.9 60c0-0.1-0.1-0.1 0 0 0-0.2 0-0.2 0.1-0.3 0 0.1 0.1 0.1 0.1 0.1l-0.2 0.2z"/></g>
	<g id="change1_266"><path fill="#00ffff" id="XMLID_9538_" d="m6.1 60.2c0-0.1-0.1-0.1 0 0 0-0.2 0-0.2 0.1-0.3 0 0.1 0.1 0.1 0.1 0.1-0.1 0.1-0.1 0.2-0.2 0.2z"/></g>
	<g id="change1_267"><path fill="#00ffff" id="XMLID_9537_" d="m6.3 60.5c0-0.1-0.1-0.1 0 0 0-0.2 0-0.2 0.1-0.3 0 0.1 0.1 0.1 0.1 0.1-0.1 0.1-0.1 0.2-0.2 0.2z"/></g>
	<g id="change2_1"><path fill="#00324a" id="XMLID_9536_" d="m6.1 29.5c-0.1 0-0.1-0.1-0.1-0.2v-0.1-0.1l0.1-0.1c0.1-0.2 0.1-0.3 0.2-0.5l-0.3-0.3c-0.1 0.1-0.1 0.2-0.2 0.3 0 0.1-0.1 0.2-0.2 0.3-0.1-0.1-0.2-0.2-0.3-0.2-0.1-0.1-0.2-0.1-0.3-0.2 0.1-0.2 0.1-0.3 0.2-0.4s0.1-0.2 0.2-0.4l0.1-0.1v0.2c-0.1 0.1-0.1 0.2-0.1 0.3s-0.1 0.2-0.1 0.3l0.3 0.3c0.1-0.2 0.1-0.3 0.2-0.4 0-0.1 0.1-0.1 0.1-0.2h0.1 0.1c0.1 0.1 0.2 0.1 0.3 0.2l0.1 0.1v0.2c-0.1 0.2-0.1 0.3-0.2 0.5 0 0.1-0.1 0.1-0.1 0.1s0 0-0.1 0.1c0.1 0.2 0.1 0.3 0 0.3"/></g>
	<g id="change2_2"><path fill="#00324a" id="XMLID_9533_" d="m6.8 28.1c-0.2-0.2-0.3-0.3-0.5-0.4-0.1-0.1-0.2-0.2-0.4-0.3-0.1-0.1-0.1-0.2 0-0.3s0.1-0.2 0.2-0.3 0.1-0.2 0.2-0.3c0-0.1 0.1-0.1 0.2-0.1h0.1c0.1 0.1 0.3 0.2 0.4 0.4l0.4 0.4c0.1 0.1 0.1 0.2 0 0.3s-0.1 0.2-0.2 0.3c0 0.1-0.1 0.2-0.2 0.3h-0.2m-0.4-1.6c-0.1 0.1-0.1 0.2-0.2 0.3s-0.1 0.2-0.2 0.3c0.2 0.1 0.3 0.2 0.4 0.3s0.2 0.2 0.4 0.3c0.1-0.1 0.1-0.2 0.2-0.3 0-0.1 0.1-0.2 0.2-0.3-0.1-0.1-0.3-0.2-0.4-0.3-0.1 0-0.2-0.1-0.4-0.3"/></g>
	<g id="change2_3"><path fill="#00324a" id="XMLID_9532_" d="m3.5 38.5c-0.1 0-0.3 0-0.4-0.1-0.1 0-0.2 0-0.4-0.1 0 0-0.1 0-0.1-0.1s0-0.1 0.1-0.1c0.1 0 0.2 0 0.3 0.1 0.1 0 0.2 0 0.3 0.1 0-0.2 0-0.3 0.1-0.5-0.1-0.1-0.2-0.1-0.4-0.1 0 0-0.1 0-0.1-0.1s0-0.1 0.1-0.1c0.2 0 0.3 0.1 0.5 0.1 0-0.1 0-0.1 0.1-0.1s0.1 0.1 0.1 0.1c0.1 0 0.2 0 0.3 0.1 0.1 0 0.1 0.1 0.1 0.1 0 0.1 0 0.1-0.1 0.1s-0.2 0-0.3-0.1v0.4c-0.2 0.1-0.2 0.2-0.2 0.3"/></g>
	<g id="change2_4"><path fill="#00324a" id="XMLID_9529_" d="m4 37.2s-0.1 0 0 0c-0.2 0-0.3-0.1-0.5-0.1-0.1 0-0.3-0.1-0.5-0.1-0.1 0-0.1-0.2-0.1-0.3 0-0.2 0-0.3 0.1-0.4 0-0.1 0-0.2 0.1-0.4 0-0.1 0.1-0.2 0.2-0.2 0.2 0.1 0.3 0.1 0.4 0.1s0.3 0.1 0.4 0.1 0.1 0.2 0.1 0.3 0 0.3-0.1 0.4c0 0.1 0 0.2-0.1 0.4 0.1 0.1 0 0.2 0 0.2m-0.8-1.3c0 0.2 0 0.3-0.1 0.4 0 0.1 0 0.2-0.1 0.4 0.2 0 0.3 0.1 0.4 0.1s0.3 0.1 0.4 0.1c0-0.1 0-0.3 0.1-0.4 0-0.1 0-0.2 0.1-0.4-0.2-0.1-0.3-0.1-0.4-0.1s-0.2 0-0.4-0.1"/></g>
	<g id="change2_5"><path fill="#00324a" id="XMLID_9528_" d="m3.2 48.7s-0.1 0 0 0c-0.1-0.3-0.2-0.4-0.2-0.5s0-0.3-0.1-0.4c0-0.1 0-0.3 0.1-0.3s0.2 0 0.3-0.1h0.1 0.1l0.1-0.1c0.1 0 0.2 0 0.3-0.1 0.1 0 0.1 0.1 0.2 0.2 0 0.2 0 0.3 0.1 0.4 0 0.1 0 0.3 0.1 0.4 0 0.1 0 0.1-0.1 0.1 0 0-0.1 0-0.1-0.1 0-0.2-0.1-0.3-0.1-0.4s0-0.3-0.1-0.4c-0.1 0-0.2 0-0.3 0.1-0.1 0-0.1 0.1-0.1 0.2 0 0.2 0 0.3 0.1 0.5 0 0.1 0 0.1-0.1 0.1 0 0-0.1 0-0.1-0.1 0-0.2-0.1-0.3-0.1-0.5 0-0.1 0-0.1-0.1-0.1s-0.2 0-0.3 0.1c0 0.2 0.1 0.3 0.1 0.4s0 0.3 0.1 0.4c0.2 0.1 0.2 0.2 0.1 0.2"/></g>
	<g id="change2_6"><path fill="#00324a" id="XMLID_9525_" d="m3 47.1c-0.1 0-0.2-0.1-0.2-0.2 0-0.2 0-0.3-0.1-0.4v-0.4c0-0.1 0-0.3 0.1-0.3 0.2 0 0.3-0.1 0.5-0.1 0.1 0 0.3-0.1 0.5-0.1 0.1 0 0.1 0.1 0.2 0.2v0.4 0.4c0 0.1 0 0.3-0.1 0.3-0.2 0-0.3 0.1-0.5 0.1-0.1 0-0.2 0-0.4 0.1m0.8-1.2c-0.2 0-0.3 0.1-0.5 0.1-0.1 0-0.3 0.1-0.5 0.1v0.4c0 0.1 0 0.2 0.1 0.4 0.2 0 0.3-0.1 0.5-0.1 0.1 0 0.3-0.1 0.5-0.1v-0.4c-0.1-0.2-0.1-0.3-0.1-0.4"/></g>
	<g id="change2_7"><path fill="#00324a" id="XMLID_9524_" d="m6.6 58.1c-0.1 0-0.1 0 0 0-0.2-0.2-0.2-0.3-0.3-0.4s-0.1-0.2-0.2-0.4c0-0.1-0.1-0.1-0.1-0.2s0-0.1 0.1-0.2 0.2-0.1 0.3-0.2h0.1 0.1s0.1 0.1 0.1 0.1c0.1 0.1 0.1 0.2 0.2 0.3 0 0.1 0.1 0.2 0.2 0.3l0.3-0.3c-0.1-0.1-0.1-0.3-0.2-0.4s-0.1-0.2-0.2-0.4v-0.2s0.1 0 0.1 0.1c0.1 0.2 0.2 0.3 0.2 0.5 0.1 0.1 0.2 0.3 0.3 0.5l-0.2 0.2-0.2 0.2-0.1 0.1c-0.1 0-0.1-0.1-0.2-0.2s-0.1-0.2-0.2-0.3c0-0.1-0.1-0.2-0.2-0.3l-0.3 0.3c0.1 0.2 0.1 0.3 0.2 0.4s0.1 0.2 0.2 0.4c0-0.1 0.1 0 0 0.1"/></g>
	<g id="change2_8"><path fill="#00324a" id="XMLID_9521_" d="m5.9 56.6c-0.1 0-0.1-0.1-0.2-0.1-0.1-0.1-0.1-0.2-0.2-0.3 0-0.1-0.1-0.2-0.2-0.3s0-0.3 0-0.3c0.2-0.1 0.3-0.2 0.4-0.3s0.2-0.2 0.4-0.3h0.1s0.1 0.1 0.2 0.1c0.1 0.1 0.1 0.2 0.1 0.3s0.1 0.2 0.2 0.3 0 0.3 0 0.3c-0.2 0.1-0.3 0.2-0.4 0.3s-0.2 0.2-0.4 0.3m0.4-1.5c-0.2 0.1-0.3 0.2-0.4 0.3s-0.2 0.2-0.4 0.3c0.1 0.1 0.1 0.2 0.2 0.3 0 0.1 0.1 0.2 0.2 0.3 0.2-0.1 0.3-0.2 0.4-0.3s0.2-0.2 0.4-0.3c-0.1-0.1-0.1-0.2-0.2-0.3s-0.1-0.2-0.2-0.3"/></g>
	<g id="change1_268"><path fill="#00ffff" id="XMLID_9520_" d="m61.5 58.3c0.2-0.1 0.3-0.3 0.4-0.5s0.3-0.4 0.4-0.5c0.1-0.2 0.2-0.4 0.4-0.5 0.1-0.2 0.2-0.4 0.3-0.5 0.1-0.2 0.2-0.4 0.3-0.5 0.1-0.2 0.2-0.4 0.3-0.5 0.1-0.2 0.2-0.4 0.3-0.5 0.1-0.2 0.2-0.4 0.3-0.5 0.1-0.2 0.2-0.4 0.2-0.5 0.1-0.2 0.2-0.4 0.2-0.5 0.1-0.2 0.1-0.4 0.2-0.5 0.1-0.2 0.1-0.4 0.2-0.5 0.1-0.2 0.1-0.4 0.2-0.5s0.1-0.4 0.2-0.5c0.1-0.2 0.1-0.4 0.2-0.5 0.1-0.2 0.1-0.4 0.1-0.5 0-0.2 0.1-0.4 0.1-0.5 0-0.2 0.1-0.4 0.1-0.5 0-0.2 0.1-0.4 0.1-0.5 0-0.2 0.1-0.4 0.1-0.5s0.1-0.4 0.1-0.5c0-0.2 0.1-0.4 0.1-0.5 0-0.2 0.1-0.4 0.1-0.5 0-0.2 0-0.4 0.1-0.5 0-0.2 0-0.3 0.1-0.5v-0.5s0-0.3 0-0.5 0-0.3 0-0.5 0-0.3 0-0.5 0-0.3 0-0.5v-0.3s0-0.2 0-0.3v-0.5s0-0.3 0-0.5 0-0.3 0-0.5 0-0.3 0-0.5 0-0.3 0-0.5 0-0.3-0.1-0.5c0-0.2 0-0.4-0.1-0.5 0-0.2 0-0.4-0.1-0.5 0-0.2-0.1-0.4-0.1-0.5 0-0.2-0.1-0.4-0.1-0.5 0-0.2-0.1-0.4-0.1-0.5 0-0.2-0.1-0.4-0.1-0.5 0-0.2-0.1-0.4-0.1-0.5 0-0.2-0.1-0.4-0.1-0.5 0-0.2-0.1-0.4-0.1-0.5-0.1-0.2-0.1-0.4-0.2-0.5-0.1-0.2-0.1-0.4-0.2-0.5s-0.2-1.8-0.2-2c-0.1-0.2-0.1-0.4-0.2-0.5-0.1-0.2-0.1-0.4-0.2-0.5-0.1-0.2-0.2-0.4-0.2-0.5s-0.2-0.4-0.2-0.5c-0.1-0.2-0.2-0.4-0.3-0.5-0.1-0.2-0.2-0.4-0.3-0.5-0.1-0.2-0.2-0.4-0.3-0.5-0.1-0.2-0.2-0.4-0.3-0.5-0.1-0.2-0.2-0.4-0.3-0.5-0.1-0.2-0.2-0.4-0.4-0.5-0.1-0.2-0.2-0.4-0.4-0.5-0.1-0.2-0.3-0.4-0.4-0.5 0.1-0.2 0.2-0.3 0.4-0.5 0.1-0.2 0.2-0.3 0.3-0.4s0.2-0.3 0.3-0.4 0.2-0.3 0.3-0.4 0.2-0.2 0.3-0.4c0.1-0.1 0.2-0.2 0.3-0.4 0.1-0.1 0.2-0.2 0.3-0.4 0.1-0.1 0.2-0.3 0.3-0.4s0.2-0.3 0.3-0.4c0.1-0.1 0.2-0.3 0.3-0.4 0.1-0.2 0.2-0.3 0.4-0.5 0.1 0.2 0.3 0.4 0.4 0.5 0.1 0.2 0.3 0.4 0.4 0.5 0.1 0.2 0.2 0.4 0.4 0.5 0.1 0.2 0.2 0.4 0.3 0.5 0.1 0.2 0.2 0.4 0.3 0.5 0.1 0.2 0.2 0.4 0.3 0.5 0.1 0.2 0.2 0.4 0.3 0.5 0.1 0.2 0.2 0.4 0.3 0.5 0.1 0.2 0.2 0.4 0.3 0.5 0.1 0.2 0.2 0.4 0.3 0.5 0.1 0.2 0.2 0.4 0.2 0.5 0.1 0.2 0.2 0.4 0.2 0.5 0.1 0.2 0.2 0.4 0.2 0.5 0.1 0.2 0.1 0.4 0.2 0.5 0.1 0.2 0.1 0.4 0.2 0.5 0.1 0.2 0.1 0.4 0.2 0.5 0.1 0.2 0.1 0.4 0.2 0.5 0.1 0.2 0.1 0.4 0.2 0.5 0.1 0.2 0.1 0.4 0.2 0.5 0.1 0.2 0.1 0.4 0.2 0.5 0 0.2 0.1 0.4 0.1 0.5 0 0.2 0.1 0.4 0.1 0.5 0 0.2 0.1 0.4 0.1 0.5 0 0.2 0.1 0.4 0.1 0.5 0 0.2 0.1 0.4 0.1 0.5 0 0.2 0.1 0.4 0.1 0.5 0 0.2 0.1 0.4 0.1 0.5 0 0.2 0.1 0.3 0.1 0.5s0.1 0.3 0.1 0.5 0 0.3 0.1 0.5c0 0.2 0 0.3 0.1 0.5 0 0.2 0 0.3 0.1 0.5v0.5s0 0.3 0 0.5 0 0.3 0 0.5 0 0.3 0 0.5 0 0.3 0 0.5 0 0.3 0 0.5 0 0.3 0 0.5 0 0.3 0 0.5 0 0.3 0 0.5 0 0.3 0 0.5 0 0.3 0 0.5 0 0.3 0 0.5 0 0.3 0 0.5 0 0.3 0 0.5 0 0.3-0.1 0.5c0 0.2 0 0.3-0.1 0.5 0 0.2 0 0.3-0.1 0.5 0 0.2 0 0.3-0.1 0.5 0 0.2-0.1 0.3-0.1 0.5s-0.1 0.4-0.1 0.5c0 0.2-0.1 0.4-0.1 0.5 0 0.2-0.1 0.4-0.1 0.5 0 0.2-0.1 0.4-0.1 0.5 0 0.2-0.1 0.4-0.1 0.5 0 0.2-0.1 0.4-0.1 0.5 0 0.2-0.1 0.4-0.1 0.5 0 0.2-0.1 0.4-0.2 0.5-0.1 0.2-0.1 0.4-0.2 0.5-0.1 0.2-0.1 0.4-0.2 0.5-0.1 0.2-0.1 0.4-0.2 0.5-0.1 0.2-0.1 0.4-0.2 0.5-0.1 0.2-0.1 0.4-0.2 0.5-0.1 0.2-0.1 0.4-0.2 0.5-0.1 0.2-0.1 0.4-0.2 0.5-0.1 0.2-0.2 0.4-0.2 0.5-0.1 0.2-0.2 0.4-0.2 0.5-0.1 0.2-0.2 0.4-0.3 0.5-0.1 0.2-0.2 0.4-0.3 0.5-0.1 0.2-0.2 0.4-0.3 0.5-0.1 0.2-0.2 0.4-0.3 0.5-0.1 0.2-0.2 0.4-0.3 0.5-0.1 0.2-0.2 0.4-0.3 0.5-0.1 0.2-0.2 0.4-0.3 0.5-0.1 0.2-0.2 0.4-0.4 0.5-0.1 0.2-0.2 0.4-0.4 0.5-0.1 0.2-0.3 0.4-0.4 0.5-0.1-0.2-0.2-0.3-0.4-0.5-0.1-0.2-0.2-0.3-0.3-0.4s-0.2-0.3-0.3-0.4-0.2-0.3-0.3-0.4-0.2-0.2-0.3-0.4c-0.1-0.1-0.2-0.2-0.3-0.4-0.1-0.1-0.2-0.2-0.3-0.4-0.1-0.1-0.2-0.3-0.3-0.4s-0.2-0.3-0.3-0.4-0.2-0.3-0.3-0.4c-0.2 2.1-0.3 1.9-0.4 1.8 0.1 0.2 0.2 0.4 0.3 0.5 0.1 0.2 0.2 0.3 0.3 0.4s0.2 0.3 0.3 0.4 0.2 0.3 0.3 0.4 0.2 0.2 0.3 0.4c0.1 0.1 0.2 0.2 0.3 0.4 0.1 0.1 0.2 0.2 0.3 0.4 0.1 0.1 0.2 0.3 0.3 0.4s0.2 0.3 0.3 0.4 0.2 0.3 0.3 0.4c0.1 0.2 0.2 0.3 0.4 0.5 0.1-0.2 0.3-0.4 0.4-0.5 0.1-0.2 0.3-0.4 0.4-0.5 0.1-0.2 0.2-0.4 0.4-0.5 0.1-0.2 0.2-0.4 0.3-0.5 0.1-0.2 0.2-0.4 0.3-0.5 0.1-0.2 0.2-0.4 0.3-0.5 0.1-0.2 0.2-0.4 0.3-0.5 0.1-0.2 0.2-0.4 0.3-0.5 0.1-0.2 0.2-0.4 0.3-0.5 0.1-0.2 0.2-0.4 0.3-0.5 0.1-0.2 0.2-0.4 0.2-0.5 0.1-0.2 0.2-0.4 0.2-0.5 0.1-0.2 0.2-0.4 0.2-0.5 0.1-0.2 0.1-0.4 0.2-0.5 0.1-0.2 0.1-0.4 0.2-0.5 0.1-0.2 0.1-0.4 0.2-0.5 0.1-0.2 0.1-0.4 0.2-0.5 0.1-0.2 0.1-0.4 0.2-0.5 0.1-0.2 0.1-0.4 0.2-0.5 0.1-0.2 0.1-0.4 0.2-0.5 0-0.2 0.1-0.4 0.1-0.5 0-0.2 0.1-0.4 0.1-0.5 0-0.2 0.1-0.4 0.1-0.5 0-0.2 0.1-0.4 0.1-0.5 0-0.2 0.1-0.4 0.1-0.5 0-0.2 0.1-0.4 0.1-0.5 0-0.2 0.1-0.4 0.1-0.5 0-0.2 0.1-0.4 0.1-0.5 0-0.2 0.1-0.4 0.1-0.5 0-0.2 0-0.4 0.1-0.5 0-0.2 0-0.3 0.1-0.5 0-0.2 0-0.3 0.1-0.5v-0.5s0-0.3 0-0.5 0-0.3 0-0.5 0-0.3 0-0.5 0-0.3 0-0.5 0-0.3 0-0.5 0-0.3 0-0.5 0-0.3 0-0.5 0-0.3 0-0.5 0-0.3 0-0.5 0-0.3 0-0.5 0-0.3 0-0.5 0-0.3 0-0.5 0-0.3 0-0.5 0-0.3-0.1-0.5 0-0.3-0.1-0.5c0-0.2 0-0.3-0.1-0.5 0-0.2 0-0.4-0.1-0.5 0-0.2-0.1-0.4-0.1-0.5 0-0.2-0.1-0.4-0.1-0.5 0-0.2-0.1-0.4-0.1-0.5 0-0.2-0.1-0.4-0.1-0.5 0-0.2-0.1-0.4-0.1-0.5 0-0.2-0.1-0.4-0.1-0.5 0-0.2-0.1-0.4-0.1-0.5 0-0.2-0.1-0.4-0.1-0.5 0-0.2-0.1-0.4-0.2-0.5-0.1-0.2-0.1-0.4-0.2-0.5-0.1-0.2-0.1-0.4-0.2-0.5-0.1-0.2-0.1-0.4-0.2-0.5-0.1-0.2-0.1-0.4-0.2-0.5-0.1-0.2-0.1-0.4-0.2-0.5-0.1-0.2-0.1-0.4-0.2-0.5-0.1-0.2-0.1-0.4-0.2-0.5-0.1-0.2-0.2-0.4-0.2-0.5-0.1-0.2-0.2-0.4-0.2-0.5-0.1-0.2-0.2-0.4-0.3-0.5-0.1-0.2-0.2-0.4-0.3-0.5-0.1-0.2-0.2-0.4-0.3-0.5-0.1-0.2-0.2-0.4-0.3-0.5-0.1-0.2-0.2-0.4-0.3-0.5-0.1-0.2-0.2-0.4-0.3-0.5-0.1-0.2-0.2-0.4-0.3-0.5-0.1-0.2-0.2-0.4-0.4-0.5-0.1-0.2-0.2-0.4-0.4-0.5s-0.3-0.4-0.4-0.5c-0.1 0.2-0.2 0.3-0.4 0.5-0.1 0.2-0.2 0.3-0.3 0.4s-0.2 0.3-0.3 0.4-0.2 0.3-0.3 0.4-0.2 0.2-0.3 0.4c-0.1 0.1-0.2 0.2-0.3 0.4-0.1 0.1-0.2 0.2-0.3 0.4-0.1 0.1-0.2 0.3-0.3 0.4s-0.2 0.3-0.3 0.4-0.2 0.3-0.3 0.4c-0.1 0.2-0.2 0.3-0.4 0.5 0.1 0.2 0.3 0.4 0.4 0.5 0.1 0.2 0.2 0.4 0.4 0.5 0.1 0.2 0.2 0.4 0.3 0.5 0.1 0.2 0.2 0.4 0.3 0.5 0.1 0.2 0.2 0.4 0.3 0.5 0.1 0.2 0.2 0.4 0.3 0.5 0.1 0.2 0.2 0.4 0.3 0.5 0.1 0.2 0.2 0.4 0.3 0.5 0.1 0.2 0.2 0.4 0.2 0.5 0.1 0.2 0.2 0.4 0.2 0.5 0.1 0.2 0.1 0.4 0.2 0.5 0.1 0.2 0.1 0.4 0.2 0.5 0.1 0.2 0.1 0.4 0.2 0.5 0.1 0.2 0.1 0.4 0.2 0.5 0.1 0.2 0.1 0.4 0.2 0.5 0.1 0.2 0.1 0.4 0.1 0.5 0 0.2 0.1 0.4 0.1 0.5 0 0.2 0.1 0.4 0.1 0.5 0 0.2 0.1 0.4 0.1 0.5 0 0.2 0.1 0.4 0.1 0.5 0 0.2 0.1 0.4 0.1 0.5 0 0.2 0.1 0.4 0.1 0.5 0 0.2 0.1 0.3 0.1 0.5s0 0.3 0.1 0.5c0 0.2 0 0.3 0.1 0.5v0.5s0 0.3 0 0.5 0 0.3 0 0.5 0 0.3 0 0.5 0 0.3 0 0.5v0.3s0 0.2 0 0.3v0.5s0 0.3 0 0.5 0 0.3 0 0.5 0 0.3 0 0.5 0 0.3 0 0.5 0 0.3-0.1 0.5c0 0.2 0 0.3-0.1 0.5 0 0.2 0 0.3-0.1 0.5 0 0.2-0.1 0.3-0.1 0.5s-0.1 0.4-0.1 0.5c0 0.2-0.1 0.4-0.1 0.5 0 0.2-0.1 0.4-0.1 0.5 0 0.2-0.1 0.4-0.1 0.5 0 0.2-0.1 0.4-0.1 0.5 0 0.2-0.1 0.4-0.1 0.5-0.1 0.2-0.1 0.4-0.2 0.5-0.1 0.2-0.1 0.4-0.2 0.5-0.1 0.2-0.1 0.4-0.2 0.5-0.1 0.2-0.1 0.4-0.2 0.5-0.1 0.2-0.1 0.4-0.2 0.5-0.1 0.2-0.1 0.4-0.2 0.5-0.1 0.2-0.2 0.4-0.2 0.5-0.1 0.2-0.2 0.4-0.3 0.5-0.1 0.2-0.2 0.4-0.3 0.5-0.1 0.2-0.2 0.4-0.3 0.5-0.1 0.2-0.2 0.4-0.3 0.5-0.1 0.2-0.2 0.4-0.3 0.5-0.1 0.2-0.2 0.4-0.3 0.5-0.1 0.2-0.2 0.4-0.4 0.5-0.1-0.7-0.2-0.5-0.3-0.3z"/></g>
	<g id="change1_269"><path fill="#00ffff" id="XMLID_9519_" d="m62.6 26.5c0.1-0.2 0.1-0.3 0.3-0.4v0.1l-0.3 0.3z"/></g>
	<g id="change1_270"><path fill="#00ffff" id="XMLID_9518_" d="m63.8 28.6v0c0.1-0.2 0.2-0.2 0.3-0.4v0.1l-0.3 0.3z"/></g>
	<g id="change1_271"><path fill="#00ffff" id="XMLID_9517_" d="m62.8 26.7s0-0.1-0.1-0.1l0.2-0.2s0 0.1 0.1 0.1l-0.2 0.2z"/></g>
	<g id="change1_272"><path fill="#00ffff" id="XMLID_9516_" d="m62.9 27s0-0.1-0.1-0.1l0.2-0.2s0 0.1 0.1 0.1c-0.1 0-0.1 0.1-0.2 0.2z"/></g>
	<g id="change1_273"><path fill="#00ffff" id="XMLID_9515_" d="m63.1 27.2s0-0.1-0.1-0.1l0.2-0.2s0 0.1 0.1 0.1c-0.1 0.1-0.2 0.1-0.2 0.2z"/></g>
	<g id="change1_274"><path fill="#00ffff" id="XMLID_9514_" d="m63.2 27.4s0-0.1-0.1-0.1l0.2-0.2s0 0.1 0.1 0.1c-0.1 0.1-0.1 0.2-0.2 0.2z"/></g>
	<g id="change1_275"><path fill="#00ffff" id="XMLID_9513_" d="m63.3 27.7s0-0.1-0.1-0.1l0.2-0.2s0 0.1 0.1 0.1l-0.2 0.2z"/></g>
	<g id="change1_276"><path fill="#00ffff" id="XMLID_9512_" d="m63.5 27.9s0-0.1-0.1-0.1l0.2-0.2s0 0.1 0.1 0.1c-0.1 0.1-0.2 0.1-0.2 0.2z"/></g>
	<g id="change1_277"><path fill="#00ffff" id="XMLID_9511_" d="m63.6 28.1s0-0.1-0.1-0.1l0.2-0.2s0 0.1 0.1 0.1c-0.1 0.1-0.1 0.2-0.2 0.2z"/></g>
	<g id="change1_278"><path fill="#00ffff" id="XMLID_9510_" d="m63.7 28.4s0-0.1-0.1-0.1l0.2-0.2s0 0.1 0.1 0.1l-0.2 0.2z"/></g>
	<g id="change1_279"><path fill="#00ffff" id="XMLID_9509_" d="m63.9 28.6s-0.1 0 0 0c0.1-0.2 0.2-0.2 0.3-0.4v0.1l-0.3 0.3z"/></g>
	<g id="change1_280"><path fill="#00ffff" id="XMLID_9508_" d="m64.9 30.8c0.1-0.2 0.2-0.2 0.3-0.3v0.1c-0.1 0-0.2 0.1-0.3 0.2z"/></g>
	<g id="change1_281"><path fill="#00ffff" id="XMLID_9507_" d="m64 28.9s0-0.1-0.1-0.1l0.2-0.2s0 0.1 0.1 0.1l-0.2 0.2z"/></g>
	<g id="change1_282"><path fill="#00ffff" id="XMLID_9506_" d="m64.1 29.1s0-0.1-0.1-0.1l0.2-0.2s0 0.1 0.1 0.1l-0.2 0.2z"/></g>
	<g id="change1_283"><path fill="#00ffff" id="XMLID_9505_" d="m64.2 29.3s0-0.1-0.1-0.1l0.2-0.2s0 0.1 0.1 0.1c0 0.2-0.1 0.2-0.2 0.2z"/></g>
	<g id="change1_284"><path fill="#00ffff" id="XMLID_9504_" d="m64.4 29.6s0-0.1-0.1-0.1l0.2-0.2s0 0.1 0.1 0.1c-0.1 0.1-0.2 0.1-0.2 0.2z"/></g>
	<g id="change1_285"><path fill="#00ffff" id="XMLID_9503_" d="m64.5 29.8s0-0.1-0.1-0.1l0.2-0.2c0 0.1 0 0.1 0.1 0.1-0.1 0.2-0.1 0.2-0.2 0.2z"/></g>
	<g id="change1_286"><path fill="#00ffff" id="XMLID_9502_" d="m64.6 30.1c0-0.1 0-0.1-0.1-0.1l0.2-0.2c0 0.1 0 0.1 0.1 0.1l-0.2 0.2z"/></g>
	<g id="change1_287"><path fill="#00ffff" id="XMLID_9501_" d="m64.7 30.3c0-0.1 0-0.1-0.1-0.1 0.1-0.1 0.1-0.1 0.2-0.1 0 0.1 0 0.1 0.1 0.1-0.1 0.1-0.1 0.1-0.2 0.1z"/></g>
	<g id="change1_288"><path fill="#00ffff" id="XMLID_9500_" d="m64.8 30.6c0-0.1 0-0.1-0.1-0.1 0.1-0.1 0.1-0.1 0.2-0.1 0 0.1 0 0.1 0.1 0.1-0.1 0-0.1 0-0.2 0.1z"/></g>
	<g id="change1_289"><path fill="#00ffff" id="XMLID_9499_" d="m64.9 30.9v0c0.1-0.2 0.2-0.2 0.3-0.3v0.1c-0.1 0-0.1 0.1-0.3 0.2z"/></g>
	<g id="change1_290"><path fill="#00ffff" id="XMLID_9498_" d="m65.7 33.1c0.1-0.1 0.2-0.2 0.4-0.3v0.1c-0.1 0.1-0.2 0.2-0.4 0.2z"/></g>
	<g id="change1_291"><path fill="#00ffff" id="XMLID_9497_" d="m65 31.1c0-0.1 0-0.1-0.1-0.1 0.1-0.1 0.1-0.1 0.2-0.1 0 0.1 0 0.1 0.1 0.1-0.1 0-0.1 0.1-0.2 0.1z"/></g>
	<g id="change1_292"><path fill="#00ffff" id="XMLID_9496_" d="m65.1 31.4c0-0.1 0-0.1-0.1-0.1 0.1-0.1 0.1-0.1 0.2-0.1 0 0.1 0 0.1 0.1 0.1-0.1 0-0.1 0-0.2 0.1z"/></g>
	<g id="change1_293"><path fill="#00ffff" id="XMLID_9495_" d="m65.2 31.6v-0.1c0.1-0.1 0.1-0.1 0.2-0.1v0.1c-0.1 0.1-0.1 0.1-0.2 0.1z"/></g>
	<g id="change1_294"><path fill="#00ffff" id="XMLID_9494_" d="m65.3 31.9v0c0.1-0.2 0.1-0.2 0.2-0.2v0.1c-0.1 0-0.1 0-0.2 0.1z"/></g>
	<g id="change1_295"><path fill="#00ffff" id="XMLID_9493_" d="m65.4 32.1v0c0.1-0.2 0.1-0.2 0.2-0.2v0.1c-0.1 0.1-0.1 0.1-0.2 0.1z"/></g>
	<g id="change1_296"><path fill="#00ffff" id="XMLID_9492_" d="m65.5 32.4v0c0.1-0.1 0.1-0.2 0.2-0.2v0.1c-0.1 0-0.1 0.1-0.2 0.1z"/></g>
	<g id="change1_297"><path fill="#00ffff" id="XMLID_9491_" d="m65.6 32.7v0c0.1-0.1 0.1-0.2 0.2-0.2v0.1c-0.1 0-0.1 0-0.2 0.1z"/></g>
	<g id="change1_298"><path fill="#00ffff" id="XMLID_9490_" d="m65.7 32.9v0c0.1-0.1 0.1-0.2 0.2-0.2v0.1c-0.1 0.1-0.1 0.1-0.2 0.1z"/></g>
	<g id="change1_299"><path fill="#00ffff" id="XMLID_9489_" d="m65.7 33.2c0.1-0.1 0.2-0.2 0.4-0.3v0.1c-0.1 0.1-0.2 0.1-0.4 0.2z"/></g>
	<g id="change1_300"><path fill="#00ffff" id="XMLID_9488_" d="m66.4 35.6v0c0.1-0.1 0.2-0.2 0.4-0.2v0.1c-0.2 0-0.3 0-0.4 0.1z"/></g>
	<g id="change1_301"><path fill="#00ffff" id="XMLID_9487_" d="m65.8 33.5v0c0.1-0.1 0.1-0.2 0.2-0.2v0.1s-0.1 0-0.2 0.1z"/></g>
	<g id="change1_302"><path fill="#00ffff" id="XMLID_9486_" d="m65.9 33.7v0c0.1-0.1 0.1-0.2 0.2-0.2v0.1c-0.1 0.1-0.1 0.1-0.2 0.1z"/></g>
	<g id="change1_303"><path fill="#00ffff" id="XMLID_9485_" d="m66 34v0c0.1-0.1 0.1-0.2 0.2-0.2v0.1c-0.1 0-0.1 0.1-0.2 0.1z"/></g>
	<g id="change1_304"><path fill="#00ffff" id="XMLID_9484_" d="m66.1 34.3v0c0.1-0.1 0.1-0.2 0.2-0.2v0.1c-0.1 0-0.2 0-0.2 0.1z"/></g>
	<g id="change1_305"><path fill="#00ffff" id="XMLID_9483_" d="m66.1 34.5v0c0.1-0.1 0.1-0.2 0.2-0.2v0.1c0 0.1-0.1 0.1-0.2 0.1z"/></g>
	<g id="change1_306"><path fill="#00ffff" id="XMLID_9482_" d="m66.2 34.8v0c0.1-0.1 0.1-0.2 0.2-0.2v0.1c-0.1 0.1-0.1 0.1-0.2 0.1z"/></g>
	<g id="change1_307"><path fill="#00ffff" id="XMLID_9481_" d="m66.3 35.1v0c0.1-0.1 0.1-0.2 0.2-0.2v0.1c-0.1 0-0.2 0.1-0.2 0.1z"/></g>
	<g id="change1_308"><path fill="#00ffff" id="XMLID_9480_" d="m66.3 35.4v0c0.1-0.1 0.1-0.2 0.2-0.2v0.1s-0.1 0-0.2 0.1z"/></g>
	<g id="change1_309"><path fill="#00ffff" id="XMLID_9479_" d="m66.4 35.6c0.1-0.1 0.2-0.2 0.4-0.2v0.1c-0.2 0.1-0.3 0.1-0.4 0.1z"/></g>
	<g id="change1_310"><path fill="#00ffff" id="XMLID_9478_" d="m66.8 38.1v0l0.4-0.2v0.1c-0.2 0-0.2 0-0.4 0.1z"/></g>
	<g id="change1_311"><path fill="#00ffff" id="XMLID_9477_" d="m66.4 35.9v0l0.2-0.2v0.1c0 0.1-0.1 0.1-0.2 0.1z"/></g>
	<g id="change1_312"><path fill="#00ffff" id="XMLID_9476_" d="m66.5 36.2v0l0.2-0.2v0.1c-0.1 0-0.1 0.1-0.2 0.1z"/></g>
	<g id="change1_313"><path fill="#00ffff" id="XMLID_9475_" d="m66.5 36.5v0l0.2-0.2v0.1s-0.1 0-0.2 0.1z"/></g>
	<g id="change1_314"><path fill="#00ffff" id="XMLID_9474_" d="m66.6 36.7v0l0.2-0.2v0.1c-0.1 0.1-0.1 0.1-0.2 0.1z"/></g>
	<g id="change1_315"><path fill="#00ffff" id="XMLID_9473_" d="m66.6 37v0l0.2-0.2v0.1c0 0.1-0.1 0.1-0.2 0.1z"/></g>
	<g id="change1_316"><path fill="#00ffff" id="XMLID_9472_" d="m66.7 37.3v0l0.2-0.2v0.1c-0.1 0.1-0.1 0.1-0.2 0.1z"/></g>
	<g id="change1_317"><path fill="#00ffff" id="XMLID_9471_" d="m66.7 37.6v0l0.2-0.2v0.1s-0.1 0-0.2 0.1z"/></g>
	<g id="change1_318"><path fill="#00ffff" id="XMLID_9470_" d="m66.8 37.9v0l0.2-0.2v0.1c-0.1 0-0.1 0-0.2 0.1z"/></g>
	<g id="change1_319"><path fill="#00ffff" id="XMLID_9469_" d="m66.8 38.1l0.4-0.2v0.1c-0.2 0.1-0.2 0.1-0.4 0.1z"/></g>
	<g id="change1_320"><path fill="#00ffff" id="XMLID_9468_" d="m67 40.6v0c0.2-0.1 0.2-0.1 0.4-0.1v0.1h-0.4z"/></g>
	<g id="change1_321"><path fill="#00ffff" id="XMLID_9467_" d="m66.8 38.4v0c0.1-0.1 0.1-0.1 0.2-0.1v0.1s-0.1 0-0.2 0z"/></g>
	<g id="change1_322"><path fill="#00ffff" id="XMLID_9466_" d="m66.9 38.7v0c0.1-0.1 0.1-0.1 0.2-0.1v0.1h-0.2z"/></g>
	<g id="change1_323"><path fill="#00ffff" id="XMLID_9465_" d="m66.9 39v0c0.1-0.1 0.1-0.1 0.2-0.1v0.1c-0.1-0.1-0.1 0-0.2 0z"/></g>
	<g id="change1_324"><path fill="#00ffff" id="XMLID_9464_" d="m66.9 39.3v0c0.1-0.1 0.1-0.1 0.2-0.1v0.1c0-0.1-0.1-0.1-0.2 0z"/></g>
	<g id="change1_325"><path fill="#00ffff" id="XMLID_9463_" d="m66.9 39.5v0c0.1-0.1 0.1-0.1 0.2-0.1v0.1s-0.1 0-0.2 0z"/></g>
	<g id="change1_326"><path fill="#00ffff" id="XMLID_9462_" d="m67 39.8v0c0.1-0.1 0.1-0.1 0.2-0.1v0.1h-0.2z"/></g>
	<g id="change1_327"><path fill="#00ffff" id="XMLID_9461_" d="m67 40.1v0c0.1-0.1 0.1-0.1 0.2-0.1v0.1h-0.2z"/></g>
	<g id="change1_328"><path fill="#00ffff" id="XMLID_9460_" d="m67 40.4v0c0.1-0.1 0.1-0.1 0.2-0.1v0.1h-0.2z"/></g>
	<g id="change1_329"><path fill="#00ffff" id="XMLID_9459_" d="m67 40.7v0c0.2-0.1 0.2-0.1 0.4-0.1v0.1c-0.1-0.1-0.2-0.1-0.4 0z"/></g>
	<g id="change1_330"><path fill="#00ffff" id="XMLID_9458_" d="m67 43.1c0.2-0.1 0.2-0.1 0.4 0v0.1c-0.1-0.1-0.2-0.1-0.4-0.1z"/></g>
	<g id="change1_331"><path fill="#00ffff" id="XMLID_9457_" d="m67 40.9v0c0.1-0.1 0.1-0.1 0.2-0.1v0.1s-0.1 0-0.2 0z"/></g>
	<g id="change1_332"><path fill="#00ffff" id="XMLID_9456_" d="m67 41.2v0c0.1-0.1 0.1-0.1 0.2-0.1v0.1s-0.1 0-0.2 0z"/></g>
	<g id="change1_333"><path fill="#00ffff" id="XMLID_9455_" d="m67 41.5v0c0.1-0.1 0.1-0.1 0.2-0.1v0.1s-0.1 0-0.2 0z"/></g>
	<g id="change1_334"><path fill="#00ffff" id="XMLID_9454_" d="m67 41.8v0c0.1-0.1 0.1-0.1 0.2-0.1v0.1s-0.1 0-0.2 0z"/></g>
	<g id="change1_335"><path fill="#00ffff" id="XMLID_9453_" d="m67 42.1v0c0.1-0.1 0.1-0.1 0.2-0.1v0.1s-0.1 0-0.2 0z"/></g>
	<g id="change1_336"><path fill="#00ffff" id="XMLID_9452_" d="m67 42.4v0c0.1-0.1 0.1-0.1 0.2-0.1v0.1s-0.1 0-0.2 0z"/></g>
	<g id="change1_337"><path fill="#00ffff" id="XMLID_9451_" d="m67 42.6v0c0.1-0.1 0.1-0.1 0.2-0.1v0.1s-0.1 0-0.2 0z"/></g>
	<g id="change1_338"><path fill="#00ffff" id="XMLID_9450_" d="m67 42.9v0c0.1-0.1 0.1-0.1 0.2-0.1v0.1s-0.1 0-0.2 0z"/></g>
	<g id="change1_339"><path fill="#00ffff" id="XMLID_9449_" d="m67 43.2c0.2-0.1 0.2-0.1 0.4 0v0.1c-0.1-0.1-0.2-0.1-0.4-0.1z"/></g>
	<g id="change1_340"><path fill="#00ffff" id="XMLID_9448_" d="m66.8 45.7v0h0.4v0.1c-0.1-0.1-0.2-0.1-0.4-0.1z"/></g>
	<g id="change1_341"><path fill="#00ffff" id="XMLID_9447_" d="m67 43.5v0c0.1-0.1 0.1-0.1 0.2-0.1v0.1s-0.1 0-0.2 0z"/></g>
	<g id="change1_342"><path fill="#00ffff" id="XMLID_9446_" d="m67 43.8v0c0.1-0.1 0.1-0.1 0.2-0.1v0.1h-0.2z"/></g>
	<g id="change1_343"><path fill="#00ffff" id="XMLID_9445_" d="m67 44v0c0.1-0.1 0.1-0.1 0.2-0.1v0.1c-0.1 0.1-0.1 0.1-0.2 0z"/></g>
	<g id="change1_344"><path fill="#00ffff" id="XMLID_9444_" d="m67 44.3v0c0.1-0.1 0.1-0.1 0.2-0.1v0.1h-0.2z"/></g>
	<g id="change1_345"><path fill="#00ffff" id="XMLID_9443_" d="m66.9 44.6v0c0.1-0.1 0.1-0.1 0.2-0.1v0.1s-0.1 0-0.2 0z"/></g>
	<g id="change1_346"><path fill="#00ffff" id="XMLID_9442_" d="m66.9 44.9v0c0.1-0.1 0.1-0.1 0.2-0.1v0.1s-0.1 0-0.2 0z"/></g>
	<g id="change1_347"><path fill="#00ffff" id="XMLID_9441_" d="m66.9 45.2v0c0.1-0.1 0.1-0.1 0.2-0.1v0.1h-0.2z"/></g>
	<g id="change1_348"><path fill="#00ffff" id="XMLID_9440_" d="m66.9 45.5v0c0.1-0.1 0.1-0.1 0.2-0.1v0.1h-0.2z"/></g>
	<g id="change1_349"><path fill="#00ffff" id="XMLID_9439_" d="m66.8 45.7h0.4v0.1c-0.1 0-0.2 0-0.4-0.1z"/></g>
	<g id="change1_350"><path fill="#00ffff" id="XMLID_9438_" d="m66.4 48.2v0c0.2 0 0.3 0 0.4 0.1v0.1c-0.1-0.2-0.2-0.2-0.4-0.2z"/></g>
	<g id="change1_351"><path fill="#00ffff" id="XMLID_9437_" d="m66.8 46v0c0.1-0.1 0.1-0.1 0.2-0.1v0.1h-0.2z"/></g>
	<g id="change1_352"><path fill="#00ffff" id="XMLID_9436_" d="m66.8 46.3v0c0.1-0.1 0.1-0.1 0.2 0v0.1c-0.1-0.1-0.2-0.1-0.2-0.1z"/></g>
	<g id="change1_353"><path fill="#00ffff" id="XMLID_9435_" d="m66.7 46.6v0c0.1-0.1 0.1-0.1 0.2 0v0.1c0-0.1-0.1-0.1-0.2-0.1z"/></g>
	<g id="change1_354"><path fill="#00ffff" id="XMLID_9434_" d="m66.7 46.8v0c0.1-0.1 0.1-0.1 0.2 0v0.1c-0.1 0-0.1 0-0.2-0.1z"/></g>
	<g id="change1_355"><path fill="#00ffff" id="XMLID_9433_" d="m66.6 47.1v0c0.1-0.1 0.1-0.1 0.2 0v0.1s-0.1-0.1-0.2-0.1z"/></g>
	<g id="change1_356"><path fill="#00ffff" id="XMLID_9432_" d="m66.6 47.4v0c0.1-0.1 0.1-0.1 0.2 0v0.1c-0.1-0.1-0.1-0.1-0.2-0.1z"/></g>
	<g id="change1_357"><path fill="#00ffff" id="XMLID_9431_" d="m66.5 47.7v0c0.1-0.1 0.1-0.1 0.2 0v0.1c0-0.1-0.1-0.1-0.2-0.1z"/></g>
	<g id="change1_358"><path fill="#00ffff" id="XMLID_9430_" d="m66.5 48v0c0.1-0.1 0.1-0.1 0.2 0v0.1c-0.1-0.1-0.1-0.1-0.2-0.1z"/></g>
	<g id="change1_359"><path fill="#00ffff" id="XMLID_9429_" d="m66.4 48.2c0.2 0 0.3 0 0.4 0.1v0.1c-0.1-0.1-0.2-0.1-0.4-0.2z"/></g>
	<g id="change1_360"><path fill="#00ffff" id="XMLID_9428_" d="m65.8 50.6c0.2 0 0.2 0 0.4 0.1v0.1c-0.1-0.1-0.2-0.1-0.4-0.2z"/></g>
	<g id="change1_361"><path fill="#00ffff" id="XMLID_9427_" d="m66.4 48.5v0c0.1-0.1 0.1-0.1 0.2 0v0.1c-0.1 0-0.1-0.1-0.2-0.1z"/></g>
	<g id="change1_362"><path fill="#00ffff" id="XMLID_9426_" d="m66.3 48.8v0c0.1-0.1 0.1-0.1 0.2 0v0.1c-0.1-0.1-0.1-0.1-0.2-0.1z"/></g>
	<g id="change1_363"><path fill="#00ffff" id="XMLID_9425_" d="m66.2 49v0c0.1-0.1 0.1 0 0.2 0v0.1s-0.1 0-0.2-0.1z"/></g>
	<g id="change1_364"><path fill="#00ffff" id="XMLID_9424_" d="m66.2 49.3v0c0.1-0.1 0.1 0 0.2 0v0.1c-0.1 0-0.1 0-0.2-0.1z"/></g>
	<g id="change1_365"><path fill="#00ffff" id="XMLID_9423_" d="m66.1 49.6v0c0.1-0.1 0.1 0 0.2 0v0.1c-0.1-0.1-0.1-0.1-0.2-0.1z"/></g>
	<g id="change1_366"><path fill="#00ffff" id="XMLID_9422_" d="m66 49.9v0c0.1-0.1 0.1 0 0.2 0v0.1c0-0.1-0.1-0.1-0.2-0.1z"/></g>
	<g id="change1_367"><path fill="#00ffff" id="XMLID_9421_" d="m66 50.1v0c0.1-0.1 0.1 0 0.2 0v0.1c-0.1 0-0.1 0-0.2-0.1z"/></g>
	<g id="change1_368"><path fill="#00ffff" id="XMLID_9420_" d="m65.9 50.4v0c0.1-0.1 0.1 0 0.2 0v0.1c-0.1 0-0.1-0.1-0.2-0.1z"/></g>
	<g id="change1_369"><path fill="#00ffff" id="XMLID_9419_" d="m65.8 50.7v0c0.2 0 0.2 0 0.4 0.1v0.1c-0.2-0.1-0.2-0.2-0.4-0.2z"/></g>
	<g id="change1_370"><path fill="#00ffff" id="XMLID_9418_" d="m65 53v0c0.2 0 0.2 0.1 0.4 0.2v0.1c-0.2-0.2-0.2-0.2-0.4-0.3z"/></g>
	<g id="change1_371"><path fill="#00ffff" id="XMLID_9417_" d="m65.7 50.9v0c0.1-0.1 0.1 0 0.2 0v0.1s-0.1 0-0.2-0.1z"/></g>
	<g id="change1_372"><path fill="#00ffff" id="XMLID_9416_" d="m65.6 51.2v0c0.1-0.1 0.1 0 0.2 0v0.1s-0.1-0.1-0.2-0.1z"/></g>
	<g id="change1_373"><path fill="#00ffff" id="XMLID_9415_" d="m65.6 51.5v0c0.1-0.1 0.1 0 0.2 0v0.1c-0.1-0.1-0.2-0.1-0.2-0.1z"/></g>
	<g id="change1_374"><path fill="#00ffff" id="XMLID_9414_" d="m65.5 51.7v0c0.1-0.1 0.1 0 0.2 0v0.1c-0.1 0-0.1 0-0.2-0.1z"/></g>
	<g id="change1_375"><path fill="#00ffff" id="XMLID_9413_" d="m65.4 52v0c0.1-0.1 0.1 0 0.2 0v0.1c-0.1 0-0.1-0.1-0.2-0.1z"/></g>
	<g id="change1_376"><path fill="#00ffff" id="XMLID_9412_" d="m65.3 52.2v0h0.2v0.1c-0.1 0-0.1 0-0.2-0.1z"/></g>
	<g id="change1_377"><path fill="#00ffff" id="XMLID_9411_" d="m65.2 52.5v0h0.2v0.1c-0.1 0-0.1 0-0.2-0.1z"/></g>
	<g id="change1_378"><path fill="#00ffff" id="XMLID_9410_" d="m65.1 52.8v0h0.2c0 0.1 0 0.1-0.2 0 0.1 0 0.1 0 0 0z"/></g>
	<g id="change1_379"><path fill="#00ffff" id="XMLID_9409_" d="m65 53c0.2 0 0.2 0.1 0.4 0.2v0.1c-0.2-0.1-0.3-0.2-0.4-0.3z"/></g>
	<g id="change1_380"><path fill="#00ffff" id="XMLID_9408_" d="m64 55.2l0.4 0.2v0.1c-0.2-0.1-0.3-0.2-0.4-0.3z"/></g>
	<g id="change1_381"><path fill="#00ffff" id="XMLID_9407_" d="m64.9 53.3v0h0.3c0 0.1 0 0.1-0.1 0.1s-0.1-0.1-0.2-0.1z"/></g>
	<g id="change1_382"><path fill="#00ffff" id="XMLID_9406_" d="m64.8 53.5v0h0.3c0 0.1 0 0.1-0.1 0.1s-0.1 0-0.2-0.1z"/></g>
	<g id="change1_383"><path fill="#00ffff" id="XMLID_9405_" d="m64.7 53.8v0h0.3c0 0.1 0 0.1-0.1 0.1s-0.1-0.1-0.2-0.1z"/></g>
	<g id="change1_384"><path fill="#00ffff" id="XMLID_9404_" d="m64.6 54v0h0.3c0 0.1 0 0.1-0.1 0.1s-0.2 0-0.2-0.1z"/></g>
	<g id="change1_385"><path fill="#00ffff" id="XMLID_9403_" d="m64.4 54.3v0c0.2 0 0.2 0 0.3 0.1 0 0.1 0 0.1-0.1 0.1 0-0.1-0.1-0.2-0.2-0.2z"/></g>
	<g id="change1_386"><path fill="#00ffff" id="XMLID_9402_" d="m64.3 54.5v0c0.2 0 0.2 0 0.3 0.1 0 0.1 0 0.1-0.1 0.1l-0.2-0.2z"/></g>
	<g id="change1_387"><path fill="#00ffff" id="XMLID_9401_" d="m64.2 54.8v0c0.2 0 0.2 0 0.3 0.1 0 0 0 0.1-0.1 0.1-0.1-0.1-0.1-0.2-0.2-0.2z"/></g>
	<g id="change1_388"><path fill="#00ffff" id="XMLID_9400_" d="m64.1 55v0c0.2 0 0.2 0 0.3 0.1 0 0 0 0.1-0.1 0.1l-0.2-0.2z"/></g>
	<g id="change1_389"><path fill="#00ffff" id="XMLID_9399_" d="m64 55.3v0l0.4 0.2v0.1c-0.2-0.1-0.3-0.2-0.4-0.3z"/></g>
	<g id="change1_390"><path fill="#00ffff" id="XMLID_9398_" d="m62.8 57.3c0.2 0.1 0.2 0.1 0.3 0.3v0.1c-0.1-0.2-0.2-0.2-0.3-0.4z"/></g>
	<g id="change1_391"><path fill="#00ffff" id="XMLID_9397_" d="m63.8 55.5v0c0.2 0 0.2 0 0.3 0.1 0 0 0 0.1-0.1 0.1l-0.2-0.2z"/></g>
	<g id="change1_392"><path fill="#00ffff" id="XMLID_9396_" d="m63.7 55.8v0c0.2 0 0.2 0 0.3 0.1 0 0 0 0.1-0.1 0.1-0.1-0.1-0.1-0.2-0.2-0.2z"/></g>
	<g id="change1_393"><path fill="#00ffff" id="XMLID_9395_" d="m63.6 56v0c0.2 0 0.2 0 0.3 0.1 0 0 0 0.1-0.1 0.1-0.1-0.1-0.2-0.1-0.2-0.2z"/></g>
	<g id="change1_394"><path fill="#00ffff" id="XMLID_9394_" d="m63.4 56.2v0c0.2 0 0.2 0 0.3 0.1 0 0 0 0.1-0.1 0.1 0-0.1-0.1-0.1-0.2-0.2z"/></g>
	<g id="change1_395"><path fill="#00ffff" id="XMLID_9393_" d="m63.3 56.5v0c0.2 0 0.2 0 0.3 0.1 0 0 0 0.1-0.1 0.1-0.1-0.1-0.1-0.2-0.2-0.2z"/></g>
	<g id="change1_396"><path fill="#00ffff" id="XMLID_9392_" d="m63.2 56.7v0c0.2 0 0.2 0 0.3 0.1 0 0 0 0.1-0.1 0.1-0.1-0.1-0.2-0.1-0.2-0.2z"/></g>
	<g id="change1_397"><path fill="#00ffff" id="XMLID_9391_" d="m63 56.9v0c0.2 0 0.2 0 0.3 0.1 0 0 0 0.1-0.1 0.1s-0.1-0.1-0.2-0.2z"/></g>
	<g id="change1_398"><path fill="#00ffff" id="XMLID_9390_" d="m62.9 57.2v0c0.2 0 0.2 0 0.3 0.1 0 0 0 0.1-0.1 0.1l-0.2-0.2z"/></g>
	<g id="change1_399"><path fill="#00ffff" id="XMLID_9389_" d="m65.8 60.6c-0.2-0.1-0.2-0.1-0.4-0.3v-0.1l0.4 0.4z"/></g>
	<g id="change1_400"><path fill="#00ffff" id="XMLID_9388_" d="m67.3 58.1c-0.1 0-0.1 0 0 0-0.2 0-0.2-0.1-0.4-0.2v-0.1c0.2 0.1 0.2 0.2 0.4 0.3z"/></g>
	<g id="change1_401"><path fill="#00ffff" id="XMLID_9387_" d="m66 60.3c0 0.1-0.1 0.1 0 0-0.2 0-0.2 0-0.3-0.1 0-0.1 0.1-0.1 0.1-0.1l0.2 0.2z"/></g>
	<g id="change1_402"><path fill="#00ffff" id="XMLID_9386_" d="m66.2 60c0 0.1-0.1 0.1 0 0-0.2 0-0.2 0-0.3-0.1 0-0.1 0.1-0.1 0.1-0.1 0.1 0.1 0.1 0.2 0.2 0.2z"/></g>
	<g id="change1_403"><path fill="#00ffff" id="XMLID_9385_" d="m66.3 59.7c0 0.1-0.1 0.1 0 0-0.2 0-0.2 0-0.3-0.1 0-0.1 0.1-0.1 0.1-0.1l0.2 0.2z"/></g>
	<g id="change1_404"><path fill="#00ffff" id="XMLID_9384_" d="m66.5 59.5c0 0.1-0.1 0.1 0 0-0.2 0-0.2 0-0.3-0.1 0-0.1 0-0.1 0.1-0.1l0.2 0.2z"/></g>
	<g id="change1_405"><path fill="#00ffff" id="XMLID_9383_" d="m66.7 59.2v0c-0.2 0-0.2 0-0.3-0.1 0-0.1 0-0.1 0.1-0.1l0.2 0.2z"/></g>
	<g id="change1_406"><path fill="#00ffff" id="XMLID_9382_" d="m66.8 58.9v0c-0.2 0-0.2 0-0.3-0.1 0-0.1 0-0.1 0.1-0.1 0.1 0.1 0.2 0.1 0.2 0.2z"/></g>
	<g id="change1_407"><path fill="#00ffff" id="XMLID_9381_" d="m67 58.6v0c-0.2 0-0.2 0-0.3-0.1 0-0.1 0-0.1 0.1-0.1l0.2 0.2z"/></g>
	<g id="change1_408"><path fill="#00ffff" id="XMLID_9380_" d="m67.1 58.3v0c-0.2 0-0.2 0-0.3-0.1 0-0.1 0-0.1 0.1-0.1 0.1 0.1 0.2 0.1 0.2 0.2z"/></g>
	<g id="change1_409"><path fill="#00ffff" id="XMLID_9379_" d="m67.3 58c-0.2 0-0.2-0.1-0.4-0.2v-0.1c0.2 0.1 0.3 0.2 0.4 0.3z"/></g>
	<g id="change1_410"><path fill="#00ffff" id="XMLID_9378_" d="m68.5 55.3v0c-0.2 0-0.2-0.1-0.4-0.2v-0.1c0.2 0.2 0.3 0.2 0.4 0.3z"/></g>
	<g id="change1_411"><path fill="#00ffff" id="XMLID_9377_" d="m67.4 57.7v0c-0.2 0-0.2 0-0.3-0.1 0-0.1 0-0.1 0.1-0.1 0.1 0.1 0.2 0.1 0.2 0.2z"/></g>
	<g id="change1_412"><path fill="#00ffff" id="XMLID_9376_" d="m67.6 57.4c0 0.1 0 0.1-0.1 0.2l-0.2-0.2c0-0.1 0-0.1 0.1-0.1s0.1 0 0.2 0.1z"/></g>
	<g id="change1_413"><path fill="#00ffff" id="XMLID_9375_" d="m67.7 57.1c0 0.1 0 0.1-0.1 0.2l-0.2-0.2c0-0.1 0-0.1 0.1-0.1s0.2 0 0.2 0.1z"/></g>
	<g id="change1_414"><path fill="#00ffff" id="XMLID_9374_" d="m67.9 56.8c0 0.1 0 0.1-0.1 0.2l-0.2-0.2c0-0.1 0-0.1 0.1-0.2l0.2 0.2z"/></g>
	<g id="change1_415"><path fill="#00ffff" id="XMLID_9373_" d="m68 56.5c0 0.1 0 0.1-0.1 0.2-0.1-0.1-0.1-0.1-0.2-0.1 0-0.1 0-0.1 0.1-0.2 0.1 0 0.1 0 0.2 0.1z"/></g>
	<g id="change1_416"><path fill="#00ffff" id="XMLID_9372_" d="m68.1 56.2c0 0.1 0 0.1-0.1 0.2-0.1-0.1-0.1-0.1-0.2-0.1 0-0.1 0-0.1 0.1-0.2 0.1 0 0.2 0 0.2 0.1z"/></g>
	<g id="change1_417"><path fill="#00ffff" id="XMLID_9371_" d="m68.3 55.9c0 0.1 0 0.1-0.1 0.2-0.1-0.1-0.1-0.1-0.2-0.1 0-0.1 0-0.1 0.1-0.2 0.1 0 0.1 0 0.2 0.1z"/></g>
	<g id="change1_418"><path fill="#00ffff" id="XMLID_9370_" d="m68.4 55.6c0 0.1 0 0.1-0.1 0.2-0.1-0.1-0.1-0.1-0.2-0.1 0-0.1 0-0.1 0.1-0.2 0.1 0 0.1 0 0.2 0.1z"/></g>
	<g id="change1_419"><path fill="#00ffff" id="XMLID_9369_" d="m68.5 55.3c-0.2 0-0.2-0.1-0.4-0.2v-0.1c0.2 0.1 0.3 0.2 0.4 0.3z"/></g>
	<g id="change1_420"><path fill="#00ffff" id="XMLID_9368_" d="m69.5 52.5c-0.2 0-0.3 0-0.4-0.1v-0.1c0.2 0 0.2 0.1 0.4 0.2z"/></g>
	<g id="change1_421"><path fill="#00ffff" id="XMLID_9367_" d="m68.7 54.9c0 0.1 0 0.1-0.1 0.2-0.1-0.1-0.1-0.1-0.2-0.1 0-0.1 0-0.1 0.1-0.2 0 0.1 0.1 0.1 0.2 0.1z"/></g>
	<g id="change1_422"><path fill="#00ffff" id="XMLID_9366_" d="m68.8 54.6c0 0.1 0 0.1-0.1 0.2-0.1-0.1-0.1-0.1-0.2-0.1 0-0.1 0-0.1 0.1-0.2 0 0 0.1 0.1 0.2 0.1z"/></g>
	<g id="change1_423"><path fill="#00ffff" id="XMLID_9365_" d="m68.9 54.3c0 0.1 0 0.1-0.1 0.2-0.1-0.1-0.1-0.1-0.2-0.1 0-0.1 0-0.1 0.1-0.2 0.1 0 0.1 0.1 0.2 0.1z"/></g>
	<g id="change1_424"><path fill="#00ffff" id="XMLID_9364_" d="m69 54c0 0.1 0 0.1-0.1 0.2-0.1 0-0.1-0.1-0.2-0.1 0-0.1 0-0.1 0.1-0.2 0.1 0 0.1 0 0.2 0.1z"/></g>
	<g id="change1_425"><path fill="#00ffff" id="XMLID_9363_" d="m69.1 53.7c0 0.1 0 0.1-0.1 0.2-0.1 0-0.1-0.1-0.2-0.1 0-0.1 0-0.1 0.1-0.2 0.1 0 0.1 0 0.2 0.1z"/></g>
	<g id="change1_426"><path fill="#00ffff" id="XMLID_9362_" d="m69.2 53.3c0 0.1 0 0.1-0.1 0.2-0.1 0-0.1-0.1-0.2-0.1 0-0.1 0-0.1 0.1-0.2 0.1 0.1 0.1 0.1 0.2 0.1z"/></g>
	<g id="change1_427"><path fill="#00ffff" id="XMLID_9361_" d="m69.3 53c0 0.1 0 0.1-0.1 0.2-0.1 0-0.1-0.1-0.2-0.1 0-0.1 0-0.1 0.1-0.2 0.1 0.1 0.1 0.1 0.2 0.1z"/></g>
	<g id="change1_428"><path fill="#00ffff" id="XMLID_9360_" d="m69.4 52.7v0.2c-0.1 0-0.1-0.1-0.2-0.1v-0.2c0.1 0 0.1 0.1 0.2 0.1z"/></g>
	<g id="change1_429"><path fill="#00ffff" id="XMLID_9359_" d="m69.5 52.4c-0.2 0-0.3 0-0.4-0.1v-0.1c0.2 0.1 0.3 0.1 0.4 0.2z"/></g>
	<g id="change1_430"><path fill="#00ffff" id="XMLID_9358_" d="m70.2 49.5c-0.2 0-0.3 0-0.4-0.1v-0.1c0.2 0.1 0.3 0.1 0.4 0.2z"/></g>
	<g id="change1_431"><path fill="#00ffff" id="XMLID_9357_" d="m69.6 52.1v0.2c-0.1 0-0.1-0.1-0.2-0.1v-0.2c0.1 0 0.1 0 0.2 0.1z"/></g>
	<g id="change1_432"><path fill="#00ffff" id="XMLID_9356_" d="m69.7 51.7v0.2c-0.1 0-0.1-0.1-0.2-0.1v-0.2c0.1 0.1 0.1 0.1 0.2 0.1z"/></g>
	<g id="change1_433"><path fill="#00ffff" id="XMLID_9355_" d="m69.8 51.4v0.2c-0.1 0-0.1-0.1-0.2-0.1v-0.2c0.1 0 0.1 0.1 0.2 0.1z"/></g>
	<g id="change1_434"><path fill="#00ffff" id="XMLID_9354_" d="m69.9 51.1v0.2c-0.1 0-0.1-0.1-0.2-0.1v-0.2s0.1 0 0.2 0.1z"/></g>
	<g id="change1_435"><path fill="#00ffff" id="XMLID_9353_" d="m70 50.7v0.2c-0.1 0-0.1-0.1-0.2-0.1v-0.2c0 0.1 0.1 0.1 0.2 0.1z"/></g>
	<g id="change1_436"><path fill="#00ffff" id="XMLID_9352_" d="m70 50.4v0.2c-0.1 0-0.1-0.1-0.2-0.1v-0.2c0.1 0.1 0.1 0.1 0.2 0.1z"/></g>
	<g id="change1_437"><path fill="#00ffff" id="XMLID_9351_" d="m70.1 50.1v0.2c-0.1 0-0.1-0.1-0.2-0.1v-0.2c0.1 0 0.1 0 0.2 0.1z"/></g>
	<g id="change1_438"><path fill="#00ffff" id="XMLID_9350_" d="m70.2 49.7v0.2c-0.1 0-0.1 0-0.2-0.1v-0.2c0 0.1 0.1 0.1 0.2 0.1z"/></g>
	<g id="change1_439"><path fill="#00ffff" id="XMLID_9349_" d="m70.2 49.4v0c-0.2 0-0.3 0-0.4-0.1v-0.1c0.2 0.1 0.3 0.1 0.4 0.2z"/></g>
	<g id="change1_440"><path fill="#00ffff" id="XMLID_9348_" d="m70.7 46.4v0c-0.2 0.1-0.3 0-0.4 0v-0.1c0.2 0.1 0.3 0.1 0.4 0.1z"/></g>
	<g id="change1_441"><path fill="#00ffff" id="XMLID_9347_" d="m70.3 49.1v0.2c-0.1 0-0.1 0-0.2-0.1v-0.2c0.1 0 0.1 0 0.2 0.1z"/></g>
	<g id="change1_442"><path fill="#00ffff" id="XMLID_9346_" d="m70.4 48.7v0.2c-0.1 0-0.1 0-0.2-0.1v-0.2c0 0.1 0.1 0.1 0.2 0.1z"/></g>
	<g id="change1_443"><path fill="#00ffff" id="XMLID_9345_" d="m70.4 48.4v0.2c-0.1 0-0.1 0-0.2-0.1v-0.2c0.1 0.1 0.1 0.1 0.2 0.1z"/></g>
	<g id="change1_444"><path fill="#00ffff" id="XMLID_9344_" d="m70.5 48.1v0.2c-0.1 0-0.1 0-0.2-0.1v-0.2c0.1 0 0.1 0 0.2 0.1z"/></g>
	<g id="change1_445"><path fill="#00ffff" id="XMLID_9343_" d="m70.5 47.7v0.2c-0.1 0-0.1 0-0.2-0.1v-0.2c0.1 0.1 0.2 0.1 0.2 0.1z"/></g>
	<g id="change1_446"><path fill="#00ffff" id="XMLID_9342_" d="m70.6 47.4v0.2c-0.1 0-0.1 0-0.2-0.1v-0.2c0.1 0 0.1 0.1 0.2 0.1z"/></g>
	<g id="change1_447"><path fill="#00ffff" id="XMLID_9341_" d="m70.6 47v0.2c-0.1 0-0.1 0-0.2-0.1v-0.2c0.1 0.1 0.2 0.1 0.2 0.1z"/></g>
	<g id="change1_448"><path fill="#00ffff" id="XMLID_9340_" d="m70.7 46.7v0.2h-0.2v-0.2h0.2z"/></g>
	<g id="change1_449"><path fill="#00ffff" id="XMLID_9339_" d="m70.7 46.4c-0.2 0.1-0.3 0-0.4 0v-0.1c0.2 0 0.3 0 0.4 0.1z"/></g>
	<g id="change1_450"><path fill="#00ffff" id="XMLID_9338_" d="m71 43.4c-0.1 0-0.1 0 0 0-0.2 0.1-0.2 0.1-0.4 0.1v-0.1h0.4z"/></g>
	<g id="change1_451"><path fill="#00ffff" id="XMLID_9337_" d="m70.8 46v0.2h-0.2v-0.2h0.2z"/></g>
	<g id="change1_452"><path fill="#00ffff" id="XMLID_9336_" d="m70.8 45.7v0.2h-0.2v-0.2h0.2z"/></g>
	<g id="change1_453"><path fill="#00ffff" id="XMLID_9335_" d="m70.8 45.3v0.2h-0.2v-0.2h0.2z"/></g>
	<g id="change1_454"><path fill="#00ffff" id="XMLID_9334_" d="m70.9 45v0.2h-0.2v-0.2h0.2z"/></g>
	<g id="change1_455"><path fill="#00ffff" id="XMLID_9333_" d="m70.9 44.7v0.2h-0.2v-0.2c0-0.1 0.1-0.1 0.2 0z"/></g>
	<g id="change1_456"><path fill="#00ffff" id="XMLID_9332_" d="m70.9 44.3v0.2h-0.2v-0.2h0.2z"/></g>
	<g id="change1_457"><path fill="#00ffff" id="XMLID_9331_" d="m70.9 44v0.2h-0.2v-0.2h0.2z"/></g>
	<g id="change1_458"><path fill="#00ffff" id="XMLID_9330_" d="m70.9 43.6v0.2h-0.2v-0.2h0.2z"/></g>
	<g id="change1_459"><path fill="#00ffff" id="XMLID_9329_" d="m71 43.3c-0.2 0.1-0.2 0.1-0.4 0.1v-0.1h0.4z"/></g>
	<g id="change1_460"><path fill="#00ffff" id="XMLID_9328_" d="m70.9 40.3c-0.2 0.1-0.2 0.1-0.4 0.1v-0.1h0.4z"/></g>
	<g id="change1_461"><path fill="#00ffff" id="XMLID_9327_" d="m71 42.9v0.2h-0.2v-0.2h0.2z"/></g>
	<g id="change1_462"><path fill="#00ffff" id="XMLID_9326_" d="m71 42.6v0.2h-0.2v-0.2h0.2z"/></g>
	<g id="change1_463"><path fill="#00ffff" id="XMLID_9325_" d="m71 42.3v0.2h-0.2v-0.2c0-0.1 0.1-0.1 0.2 0z"/></g>
	<g id="change1_464"><path fill="#00ffff" id="XMLID_9324_" d="m71 41.9v0.2h-0.2v-0.2h0.2z"/></g>
	<g id="change1_465"><path fill="#00ffff" id="XMLID_9323_" d="m71 41.6v0.2h-0.2v-0.2h0.2z"/></g>
	<g id="change1_466"><path fill="#00ffff" id="XMLID_9322_" d="m71 41.2v0.2h-0.2v-0.2h0.2z"/></g>
	<g id="change1_467"><path fill="#00ffff" id="XMLID_9321_" d="m71 40.9v0.2h-0.2v-0.2h0.2z"/></g>
	<g id="change1_468"><path fill="#00ffff" id="XMLID_9320_" d="m70.9 40.5v0.2h-0.2v-0.2h0.2z"/></g>
	<g id="change1_469"><path fill="#00ffff" id="XMLID_9319_" d="m70.9 40.2c-0.2 0.1-0.2 0.1-0.4 0.1v-0.1h0.4z"/></g>
	<g id="change1_470"><path fill="#00ffff" id="XMLID_9318_" d="m70.7 37.2l-0.4 0.2v-0.1c0.1 0 0.2-0.1 0.4-0.1z"/></g>
	<g id="change1_471"><path fill="#00ffff" id="XMLID_9317_" d="m70.9 39.8v0.2h-0.2v-0.2c0.1 0.1 0.1 0.1 0.2 0z"/></g>
	<g id="change1_472"><path fill="#00ffff" id="XMLID_9316_" d="m70.9 39.5v0.2h-0.2v-0.2h0.2z"/></g>
	<g id="change1_473"><path fill="#00ffff" id="XMLID_9315_" d="m70.9 39.2v0.2h-0.2v-0.2h0.2z"/></g>
	<g id="change1_474"><path fill="#00ffff" id="XMLID_9314_" d="m70.8 38.8v0.2h-0.2v-0.2h0.2z"/></g>
	<g id="change1_475"><path fill="#00ffff" id="XMLID_9313_" d="m70.8 38.5v0.2h-0.2v-0.2h0.2z"/></g>
	<g id="change1_476"><path fill="#00ffff" id="XMLID_9312_" d="m70.8 38.1v0.2h-0.2v-0.2c0 0.1 0.1 0 0.2 0z"/></g>
	<g id="change1_477"><path fill="#00ffff" id="XMLID_9311_" d="m70.7 37.8v0.2h-0.2v-0.2h0.2z"/></g>
	<g id="change1_478"><path fill="#00ffff" id="XMLID_9310_" d="m70.7 37.5v0.2h-0.2v-0.2h0.2z"/></g>
	<g id="change1_479"><path fill="#00ffff" id="XMLID_9309_" d="m70.7 37.1v0l-0.4 0.2v-0.1c0.1 0 0.2-0.1 0.4-0.1z"/></g>
	<g id="change1_480"><path fill="#00ffff" id="XMLID_9308_" d="m70.1 34.2s0.1 0 0 0c-0.1 0.1-0.2 0.2-0.4 0.2v-0.1c0.2 0 0.3-0.1 0.4-0.1z"/></g>
	<g id="change1_481"><path fill="#00ffff" id="XMLID_9307_" d="m70.6 36.8v0.2c-0.1 0-0.1 0-0.2 0.1v-0.2c0.1-0.1 0.1-0.1 0.2-0.1z"/></g>
	<g id="change1_482"><path fill="#00ffff" id="XMLID_9306_" d="m70.6 36.4v0.2c-0.1 0-0.1 0-0.2 0.1v-0.2s0.1 0 0.2-0.1z"/></g>
	<g id="change1_483"><path fill="#00ffff" id="XMLID_9305_" d="m70.5 36.1v0.2c-0.1 0-0.1 0-0.2 0.1v-0.2c0.1-0.1 0.1-0.1 0.2-0.1z"/></g>
	<g id="change1_484"><path fill="#00ffff" id="XMLID_9304_" d="m70.4 35.8v0.2c-0.1 0-0.1 0-0.2 0.1v-0.2c0.1-0.1 0.2-0.1 0.2-0.1z"/></g>
	<g id="change1_485"><path fill="#00ffff" id="XMLID_9303_" d="m70.4 35.4v0.2c-0.1 0-0.1 0-0.2 0.1v-0.2c0.1 0 0.1-0.1 0.2-0.1z"/></g>
	<g id="change1_486"><path fill="#00ffff" id="XMLID_9302_" d="m70.3 35.1v0.2c-0.1 0-0.1 0-0.2 0.1v-0.2c0.1-0.1 0.1-0.1 0.2-0.1z"/></g>
	<g id="change1_487"><path fill="#00ffff" id="XMLID_9301_" d="m70.3 34.8v0.2c-0.1 0-0.1 0-0.2 0.1v-0.2c0-0.1 0.1-0.1 0.2-0.1z"/></g>
	<g id="change1_488"><path fill="#00ffff" id="XMLID_9300_" d="m70.2 34.4v0.2c-0.1 0-0.1 0-0.2 0.1v-0.2c0.1 0 0.1-0.1 0.2-0.1z"/></g>
	<g id="change1_489"><path fill="#00ffff" id="XMLID_9299_" d="m70.1 34.1c-0.1 0.1-0.2 0.2-0.4 0.2v-0.1c0.2 0 0.3-0.1 0.4-0.1z"/></g>
	<g id="change1_490"><path fill="#00ffff" id="XMLID_9298_" d="m69.4 31.2v0c-0.1 0.2-0.2 0.2-0.4 0.3v-0.1c0.1-0.1 0.2-0.1 0.4-0.2z"/></g>
	<g id="change1_491"><path fill="#00ffff" id="XMLID_9297_" d="m70 33.7v0.2c-0.1 0-0.1 0-0.2 0.1v-0.2c0.1 0 0.2 0 0.2-0.1z"/></g>
	<g id="change1_492"><path fill="#00ffff" id="XMLID_9296_" d="m70 33.4v0.2c-0.1 0-0.1 0.1-0.2 0.1v-0.2s0.1 0 0.2-0.1z"/></g>
	<g id="change1_493"><path fill="#00ffff" id="XMLID_9295_" d="m69.9 33.1v0.2c-0.1 0-0.1 0.1-0.2 0.1v-0.2c0.1-0.1 0.1-0.1 0.2-0.1z"/></g>
	<g id="change1_494"><path fill="#00ffff" id="XMLID_9294_" d="m69.8 32.8v0.2c-0.1 0-0.1 0.1-0.2 0.1v-0.2c0.1-0.1 0.1-0.1 0.2-0.1z"/></g>
	<g id="change1_495"><path fill="#00ffff" id="XMLID_9293_" d="m69.7 32.4v0.2c-0.1 0-0.1 0.1-0.2 0.1v-0.2c0.1 0 0.1 0 0.2-0.1z"/></g>
	<g id="change1_496"><path fill="#00ffff" id="XMLID_9292_" d="m69.6 32.1v0.2c-0.1 0-0.1 0.1-0.2 0.1v-0.2c0.1 0 0.1-0.1 0.2-0.1z"/></g>
	<g id="change1_497"><path fill="#00ffff" id="XMLID_9291_" d="m69.5 31.8v0.2c-0.1 0-0.1 0.1-0.2 0.1v-0.2c0.1-0.1 0.2-0.1 0.2-0.1z"/></g>
	<g id="change1_498"><path fill="#00ffff" id="XMLID_9290_" d="m69.4 31.5v0.2c-0.1 0-0.1 0.1-0.2 0.1v-0.2c0.1-0.1 0.2-0.1 0.2-0.1z"/></g>
	<g id="change1_499"><path fill="#00ffff" id="XMLID_9289_" d="m69.3 31.1c0.1 0.1 0.1 0.1 0 0-0.1 0.2-0.2 0.2-0.4 0.3v-0.1c0.2-0.1 0.3-0.1 0.4-0.2z"/></g>
	<g id="change1_500"><path fill="#00ffff" id="XMLID_9288_" d="m68.3 28.4c0.1 0 0.1 0 0 0-0.1 0.2-0.2 0.2-0.3 0.3v-0.1c0.1-0.1 0.2-0.1 0.3-0.2z"/></g>
	<g id="change1_501"><path fill="#00ffff" id="XMLID_9287_" d="m69.2 30.8c0 0.1 0 0.1 0.1 0.2-0.1 0-0.1 0.1-0.2 0.1 0-0.1 0-0.1-0.1-0.2 0.1 0 0.2 0 0.2-0.1z"/></g>
	<g id="change1_502"><path fill="#00ffff" id="XMLID_9286_" d="m69.1 30.5c0 0.1 0 0.1 0.1 0.2-0.1 0-0.1 0.1-0.2 0.1 0-0.1 0-0.1-0.1-0.2 0.1 0 0.2-0.1 0.2-0.1z"/></g>
	<g id="change1_503"><path fill="#00ffff" id="XMLID_9285_" d="m69 30.2c0 0.1 0 0.1 0.1 0.2-0.1 0-0.1 0.1-0.2 0.1 0-0.1 0-0.1-0.1-0.2 0.1-0.1 0.1-0.1 0.2-0.1z"/></g>
	<g id="change1_504"><path fill="#00ffff" id="XMLID_9284_" d="m68.9 29.8c0 0.1 0 0.1 0.1 0.2-0.1 0-0.1 0.1-0.2 0.1 0-0.1 0-0.1-0.1-0.2 0.1 0 0.1 0 0.2-0.1z"/></g>
	<g id="change1_505"><path fill="#00ffff" id="XMLID_9283_" d="m68.8 29.5c0 0.1 0 0.1 0.1 0.2-0.1 0.1-0.1 0.1-0.2 0.1 0-0.1 0-0.1-0.1-0.2 0.1 0 0.1 0 0.2-0.1z"/></g>
	<g id="change1_506"><path fill="#00ffff" id="XMLID_9282_" d="m68.7 29.2c0 0.1 0 0.1 0.1 0.2-0.1 0.1-0.1 0.1-0.2 0.1 0-0.1 0-0.1-0.1-0.2 0.1 0 0.1 0 0.2-0.1z"/></g>
	<g id="change1_507"><path fill="#00ffff" id="XMLID_9281_" d="m68.6 28.9c0 0.1 0 0.1 0.1 0.2-0.1 0.1-0.1 0.1-0.2 0.1 0-0.1 0-0.1-0.1-0.2 0 0 0.1 0 0.2-0.1z"/></g>
	<g id="change1_508"><path fill="#00ffff" id="XMLID_9280_" d="m68.4 28.6c0 0.1 0 0.1 0.1 0.2-0.1 0.1-0.1 0.1-0.2 0.1 0-0.1 0-0.1-0.1-0.2 0.1 0 0.2-0.1 0.2-0.1z"/></g>
	<g id="change1_509"><path fill="#00ffff" id="XMLID_9279_" d="m68.3 28.3c-0.1 0.2-0.2 0.2-0.3 0.3v-0.1c0.1-0.1 0.2-0.1 0.3-0.2z"/></g>
	<g id="change1_510"><path fill="#00ffff" id="XMLID_9278_" d="m67.1 25.6v0c-0.1 0.2-0.2 0.3-0.3 0.4v-0.1c0.1-0.1 0.1-0.2 0.3-0.3z"/></g>
	<g id="change1_511"><path fill="#00ffff" id="XMLID_9277_" d="m68.2 28c0 0.1 0 0.1 0.1 0.2-0.1 0.1-0.1 0.1-0.2 0.1 0-0.1 0-0.1-0.1-0.2 0.1 0 0.1-0.1 0.2-0.1z"/></g>
	<g id="change1_512"><path fill="#00ffff" id="XMLID_9276_" d="m68 27.7c0 0.1 0 0.1 0.1 0.2-0.1 0.1-0.1 0.1-0.2 0.1 0-0.1 0-0.1-0.1-0.2 0.1-0.1 0.2-0.1 0.2-0.1z"/></g>
	<g id="change1_513"><path fill="#00ffff" id="XMLID_9275_" d="m67.9 27.4c0 0.1 0 0.1 0.1 0.2-0.1 0.1-0.1 0.1-0.2 0.1 0-0.1 0-0.1-0.1-0.2 0.1-0.1 0.1-0.1 0.2-0.1z"/></g>
	<g id="change1_514"><path fill="#00ffff" id="XMLID_9274_" d="m67.8 27c0 0.1 0 0.1 0.1 0.2l-0.2 0.2c0-0.1 0-0.1-0.1-0.1 0.1-0.2 0.1-0.2 0.2-0.3z"/></g>
	<g id="change1_515"><path fill="#00ffff" id="XMLID_9273_" d="m67.6 26.7c0 0.1 0 0.1 0.1 0.2l-0.2 0.2c0-0.1 0-0.1-0.1-0.1 0.1-0.2 0.1-0.2 0.2-0.3z"/></g>
	<g id="change1_516"><path fill="#00ffff" id="XMLID_9272_" d="m67.5 26.4c0 0.1 0 0.1 0.1 0.1l-0.2 0.2c0-0.1 0-0.1-0.1-0.1l0.2-0.2z"/></g>
	<g id="change1_517"><path fill="#00ffff" id="XMLID_9271_" d="m67.3 26.1c0 0.1 0 0.1 0.1 0.1l-0.2 0.2c0-0.1 0-0.1-0.1-0.1 0.1-0.1 0.2-0.1 0.2-0.2z"/></g>
	<g id="change1_518"><path fill="#00ffff" id="XMLID_9270_" d="m67.2 25.8c0 0.1 0 0.1 0.1 0.1l-0.2 0.2c0-0.1 0-0.1-0.1-0.1l0.2-0.2z"/></g>
	<g id="change1_519"><path fill="#00ffff" id="XMLID_9269_" d="m67 25.6c-0.1 0.2-0.2 0.3-0.3 0.4v-0.1c0.1-0.2 0.2-0.2 0.3-0.3z"/></g>
	<g id="change1_520"><path fill="#00ffff" id="XMLID_9268_" d="m65.5 23.1s0.1 0 0 0c-0.1 0.2-0.1 0.3-0.3 0.4v-0.1l0.3-0.3z"/></g>
	<g id="change1_521"><path fill="#00ffff" id="XMLID_9267_" d="m66.9 25.3c0 0.1 0 0.1 0.1 0.1l-0.2 0.2c0-0.1 0-0.1-0.1-0.1 0.1-0.1 0.1-0.2 0.2-0.2z"/></g>
	<g id="change1_522"><path fill="#00ffff" id="XMLID_9266_" d="m66.7 25c0 0.1 0 0.1 0.1 0.1l-0.2 0.2c0-0.1 0-0.1-0.1-0.1 0.1-0.1 0.1-0.2 0.2-0.2z"/></g>
	<g id="change1_523"><path fill="#00ffff" id="XMLID_9265_" d="m66.5 24.7c0 0.1 0 0.1 0.1 0.1l-0.2 0.2c0-0.1 0-0.1-0.1-0.1 0.1-0.1 0.2-0.1 0.2-0.2z"/></g>
	<g id="change1_524"><path fill="#00ffff" id="XMLID_9264_" d="m66.4 24.4c0 0.1 0.1 0.1 0.1 0.1l-0.2 0.2c0-0.1 0-0.1-0.1-0.1l0.2-0.2z"/></g>
	<g id="change1_525"><path fill="#00ffff" id="XMLID_9263_" d="m66.2 24.1c0 0.1 0.1 0.1 0.1 0.1l-0.2 0.2c0-0.1-0.1-0.1-0.1-0.1l0.2-0.2z"/></g>
	<g id="change1_526"><path fill="#00ffff" id="XMLID_9262_" d="m66 23.8c0 0.1 0.1 0.1 0.1 0.1l-0.2 0.2c0-0.1-0.1-0.1-0.1-0.1 0.1-0.1 0.2-0.1 0.2-0.2z"/></g>
	<g id="change1_527"><path fill="#00ffff" id="XMLID_9261_" d="m65.8 23.5c0 0.1 0.1 0.1 0.1 0.1l-0.2 0.2c0-0.1-0.1-0.1-0.1-0.1 0.1 0 0.2-0.1 0.2-0.2z"/></g>
	<g id="change1_528"><path fill="#00ffff" id="XMLID_622_" d="m65.7 23.3c0 0.1 0.1 0.1 0.1 0.1l-0.2 0.2c0-0.1-0.1-0.1-0.1-0.1 0.1-0.1 0.1-0.2 0.2-0.2z"/></g>
	<g id="change1_529"><path fill="#00ffff" id="XMLID_619_" d="m66 54.8c0.2 0.1 0.3 0.2 0.4 0.3s0.2 0.2 0.4 0.3c0.1-0.1 0.1-0.2 0.1-0.3s0.1-0.2 0.1-0.3c-0.2-0.1-0.3-0.2-0.4-0.3s-0.2-0.2-0.4-0.3c-0.1 0.1-0.1 0.2-0.1 0.3s-0.1 0.2-0.1 0.3zm0.9 0.7c-0.1 0.2-0.2 0.2-0.2 0.2-0.2-0.1-0.3-0.2-0.4-0.3s-0.2-0.2-0.4-0.3c-0.1-0.1-0.1-0.2 0-0.3s0.1-0.2 0.1-0.3 0.1-0.2 0.1-0.3c0.1-0.1 0.2-0.2 0.2-0.1 0.2 0.1 0.3 0.2 0.4 0.3s0.2 0.2 0.4 0.3c0.1 0.1 0.1 0.2 0 0.3s-0.1 0.2-0.2 0.5c0.1-0.2 0.1-0.1 0 0z"/></g>
	<g id="change1_530"><path fill="#00ffff" id="XMLID_618_" d="m65.5 55.8c0.1 0 0.1-0.1 0 0 0.1-0.1 0.1-0.1 0.2-0.1l0.1 0.1v0.1s0 0.1 0 0.1c0 0.1 0 0.1-0.1 0.2 0 0 0 0.1-0.1 0.1h-0.1l-0.1-0.1v-0.1s0-0.1 0-0.1c0.1-0.1 0.1-0.1 0.1-0.2z"/></g>
	<g id="change1_531"><path fill="#00ffff" id="XMLID_614_" d="m65.1 57.7l0.3 0.3c0-0.1 0.1-0.1 0.1-0.2l-0.3-0.3c0 0.1 0 0.1-0.1 0.2zm-0.5-0.2l0.3 0.3c0.1-0.1 0.1-0.2 0.2-0.3s0.1-0.2 0.2-0.3l-0.3-0.3c-0.1 0.1-0.1 0.2-0.2 0.3s-0.1 0.2-0.2 0.3zm0.9 0.8c0 0.1-0.1 0.1 0 0-0.2-0.1-0.3-0.2-0.5-0.4 0 0.1-0.1 0.1-0.1 0.1h-0.1l-0.3-0.3c-0.1-0.1-0.1-0.2 0-0.3s0.1-0.2 0.2-0.3 0.1-0.2 0.2-0.3 0.2-0.2 0.2-0.1l0.3 0.3 0.1 0.1c0 0.1 0 0.1-0.1 0.2 0.1 0.1 0.2 0.2 0.4 0.3v0.2c-0.1 0.2-0.2 0.3-0.3 0.5z"/></g>
	<g id="change1_532"><path fill="#00ffff" id="XMLID_611_" d="m68.4 45.6c0.2 0 0.3 0.1 0.5 0.1 0.1 0 0.3 0 0.5 0.1v-0.4-0.4c-0.2 0-0.3 0-0.5-0.1-0.1 0-0.3 0-0.5-0.1v0.4s0 0.2 0 0.4zm1 0.2c0 0.1-0.1 0.2-0.2 0.2-0.2 0-0.3-0.1-0.5-0.1-0.1 0-0.3-0.1-0.5-0.1-0.1 0-0.1-0.1-0.1-0.3v-0.4-0.4c0-0.1 0.1-0.2 0.2-0.2 0.2 0 0.3 0 0.5 0.1 0.1 0 0.3 0 0.5 0.1 0.1 0 0.1 0.1 0.1 0.3s0 0.3 0 0.4 0.1 0.2 0 0.4z"/></g>
	<g id="change1_533"><path fill="#00ffff" id="XMLID_610_" d="m68.3 46.7v0 0l0.2-0.1h0.1v0.1 0.2 0.1s0 0-0.1 0h-0.1-0.1v-0.1-0.2z"/></g>
	<g id="change1_534"><path fill="#00ffff" id="XMLID_609_" d="m68.9 48.2s-0.1-0.1-0.1-0.2 0.1-0.1 0.1-0.1 0 0 0.1 0 0.1 0.1 0.1 0.2c0 0.2-0.1 0.4-0.1 0.6s-0.1 0.3-0.1 0.6c-0.2-0.1-0.3-0.1-0.4-0.2-0.1 0-0.1 0-0.1-0.1 0-0.2-0.1-0.2-0.1-0.4 0-0.1 0-0.1-0.1-0.1s-0.2-0.1-0.3-0.1l-0.1-0.1c0-0.1 0.1-0.1 0.1-0.1 0.1 0 0.2 0.1 0.4 0.1 0.1 0 0.1 0 0.1 0.1 0 0.2 0.1 0.2 0.1 0.4 0 0.1 0 0.1 0.1 0.1s0.1 0 0.2 0.1c0-0.2 0.1-0.3 0.1-0.4v-0.4z"/></g>
	<g id="change1_535"><path fill="#00ffff" id="XMLID_606_" d="m68 35.9c0.2-0.1 0.3-0.1 0.4-0.1s0.3-0.1 0.4-0.1c0-0.2-0.1-0.3-0.1-0.4s0-0.2-0.1-0.4c-0.2 0.1-0.3 0.1-0.4 0.2-0.1 0-0.3 0.1-0.4 0.2 0 0.1 0.1 0.3 0.1 0.4 0 0 0.1 0.1 0.1 0.2zm1-0.3c0 0.1 0 0.3-0.1 0.3-0.2 0.1-0.3 0.1-0.4 0.1s-0.3 0.1-0.4 0.1-0.2-0.1-0.2-0.2c0-0.1 0-0.3-0.1-0.4 0-0.1 0-0.2-0.1-0.4 0-0.1 0-0.3 0.1-0.3 0.2-0.1 0.3-0.1 0.4-0.2 0.1 0 0.3-0.1 0.4-0.2 0.1 0 0.2 0.1 0.2 0.2 0 0.2 0.1 0.3 0.1 0.4 0.1 0.3 0.1 0.4 0.1 0.6z"/></g>
	<g id="change1_536"><path fill="#00ffff" id="XMLID_605_" d="m68.2 37v0 0l0.2-0.1h0.1v0.1 0.2 0.1s0 0-0.1 0h-0.1-0.1v-0.1-0.2z"/></g>
	<g id="change1_537"><path fill="#00ffff" id="XMLID_602_" d="m68.6 38.2h-0.2v0.4 0.4h0.2v-0.4s0-0.2 0-0.4zm0.1 0v0.4 0.4c0 0.1 0 0.2-0.1 0.2s-0.2 0-0.4 0.1c-0.1 0-0.1 0-0.1-0.1v-0.5-0.4c0-0.1 0-0.2 0.1-0.2s0.3-0.1 0.4-0.1 0.2 0 0.3-0.1c0.1 0 0.2 0 0.4-0.1 0 0 0.1 0 0.1 0.1s0 0.1 0 0.2c0 0.1 0 0.1-0.1 0.1 0 0-0.1 0-0.1-0.1h-0.3s-0.1 0.1-0.2 0.1z"/></g>
	<g id="change1_538"><path fill="#00ffff" id="XMLID_599_" d="m64.8 27c0.1-0.1 0.3-0.2 0.4-0.4l0.4-0.4c-0.1-0.1-0.1-0.2-0.2-0.3s-0.1-0.2-0.2-0.3l-0.4 0.4s-0.2 0.2-0.4 0.4c0.1 0.1 0.1 0.2 0.2 0.3s0.2 0.1 0.2 0.3zm0.9-0.9c0.1 0.1 0.1 0.3 0 0.3-0.1 0.1-0.3 0.2-0.4 0.3s-0.2 0.2-0.4 0.3c-0.1 0.1-0.2 0-0.2-0.1-0.1-0.1-0.1-0.2-0.2-0.3s-0.1-0.2-0.2-0.3-0.1-0.3 0-0.3l0.4-0.4s0.2-0.2 0.4-0.4c0.1-0.1 0.2 0 0.3 0.1s0.1 0.2 0.2 0.3c0 0.3 0 0.4 0.1 0.5z"/></g>
	<g id="change1_539"><path fill="#00ffff" id="XMLID_598_" d="m65.4 27.9v-0.2l0.1-0.1h0.1s0.1 0 0.1 0.1 0 0.1 0.1 0.2v0.2l-0.1 0.1h-0.1s-0.1 0-0.1-0.1c-0.1-0.1-0.1-0.2-0.1-0.2z"/></g>
	<g id="change1_540"><path fill="#00ffff" id="XMLID_597_" d="m66.4 28.9c0.1 0.2 0.1 0.3 0.2 0.4v0.2s0 0.1-0.1 0.2-0.2 0.1-0.3 0.2h-0.1c-0.1 0-0.1-0.1-0.1-0.2-0.1-0.2-0.1-0.3-0.2-0.5v-0.2-0.1-0.2s0.1 0 0.1 0.1v0.1 0.1 0.1c0.1 0.2 0.1 0.3 0.2 0.5 0.1-0.1 0.2-0.1 0.3-0.2-0.1-0.1-0.1-0.2-0.1-0.3s-0.1-0.2-0.1-0.3c0.1-0.1 0.2-0.2 0.3-0.2 0.1-0.1 0.2-0.1 0.3-0.2 0.1 0.2 0.1 0.3 0.2 0.4s0.1 0.2 0.2 0.4v0.2c-0.1 0-0.1 0-0.1-0.1s-0.1-0.2-0.1-0.3-0.1-0.2-0.1-0.3c-0.3 0.1-0.3 0.1-0.5 0.2z"/></g>
</g>
</svg>