<?xml version="1.0" encoding="UTF-8" standalone="no"?><svg xmlns="http://www.w3.org/2000/svg" xmlns:xlink="http://www.w3.org/1999/xlink" contentScriptType="text/ecmascript" fill="#00324a" width="512" zoomAndPan="magnify" contentStyleType="text/css" viewBox="0.0 0.0 512.0 512.0" height="512" preserveAspectRatio="xMidYMid meet" version="1"><g id="change1_1"><path d="M452,120h-76C376,53.726,322.274,0,256,0h0c-66.274,0-120,53.726-120,120H60c-33.137,0-60,26.863-60,60v272 c0,33.137,26.863,60,60,60h392c33.137,0,60-26.863,60-60V180C512,146.863,485.137,120,452,120z M256,60c33.137,0,60,26.863,60,60 H196C196,86.863,222.863,60,256,60z M402,260v20c0,16.569-13.431,30-30,30h0c-16.569,0-30-13.431-30-30v-20H170v20 c0,16.569-13.431,30-30,30h0c-16.569,0-30-13.431-30-30v-20c-16.569,0-30-13.431-30-30s13.431-30,30-30h292 c16.569,0,30,13.431,30,30S418.569,260,402,260z"/></g></svg>