<?xml version="1.0" encoding="UTF-8" standalone="no"?><svg xmlns="http://www.w3.org/2000/svg" xmlns:xlink="http://www.w3.org/1999/xlink" contentScriptType="text/ecmascript" fill="#00324a" width="512" zoomAndPan="magnify" contentStyleType="text/css" viewBox="0.0 0.0 512.0 512.0" height="512" preserveAspectRatio="xMidYMid meet" version="1"><g id="change1_1"><path d="M452,92h-65.333l-21.55-64.649C359.672,11.017,344.387,0,327.17,0H184.83c-17.217,0-32.503,11.017-37.947,27.351L125.333,92 H60c-33.137,0-60,26.863-60,60v300c0,33.137,26.863,60,60,60h392c33.137,0,60-26.863,60-60V152C512,118.863,485.137,92,452,92z M256,402c-55.14,0-100-44.86-100-100s44.86-100,100-100c55.14,0,100,44.86,100,100S311.14,402,256,402z"/></g></svg>