<?xml version="1.0" encoding="UTF-8" standalone="no"?><svg xmlns="http://www.w3.org/2000/svg" xmlns:xlink="http://www.w3.org/1999/xlink" contentScriptType="text/ecmascript" zoomAndPan="magnify" contentStyleType="text/css" stroke="#000000" stroke-linecap="square" version="1" width="630.4" stroke-miterlimit="10" fill="#000000" preserveAspectRatio="xMidYMid meet" height="629.75"><g><g fill="#00ffff" stroke="none"><path d="M586.58 409.5c0 0 0 0 0 0-26.29-22.9-43.15-56.58-43.15-94.29s16.86-71.39 43.15-94.97c0 0 0 0 0 0 26.97-22.9 43.82-56.58 43.82-94.97C630.4 55.9 574.44 0 505.67 0c-38.43 0-72.82 16.84-95.74 43.78 0 0 0 0 0 0C387 70.72 353.29 86.88 315.54 86.88s-71.47-16.16-94.39-43.11c0 0 0 0 0 0C198.22 16.84 163.84 0 125.41 0 55.96 0 0 55.9 0 125.28c0 38.39 17.53 72.07 44.5 94.97 0 0 0 0 0 0 26.29 23.57 43.15 57.25 43.15 94.97S70.79 386.6 44.5 409.5c0 0 0 0 0 0C17.53 432.4 0 466.75 0 504.47c0 69.37 55.96 125.28 125.41 125.28 38.43 0 72.82-16.84 95.74-43.78 0 0 0 0 0 0 22.92-26.27 56.63-43.11 94.39-43.11S387 559.7 409.93 585.97c0 0 0 0 0 0 22.92 26.94 57.31 43.78 95.74 43.78 68.77 0 124.73-55.9 124.73-125.28 0-37.72-16.86-72.07-43.82-94.97ZM315.54 458.67c-79.56 0-143.61-64.66-143.61-143.46 0-79.48 64.05-143.46 143.61-143.46 78.88 0 143.61 63.98 143.61 143.46 0 78.8-64.73 143.46-143.61 143.46Z"/><path fill="#00324a" d="M413.95 506.48c0-50.38 40.92-91.22 91.39-91.22s91.39 40.84 91.39 91.22-40.92 91.22-91.39 91.22-91.39-40.84-91.39-91.22Z"/><path fill="#00324a" d="M413.95 126.86c0-50.2 40.92-90.9 91.39-90.9s91.39 40.7 91.39 90.9-40.92 90.9-91.39 90.9-91.39-40.7-91.39-90.9Z"/><path fill="#00324a" d="M34.33 506.48c0-50.38 40.77-91.22 91.06-91.22s91.06 40.84 91.06 91.22-40.77 91.22-91.06 91.22-91.06-40.84-91.06-91.22Z"/><path fill="#00324a" d="M34.33 126.86c0-50.2 40.77-90.9 91.06-90.9s91.06 40.7 91.06 90.9-40.77 90.9-91.06 90.9-91.06-40.7-91.06-90.9Z"/></g></g></svg>