<?xml version="1.0" encoding="UTF-8" standalone="no"?><svg xmlns="http://www.w3.org/2000/svg" xmlns:xlink="http://www.w3.org/1999/xlink" contentScriptType="text/ecmascript" fill="#00ffff" width="519.8" zoomAndPan="magnify" contentStyleType="text/css" viewBox="-3.9 -3.9 519.8 515.9" height="515.9" preserveAspectRatio="xMidYMid meet" version="1"><g id="change1_1"><path d="M500.284,227.716l-216-216c-15.621-15.621-40.948-15.621-56.568,0h0l-216,216c-15.621,15.621-15.621,40.948,0,56.568 C23.69,296.258,41.363,299.042,56,292.659V452c0,33.137,26.863,60,60,60h280c33.137,0,60-26.863,60-60V292.659 c14.637,6.383,32.31,3.599,44.284-8.375h0C515.905,268.663,515.905,243.337,500.284,227.716z M326,432c0,11.046-8.954,20-20,20H206 c-11.046,0-20-8.954-20-20V312c0-11.046,8.954-20,20-20h100c11.046,0,20,8.954,20,20V432z"/></g></svg>