<?xml version="1.0" encoding="UTF-8" standalone="no"?><svg xmlns="http://www.w3.org/2000/svg" xmlns:xlink="http://www.w3.org/1999/xlink" contentScriptType="text/ecmascript" fill="#000000" width="68.9" zoomAndPan="magnify" contentStyleType="text/css" viewBox="0.0 0.0 68.9 69.0" height="69" preserveAspectRatio="xMidYMid meet" version="1"><g id="change1_1"><path fill="#4475e4" d="M62.4,54.6c4.1-5.7,6.5-12.6,6.5-20.1c0-7.5-2.4-14.5-6.5-20.1c0-0.1-0.1-0.2-0.2-0.2C56,5.6,45.9,0,34.5,0 C23.1,0,13,5.5,6.7,14.1c-0.1,0.1-0.1,0.2-0.2,0.3C2.4,20,0,27,0,34.5C0,42,2.4,48.9,6.5,54.6c0.1,0.1,0.1,0.2,0.2,0.3 c6.3,8.5,16.4,14.1,27.8,14.1c11.4,0,21.5-5.6,27.8-14.1C62.3,54.7,62.4,54.7,62.4,54.6z M3,36h12.3c0.1,6,1.1,11.6,2.7,16.4H8.6 C5.3,47.6,3.3,42,3,36z M8.6,16.6h9.5c-1.6,4.8-2.5,10.4-2.7,16.4H3C3.3,26.9,5.3,21.3,8.6,16.6z M65.9,33H53.5 c-0.1-6-1.1-11.6-2.7-16.4h9.5C63.6,21.3,65.6,26.9,65.9,33z M50.5,33H36V16.6h11.6C49.3,21.3,50.4,26.9,50.5,33z M36,13.6V3.1 c4.1,0.8,7.8,4.7,10.4,10.4H36z M33,3.1v10.4H22.5C25.2,7.8,28.9,3.9,33,3.1z M33,16.6V33H18.4c0.2-6,1.2-11.7,2.9-16.4H33z M18.4,36H33v16.4H21.3C19.6,47.6,18.5,42,18.4,36z M33,55.3v10.4c-4.1-0.8-7.8-4.7-10.4-10.4H33z M36,65.8V55.3h10.4 C43.7,61.1,40,65,36,65.8z M36,52.3V36h14.6c-0.2,6-1.2,11.7-2.9,16.4H36z M53.5,36h12.3c-0.3,6.1-2.3,11.7-5.6,16.4h-9.5 C52.4,47.6,53.4,42,53.5,36z M58,13.6h-8.2c-1.5-3.7-3.5-6.8-5.7-9.1C49.5,6.2,54.3,9.4,58,13.6z M24.9,4.5 c-2.2,2.3-4.2,5.4-5.7,9.1H11C14.7,9.4,19.5,6.2,24.9,4.5z M11,55.3h8.2c1.5,3.7,3.5,6.8,5.7,9.1C19.5,62.7,14.7,59.5,11,55.3z M44,64.4c2.2-2.3,4.2-5.4,5.7-9.1H58C54.3,59.5,49.5,62.7,44,64.4z"/></g></svg>