<?xml version="1.0" encoding="UTF-8" standalone="no"?><svg xmlns="http://www.w3.org/2000/svg" xmlns:xlink="http://www.w3.org/1999/xlink" contentScriptType="text/ecmascript" fill="#000000" width="76.1" zoomAndPan="magnify" contentStyleType="text/css" viewBox="0.0 0.0 76.1 66.2" height="66.2" preserveAspectRatio="xMidYMid meet" version="1"><g fill="#244ed6" id="change1_1"><path fill="inherit" d="M35.7,34.5h-9.2C11.9,34.5,0,46.5,0,61.1v3.5c0,0.8,0.7,1.5,1.5,1.5h59.3c0.8,0,1.5-0.7,1.5-1.5v-3.5 C62.3,46.5,50.4,34.5,35.7,34.5z M59.3,63.1H3v-2c0-13,10.6-23.6,23.6-23.6h9.2c13,0,23.6,10.6,23.6,23.6V63.1z"/><path fill="inherit" d="M31.2,30.6c8.4,0,15.3-6.9,15.3-15.3C46.5,6.9,39.6,0,31.2,0S15.9,6.9,15.9,15.3 C15.9,23.7,22.7,30.6,31.2,30.6z M31.2,3c6.8,0,12.3,5.5,12.3,12.3c0,6.8-5.5,12.3-12.3,12.3s-12.3-5.5-12.3-12.3 C18.9,8.5,24.4,3,31.2,3z"/><path fill="inherit" d="M54.9,35.1c-0.8-0.2-1.6,0.4-1.8,1.2c-0.2,0.8,0.4,1.6,1.2,1.8c10.9,2.2,18.8,12,18.8,23.1v2h-5.7 c-0.8,0-1.5,0.7-1.5,1.5s0.7,1.5,1.5,1.5h7.2c0.8,0,1.5-0.7,1.5-1.5v-3.5C76.1,48.5,67.2,37.6,54.9,35.1z"/><path fill="inherit" d="M46.2,3.1c6.3,0.6,11,5.9,11,12.2c0,6.3-4.8,11.6-11.1,12.2c-0.8,0.1-1.4,0.8-1.3,1.6 c0.1,0.8,0.7,1.4,1.5,1.4c0,0,0.1,0,0.2,0c7.8-0.8,13.8-7.3,13.8-15.2c0-7.9-5.9-14.4-13.7-15.2C45.7,0,45,0.6,44.9,1.4 C44.8,2.2,45.4,3,46.2,3.1z"/></g></svg>