<?xml version="1.0" encoding="UTF-8" standalone="no"?><svg xmlns="http://www.w3.org/2000/svg" xmlns:xlink="http://www.w3.org/1999/xlink" contentScriptType="text/ecmascript" fill="#000000" width="126.3" zoomAndPan="magnify" contentStyleType="text/css" viewBox="-0.1 0.0 126.3 125.0" height="125" preserveAspectRatio="xMidYMid meet" version="1"><g><g><g><g fill="#41b8d5" id="change1_1"><path fill="inherit" d="M57 88.04L53 88.04 53 91 49 91 49 86.94 45 86.94 45 100.93 41 100.93 41 104 37 104 37 101.37 33 101.37 33 86.94 29 86.94 29 84 25 84 25 82.11 21 82.11 21 78.85 17 78.85 17 87.19 13 87.19 13 95.02 9 95.02 9 102.29 5 102.29 5 104 1 104 1 110 5 110 9 110 13 110 17 110 21 110 25 110 29 110 33 110 37 110 41 110 45 110 49 110 53 110 57 110 61 110 61 92.01 57 92.01z"/><path fill="inherit" d="M121 100.4L117 100.4 117 102.2 113 102.2 113 95.15 109 95.15 109 92.84 105 92.84 105 88.2 101 88.2 101 85.44 97 85.44 97 81.55 93 81.55 93 85.44 89 85.44 89 99.14 85 99.14 85 92.22 81 92.22 81 97.65 77 97.65 77 110 81 110 85 110 89 110 93 110 97 110 101 110 105 110 109 110 113 110 117 110 121 110 125 110 125 90.78 121 90.78z"/><path fill="inherit" d="M91.12,32.6l6.2-5.96h4.69l15.9-15.97l2.3,5.46L125,0l-16.01,5.18c0,0,2.91,1.14,5.26,2.07 l-13.86,13.92H95.7l-6.21,5.96h-4.51L71.4,40.05l-14.83-12.2l-5.2,4.01l-5.93-4.01l-10.51,8.7l-12.32-6.29L1,47.13v6.74 l22.18-17.32l12.48,6.21l10.03-8.3l5.93,3.93l4.84-3.73l14.95,12.39L86.6,32.6H91.12z"/></g><g id="change2_1"><path fill="#8bcb8f" d="M57 92.01L57 110 53 110 53 91 53 88.04 57 88.04z"/></g><g id="change2_2"><path fill="#8bcb8f" d="M49 91L49 110 45 110 45 100.93 45 86.94 49 86.94z"/></g><g id="change2_3"><path fill="#8bcb8f" d="M37 104H41V110H37z"/></g><g id="change2_4"><path fill="#8bcb8f" d="M33 101.37L33 110 29 110 29 86.94 33 86.94z"/></g><g id="change2_5"><path fill="#8bcb8f" d="M25 84L25 110 21 110 21 82.11 25 82.11z"/></g><g id="change2_6"><path fill="#8bcb8f" d="M17 87.19L17 110 13 110 13 95.02 13 87.19z"/></g><g id="change2_7"><path fill="#8bcb8f" d="M9 102.29L9 110 5 110 5 104 5 102.29z"/></g><g id="change2_8"><path fill="#8bcb8f" d="M77 97.65H81V110H77z"/></g><g id="change2_9"><path fill="#8bcb8f" d="M85 99.14H89V110H85z"/></g><g id="change2_10"><path fill="#8bcb8f" d="M97 85.44L97 110 93 110 93 85.44 93 81.55 97 81.55z"/></g><g id="change2_11"><path fill="#8bcb8f" d="M105 92.84L105 110 101 110 101 88.2 105 88.2z"/></g><g id="change2_12"><path fill="#8bcb8f" d="M113 102.2L113 110 109 110 109 95.15 113 95.15z"/></g><g id="change2_13"><path fill="#8bcb8f" d="M121 100.4L121 110 117 110 117 102.2 117 100.4z"/></g><g id="change3_1"><path fill="#4171ab" d="M125,0l-4.79,16.13l-2.3-5.46l-15.9,15.97h-4.69l-6.2,5.96H86.6L71.41,47.05L56.46,34.66 l-4.84,3.73l-5.93-3.93l-10.03,8.3l-12.48-6.21L1,53.87v-6.74l21.61-16.87l12.32,6.29l10.51-8.7l5.93,4.01l5.2-4.01l14.83,12.2 l13.58-12.92h4.51l6.21-5.96h4.69l13.86-13.92c-2.35-0.93-5.26-2.07-5.26-2.07L125,0z"/></g></g><g><g id="change4_1"><path fill="#52a7d7" d="M69,125c-0.002,0-0.004,0-0.007,0c-0.498-0.003-0.917-0.373-0.984-0.866L61.593,76.6 l-1.323,2.905c-0.181,0.396-0.597,0.629-1.03,0.578c-0.433-0.052-0.782-0.379-0.862-0.807L54.48,58.634l-1.601,2.461 c-0.208,0.319-0.582,0.493-0.959,0.447c-0.379-0.046-0.699-0.304-0.824-0.665l-0.841-2.425l-1.329,2.664 c-0.183,0.367-0.574,0.586-0.978,0.55c-0.408-0.034-0.754-0.313-0.874-0.704l-1.909-6.23l-4.018,18.509 c-0.086,0.396-0.403,0.702-0.802,0.773c-0.402,0.073-0.802-0.106-1.02-0.45l-1.75-2.76c-0.702,1.102-1.859,2.325-3.536,2.325 c-3.048,0-4.134-4.756-5.509-10.776c-1.478-6.475-3.318-14.534-7.791-14.534c-6.833,0-8.664,10.708-10.602,22.046 c-1.645,9.623-3.345,19.573-8.504,23.798c-0.427,0.35-1.056,0.287-1.407-0.14c-0.35-0.427-0.288-1.058,0.14-1.407 c4.581-3.752,6.218-13.328,7.801-22.588C10.251,57.336,12.22,45.82,20.74,45.82c6.068,0,8.02,8.547,9.741,16.088 c0.938,4.108,2.105,9.222,3.559,9.222c1.291,0,2.249-1.984,2.482-2.679c0.123-0.366,0.445-0.628,0.828-0.674 c0.383-0.049,0.758,0.132,0.965,0.458l1.395,2.201l4.313-19.868c0.096-0.445,0.481-0.768,0.936-0.787 c0.434-0.014,0.864,0.271,0.998,0.706l2.297,7.497l1.272-2.55c0.18-0.36,0.56-0.575,0.959-0.552 c0.401,0.026,0.749,0.29,0.88,0.67l0.951,2.74l1.846-2.838c0.222-0.342,0.627-0.514,1.032-0.436 c0.401,0.079,0.713,0.394,0.789,0.795l3.775,19.99l1.453-3.189c0.185-0.405,0.62-0.636,1.056-0.575 c0.441,0.065,0.786,0.414,0.845,0.855l5.938,43.998l6.691-44.861c0.297-1.458,1.33-2.587,2.705-2.998 c1.391-0.415,2.832-0.049,3.854,0.98c0.91,0.917,1.75,1.305,2.503,1.154c1.028-0.204,2.073-4.732,2.764-7.728 c1.452-6.292,3.097-13.422,7.894-13.422c4.333,0,5.564,6.01,6.754,11.822c0.943,4.607,2.013,9.828,4.466,9.828 c2.902,0,3.521-7.334,3.972-12.689c0.509-6.047,0.896-9.508,2.908-10.31c1.229-0.5,2.447-0.279,3.42,0.626 c0.224,0.213,0.508,0.306,0.782,0.263c0.172-0.026,0.409-0.116,0.562-0.393c1.175-2.148,1.573-4.505,1.958-6.784 c0.576-3.408,1.12-6.627,4.283-8.154c0.498-0.241,1.095-0.032,1.335,0.466c0.24,0.497,0.032,1.095-0.466,1.335 c-2.232,1.078-2.65,3.553-3.18,6.687c-0.393,2.328-0.839,4.966-2.177,7.413c-0.421,0.764-1.154,1.276-2.011,1.408 c-0.897,0.135-1.792-0.148-2.457-0.784c-0.396-0.367-0.788-0.437-1.302-0.227c-0.968,0.386-1.403,5.542-1.663,8.623 c-0.574,6.807-1.224,14.521-5.965,14.521c-4.086,0-5.275-5.809-6.426-11.427c-0.981-4.792-2.093-10.223-4.794-10.223 c-3.207,0-4.725,6.583-5.945,11.871c-1.132,4.907-2.026,8.783-4.319,9.24c-1,0.201-2.558,0.068-4.316-1.707 c-0.493-0.496-1.188-0.671-1.862-0.473c-0.677,0.203-1.167,0.737-1.308,1.429l-7.72,51.767C69.916,124.638,69.495,125,69,125z"/></g><g id="change5_1"><path fill="#93b2b8" d="M125,111H1c-0.552,0-1-0.448-1-1s0.448-1,1-1h124c0.552,0,1,0.448,1,1S125.552,111,125,111z"/></g></g></g></g></svg>