<?xml version="1.0" encoding="UTF-8" standalone="no"?><svg xmlns="http://www.w3.org/2000/svg" xmlns:xlink="http://www.w3.org/1999/xlink" contentScriptType="text/ecmascript" fill="#000000" width="50.9" zoomAndPan="magnify" contentStyleType="text/css" viewBox="0.0 0.0 50.9 55.3" height="55.3" preserveAspectRatio="xMidYMid meet" version="1"><g><g fill="#4171ab" id="change1_1"><path fill="inherit" d="M11.1,12.5H3.2c-1.2,0-2.2,1-2.2,2.2v30.9c0,1.2,1,2.2,2.2,2.2h7.9c1.2,0,2.2-1,2.2-2.2V14.6 C13.3,13.4,12.3,12.5,11.1,12.5z"/><path fill="inherit" d="M29.4,1h-7.9c-1.2,0-2.2,1-2.2,2.2v42.4c0,1.2,1,2.2,2.2,2.2h7.9c1.2,0,2.2-1,2.2-2.2V3.2 C31.6,2,30.6,1,29.4,1z"/><path fill="inherit" d="M47.7,17.8h-7.9c-1.2,0-2.2,1-2.2,2.2v25.6c0,1.2,1,2.2,2.2,2.2h7.9c1.2,0,2.2-1,2.2-2.2V20 C49.9,18.8,49,17.8,47.7,17.8z"/></g><g fill="#4171ab" id="change2_1"><path fill="inherit" d="M3.2,48.8h7.9c1.8,0,3.2-1.4,3.2-3.2V14.6c0-1.8-1.4-3.2-3.2-3.2H3.2c-1.8,0-3.2,1.4-3.2,3.2v30.9 C0,47.3,1.4,48.8,3.2,48.8z M2,14.6c0-0.7,0.5-1.2,1.2-1.2h7.9c0.7,0,1.2,0.5,1.2,1.2v30.9c0,0.7-0.5,1.2-1.2,1.2H3.2 c-0.7,0-1.2-0.5-1.2-1.2V14.6z"/><path fill="inherit" d="M21.5,48.8h7.9c1.8,0,3.2-1.4,3.2-3.2V3.2c0-1.8-1.4-3.2-3.2-3.2h-7.9c-1.8,0-3.2,1.4-3.2,3.2v42.4 C18.3,47.3,19.8,48.8,21.5,48.8z M20.3,3.2c0-0.7,0.5-1.2,1.2-1.2h7.9c0.7,0,1.2,0.5,1.2,1.2v42.4c0,0.7-0.5,1.2-1.2,1.2h-7.9 c-0.7,0-1.2-0.5-1.2-1.2V3.2z"/><path fill="inherit" d="M47.7,16.8h-7.9c-1.8,0-3.2,1.4-3.2,3.2v25.6c0,1.8,1.4,3.2,3.2,3.2h7.9c1.8,0,3.2-1.4,3.2-3.2V20 C50.9,18.2,49.5,16.8,47.7,16.8z M48.9,45.6c0,0.7-0.5,1.2-1.2,1.2h-7.9c-0.7,0-1.2-0.5-1.2-1.2V20c0-0.7,0.5-1.2,1.2-1.2h7.9 c0.7,0,1.2,0.5,1.2,1.2V45.6z"/><path fill="inherit" d="M49.9,53.3H1c-0.6,0-1,0.4-1,1s0.4,1,1,1h48.9c0.6,0,1-0.4,1-1S50.5,53.3,49.9,53.3z"/></g></g></svg>