<?xml version="1.0" encoding="UTF-8" standalone="no"?><svg xmlns="http://www.w3.org/2000/svg" xmlns:xlink="http://www.w3.org/1999/xlink" contentScriptType="text/ecmascript" fill="#000000" width="568.1" zoomAndPan="magnify" contentStyleType="text/css" viewBox="1.0 0.9 568.1 792.1" height="792.1" preserveAspectRatio="xMidYMid meet" version="1"><g><g id="change1_1"><path fill="#4171ab" d="M569,761c0,1.3,0,2.7,0,4c-1.5,0.4-1.3,1.8-1.6,2.8c-4.4,13.1-13.6,20.7-26.7,24c-1.5,0.4-3.4-0.4-4.6,1.2 c-169,0-338,0-507,0c-1-1.6-2.8-1.4-4.3-1.9C16,788,9.4,782.4,5.1,774.3c-1.6-3-2.7-6.2-4.1-9.3C1,531.7,1,298.3,1,65 c1.7-0.7,1.4-2.5,1.9-3.8c4.6-13.3,13.7-21.4,27.4-24c4.8-0.9,9.9-1.1,14.8-1.2C57.4,35.9,69.7,36,82,36c2,0,3.4,0.3,4.1-2.7 C89.5,18.4,96.3,6.1,112,1c2,0,4,0,6,0c10.4,2.7,17.5,9.4,22.6,19.3c4.6-10,11.8-16.1,21.4-19.3c2,0,4,0,6,0 c4.4,1.7,8.9,3,12.5,6.1c3.7,3.3,6.6,7.2,9.2,11.5c9.5-12.6,9-12.2,21.3-17.7c2,0,4,0,6,0c10.4,2.7,17.5,9.4,22.6,19.3 c4.6-10,11.8-16.1,21.4-19.3c2,0,4,0,6,0c8.3,2.4,15.1,6.8,19.7,14.4c1.1,1.7,2.1,3.5,3.5,5.8C294.8,10.8,301.9,4.3,312,1 c2,0,4,0,6,0c10.4,2.7,17.5,9.4,22.6,19.3c4.6-10,11.8-16.1,21.4-19.3c2,0,4,0,6,0c4.4,1.7,8.9,3,12.5,6.1 c3.7,3.3,6.6,7.2,9.6,12.2C394.7,9.8,401.8,4.1,411,1c2,0,4,0,6,0c10.4,2.7,17.5,9.4,22.6,19.3c4.6-10,11.8-16.1,21.4-19.3 c2,0,4,0,6,0c11,2.8,18.3,10,22.8,20.2c1.7,3.8,3,7.8,3.9,11.8c0.5,2.6,1.5,3.1,3.9,3.1c10-0.1,20,0,29.9,0 c23.4,0,33.3,6.9,41.1,28.8c0,0.1,0.3,0.1,0.5,0.2c0,0.7,0,1.3,0,2c-0.1,0.1-0.4,0.2-0.3,0.3c0.1,0.2,0.2,0.5,0.3,0.7 c0,230.7,0,461.3,0,692c-0.1,0.1-0.4,0.2-0.3,0.3C568.7,760.5,568.9,760.8,569,761z M100.1,70.8c2.1,4.5,3.3,7.6,8.9,6.2 c7.8-1.9,14.9,4.1,15.9,12.1c0.9,7.7-4.3,14.5-12.1,15.7c-7.6,1.2-15.6-4.2-15.6-11.8c0-5.7-2.3-9.7-5.1-13.9 c-1-1.5-1.9-3.2-2.4-4.9c-0.8-2.8-2.5-3.3-5.2-3.3c-14,0.2-28,0.3-42,0c-3.7-0.1-4.6,0.9-4.6,4.6c0.1,219,0.1,437.9,0,656.9 c0,3.7,0.8,4.7,4.6,4.7c161-0.1,322-0.1,482.9,0c3.6,0,4.7-0.7,4.7-4.6c-0.1-219-0.1-437.9,0-656.9c0-3.6-0.6-4.7-4.5-4.7 c-22.2,0.2-44.3,0.1-66.5,0.1c-2.5,0-5-0.1-7.5-0.1c-0.9,0-2.5,0.1-1.7,1.5c1.4,2.4,1.6,6.1,6.5,4.9c9-2.2,16.8,3.5,17.6,12.2 c0.8,8.3-5.6,15.4-13.9,15.5c-8.5,0.1-14.7-6.7-14.1-15.8c0.1-1.9,0-3.5-1.4-5c-2.7-3-4.7-6.5-6-10.3c-0.9-2.5-2.3-3.1-4.8-3.1 c-9.7,0.1-19.3,0-29,0.1c-1.7,0-4.2-1.2-4.9,0.9c-0.5,1.8,1.5,3.5,2.7,5.1c1.4,2,3.1,0.3,4.5,0c8.5-1.3,15.9,4,16.9,12.3 c1,8.3-5.3,15.5-13.7,15.8c-8.3,0.2-14.9-6.5-14.4-15c0.2-2.7-0.4-4.7-2.1-6.8c-1.4-1.6-2.9-3.5-3.4-5.5c-1.6-6.4-5.7-7.2-11.5-6.9 c-9.4,0.4-18.8,0.1-28.8,0.1c2.1,4.5,3.2,7.5,8.9,6.2c7.8-1.9,15,4.1,16,12c1,7.7-4.2,14.5-12,15.7c-7.6,1.2-15.6-4.1-15.7-11.7 c0-5.7-2.2-9.7-5.1-13.9c-1-1.5-1.9-3.2-2.4-4.9c-0.8-2.7-2.4-3.4-5.1-3.4c-9.7,0.2-19.3,0.1-29,0.2c-1.6,0-3.9-0.9-4.5,0.6 c-0.8,1.9,1.4,3.5,2.4,5.1c1.3,2.1,3,0.4,4.5,0.2c8.7-1.4,16.3,4.1,17.1,12.6c0.7,8.1-5.4,15.1-13.6,15.4 c-8.5,0.4-15-6.5-14.6-15.4c0.1-1.9,0.4-3.5-1.1-5.1c-2.9-3.3-4.9-7.1-6.6-11.1c-0.6-1.3-1-2.3-2.7-2.3c-12.2,0-24.5,0-36.9,0 c2.5,6.7,2.6,6.8,7.3,6c8.7-1.5,16.3,4.1,17.1,12.6c0.7,8.1-5.4,15.1-13.6,15.4c-8.5,0.4-15-6.5-14.6-15.4c0.1-1.9,0.4-3.5-1.1-5.1 c-2.9-3.3-4.9-7.1-6.6-11.1c-0.5-1.3-0.9-2.4-2.7-2.4c-11.3,0-22.7,0-34,0c-0.9,0-2.5,0.1-1.7,1.5c1.4,2.4,1.6,6.1,6.5,4.9 c9-2.2,16.8,3.5,17.6,12.2c0.8,8.3-5.6,15.4-14,15.5c-8.5,0.1-14.6-6.7-14.1-15.8c0.1-1.7,0.2-3.2-1-4.6c-2.9-3.3-4.9-7.1-6.6-11.1 c-0.6-1.5-1.1-2.6-3.1-2.6c-10.8,0.1-21.7,0-32.5,0c-1.2,0-2.8,0-1.8,1.8c1.4,2.5,2,5.7,6.7,4.5c8.7-2.2,16.3,3.5,17.3,12 c0.9,8.3-5.4,15.5-13.7,15.7c-8.5,0.2-14.9-6.6-14.3-15.6c0.1-1.9,0.2-3.5-1.2-5.1c-2.8-3.1-4.7-6.8-6.3-10.7 c-0.7-1.7-1.3-2.8-3.5-2.8C124.3,70.9,112.6,70.8,100.1,70.8z M296.8,36c12,0,23.6,0,35.2,0c1.9,0,2.3-0.8,1.8-2.4 c-1.9-6.6-4.4-12.9-9.7-17.7c-5.7-5.1-11.8-5.1-17.4,0.1C301,21.3,298.3,28.1,296.8,36z M346.8,36c11.9,0,23.6,0,35.2,0 c1.9,0,2.3-0.8,1.9-2.4c-1.9-6.6-4.4-12.9-9.7-17.7c-5.7-5.1-11.8-5.1-17.4,0C351,21.2,348.3,28.1,346.8,36z M395.8,36 c11.8,0,23.3,0,34.7,0c1.8,0,2.9-0.3,2.3-2.5c-1.9-6.4-4.3-12.6-9.3-17.3c-5.9-5.5-12.3-5.5-18.1,0.1 C399.9,21.6,397.2,28.3,395.8,36z M464.4,36c5.3,0,10.6,0,16,0c1.5,0,3.2,0.2,2.5-2.2c-2-6.8-4.5-13.3-10-18 c-5.6-4.8-11.5-4.8-17,0.2c-5.3,4.7-7.8,11-9.7,17.6c-0.6,2.1,0.3,2.5,2.3,2.5C453.7,35.9,459.1,36,464.4,36z M134.2,36 c-1.6-7.8-4.3-14.7-10-20c-5.6-5.2-11.7-5.2-17.4-0.1c-5.3,4.7-7.8,11-9.7,17.6c-0.6,2.1,0.4,2.5,2.3,2.5 C110.9,36,122.4,36,134.2,36z M146.8,36c12,0,23.6,0,35.2,0c2,0,2.3-0.9,1.8-2.4c-1.9-6.6-4.4-12.9-9.7-17.7 c-5.7-5.1-11.8-5.1-17.4,0.1C151,21.3,148.3,28.1,146.8,36z M214.3,36c5.3,0,10.6,0,16,0c1.5,0,3.3,0.3,2.6-2.2 c-1.9-6.8-4.4-13.3-9.9-18c-5.6-4.9-11.5-4.8-17,0.1c-5.3,4.7-7.9,11-9.7,17.6c-0.6,2,0.2,2.6,2.2,2.6C203.7,35.9,209,36,214.3,36z M245.8,35.8c12.5,0,24.8,0,37.1,0c-0.9-7.2-4.7-15.3-9.3-19.5c-5.9-5.5-12.3-5.5-18.2,0C249.9,21.5,247.2,28.2,245.8,35.8z"/></g><g id="change2_1"><path fill="#ffffff" d="M100.1,70.8c12.5,0,24.1,0,35.8,0c2.1,0,2.8,1.1,3.5,2.8c1.6,3.9,3.5,7.6,6.3,10.7c1.4,1.6,1.3,3.2,1.2,5.1 c-0.5,9,5.9,15.8,14.3,15.6c8.4-0.2,14.7-7.5,13.7-15.7c-1-8.5-8.6-14.2-17.3-12c-4.7,1.2-5.3-2-6.7-4.5c-1-1.8,0.6-1.8,1.8-1.8 c10.8,0,21.7,0,32.5,0c1.9,0,2.5,1.1,3.1,2.6c1.7,4,3.7,7.8,6.6,11.1c1.3,1.4,1.1,2.9,1,4.6c-0.5,9.1,5.6,15.9,14.1,15.8 c8.3-0.1,14.8-7.3,14-15.5c-0.9-8.7-8.6-14.4-17.6-12.2c-4.9,1.2-5.1-2.5-6.5-4.9c-0.8-1.4,0.7-1.5,1.7-1.5c11.3,0,22.7,0,34,0 c1.7,0,2.1,1.1,2.7,2.4c1.7,4,3.6,7.9,6.6,11.1c1.4,1.6,1.2,3.3,1.1,5.1c-0.5,8.9,6.1,15.7,14.6,15.4c8.2-0.3,14.3-7.3,13.6-15.4 C273.3,81,265.7,75.4,257,77c-4.7,0.8-4.8,0.7-7.3-6c12.4,0,24.7,0,36.9,0c1.7,0,2.2,1,2.7,2.3c1.7,4,3.6,7.9,6.6,11.1 c1.4,1.6,1.2,3.3,1.1,5.1c-0.5,8.9,6.1,15.7,14.6,15.4c8.2-0.3,14.3-7.3,13.6-15.4c-0.8-8.5-8.3-14-17.1-12.6 c-1.4,0.2-3.1,1.9-4.5-0.2c-1-1.6-3.2-3.2-2.4-5.1c0.6-1.5,3-0.6,4.5-0.6c9.7-0.1,19.3,0,29-0.2c2.8-0.1,4.3,0.7,5.1,3.4 c0.5,1.7,1.4,3.4,2.4,4.9c2.9,4.2,5.1,8.2,5.1,13.9c0,7.6,8.1,12.9,15.7,11.7c7.8-1.2,13-8,12-15.7c-1-7.9-8.1-13.9-16-12 c-5.7,1.4-6.8-1.7-8.9-6.2c10,0,19.5,0.3,28.8-0.1c5.7-0.3,9.9,0.6,11.5,6.9c0.5,2,2,3.8,3.4,5.5c1.7,2,2.3,4,2.1,6.8 c-0.6,8.6,6.1,15.3,14.4,15c8.4-0.2,14.7-7.5,13.7-15.8c-1-8.3-8.4-13.6-16.9-12.3c-1.5,0.2-3.1,1.9-4.5,0 c-1.1-1.6-3.2-3.3-2.7-5.1c0.6-2.1,3.2-0.9,4.9-0.9c9.7-0.1,19.3,0,29-0.1c2.5,0,3.9,0.6,4.8,3.1c1.4,3.8,3.4,7.3,6,10.3 c1.3,1.5,1.5,3.1,1.4,5c-0.5,9.1,5.6,15.9,14.1,15.8c8.3-0.1,14.8-7.3,13.9-15.5c-0.9-8.7-8.6-14.4-17.6-12.2 c-4.9,1.2-5.1-2.5-6.5-4.9c-0.8-1.4,0.7-1.5,1.7-1.5c2.5,0,5,0.1,7.5,0.1c22.2,0,44.3,0.1,66.5-0.1c3.9,0,4.5,1.1,4.5,4.7 c-0.1,219-0.1,437.9,0,656.9c0,3.8-1,4.6-4.7,4.6c-161-0.1-322-0.1-482.9,0c-3.8,0-4.6-1-4.6-4.7c0.1-219,0.1-437.9,0-656.9 c0-3.7,0.9-4.7,4.6-4.6c14,0.2,28,0.1,42,0c2.7,0,4.4,0.5,5.2,3.3c0.5,1.7,1.4,3.4,2.4,4.9c2.9,4.2,5.2,8.2,5.1,13.9 c0,7.6,8.1,13,15.6,11.8c7.8-1.2,13.1-8,12.1-15.7c-1-7.9-8.1-14-15.9-12.1C103.4,78.4,102.3,75.4,100.1,70.8z M285.7,261 c41,0,82,0,122.9,0c21.2,0,42.3-0.1,63.5,0.1c3.6,0,5.2-0.8,4.9-4.7c-0.3-4.1-0.1-8.3-0.1-12.5c0-6.9,0-6.9-7.1-6.9 c-122.6,0-245.2,0-367.8,0c-0.7,0-1.3,0.1-2,0c-3.8-0.5-5.5,0.7-5.2,4.9c0.4,4.3,0.5,8.7,0,13c-0.6,5.3,1.5,6.3,6.4,6.2 C162.8,260.9,224.3,261,285.7,261z M285.9,555c60,0,120,0,179.9,0c11.1,0,11.1,0,11.1-11.3c0-6.7,0-6.7-6.8-6.7 c-121.1,0-242.2,0-363.3,0c-11.9,0-11.7,0-12,12.1c-0.1,4.9,1.4,6,6.1,6C162.7,554.9,224.3,555,285.9,555z M252.2,667 c-50.5,0-100.9,0.1-151.4-0.1c-4.4,0-6.5,0.9-5.9,5.7c0.6,4.6-2,10.4,1.1,13.5c2.8,2.8,8.6,0.9,13,0.9c98,0.1,195.9,0,293.9,0.1 c4.7,0,6.8-1,6.1-6c-0.4-2.8-0.4-5.7,0-8.5c0.6-4.8-1.5-5.7-5.9-5.7C352.9,667.1,302.6,667,252.2,667z M285.7,416 c61.5,0,122.9,0,184.4,0c1.5,0,3,0,4.5,0c0.9,0,2-0.2,2-1.1c0.2-4.1,0.9-8.5-0.1-12.4c-0.8-3-4.7-1.4-7.1-1.4 c-122.1-0.1-244.2-0.1-366.3,0c-9.4,0-8-1.2-8.1,8.3c-0.1,6.7,0,6.7,6.8,6.7C163.1,416,224.4,416,285.7,416z M285.7,170 c61.5,0,122.9,0,184.4,0c1.3,0,2.7,0,4,0c1,0,2.4,0,2.5-1.1c0.2-3.5,0.8-7.1,0-10.4c-0.7-2.8-4-1.4-6.2-1.4 C347.5,157,224.5,157,101.6,157c-1.3,0-2.7-0.1-4,0.1c-0.8,0.1-2,0.4-2.1,0.9c-0.8,3.6-1.1,7.4,0,10.8c0.8,2.4,3.8,1.2,5.9,1.2 C162.8,170,224.3,170,285.7,170z M281,619c58.3,0,116.6,0,174.9,0c1.5,0,3,0,4.5,0c1,0,2.3-0.1,2.3-1.4c0.1-3.1,0.7-6.5-0.2-9.4 c-0.8-2.5-4.2-1.2-6.3-1.2C339.4,607,222.6,607,105.8,607c-1.3,0-2.7,0-4,0c-1,0-2.4,0-2.5,1.1c-0.2,3.1-0.7,6.4,0,9.4 c0.7,2.6,3.7,1.4,5.7,1.4C163.7,619,222.4,619,281,619z M207.2,205c-32.6,0-65.3,0-97.9,0c-14.7,0-14.6,0-14.4,14.6 c0,3.6,1.3,4.4,4.7,4.4c71.6-0.1,143.2-0.1,214.9,0c3.4,0,4.9-0.8,4.6-4.4c-0.3-3.1-0.3-6.4,0-9.5c0.5-4.3-1.4-5.2-5.4-5.2 C278.2,205.1,242.7,205,207.2,205z M286.2,478c-62,0-124,0-185.9-0.1c-4,0-5.8,0.9-5.4,5.2c0.4,4.3,3.5,2.8,5.6,2.8 c48.3,0.1,96.6,0.1,144.9,0.1c75.3,0,150.6,0,225.9,0c3.1,0,5.9,0.4,5.7-4.4c-0.2-4.5-3-3.6-5.5-3.6C409.9,478,348,478,286.2,478z M223.2,515c-41,0-82,0.1-122.9-0.1c-4.1,0-5.8,0.9-5.3,5.2c0.4,4.3,3.6,2.8,5.7,2.8C157.1,523,213.5,523,270,523 c25.3,0,50.6-0.1,76,0.1c3.8,0,5.4-0.9,5.1-5c-0.3-4.3-3.2-3-5.4-3C304.8,515,264,515,223.2,515z"/></g><g fill="#4171ab" id="change3_1"><path fill="inherit" d="M477,243.9c0-6.9,0-6.9-7.1-6.9c-122.6,0-245.2,0-367.8,0c-0.7,0-1.3,0.1-2,0c-3.8-0.5-5.5,0.7-5.2,4.9 c0.4,4.3,0.5,8.7,0,13c-0.6,5.3,1.5,6.3,6.4,6.2c61.5-0.2,122.9-0.1,184.4-0.1c41,0,82,0,122.9,0c21.2,0,42.3-0.1,63.5,0.1 c3.6,0,5.2-0.8,4.9-4.7C476.8,252.2,477,248,477,243.9z"/><path fill="inherit" d="M470.2,537c-121.1,0-242.2,0-363.3,0c-11.9,0-11.7,0-12,12.1c-0.1,4.9,1.4,6,6.1,6 c61.6-0.2,123.3-0.1,184.9-0.1c60,0,120,0,179.9,0c11.1,0,11.1,0,11.1-11.3C477,537,477,537,470.2,537z"/><path fill="inherit" d="M403.2,666.9c-50.3,0.1-100.6,0.1-150.9,0.1c-50.5,0-100.9,0.1-151.4-0.1c-4.4,0-6.5,0.9-5.9,5.7 c0.6,4.6-2,10.4,1.1,13.5c2.8,2.8,8.6,0.9,13,0.9c98,0.1,195.9,0,293.9,0.1c4.7,0,6.8-1,6.1-6c-0.4-2.8-0.4-5.7,0-8.5 C409.7,667.8,407.6,666.9,403.2,666.9z"/><path fill="inherit" d="M101.8,416c61.3,0,122.6,0,183.9,0c61.5,0,122.9,0,184.4,0c1.5,0,3,0,4.5,0c0.9,0,2-0.2,2-1.1 c0.2-4.1,0.9-8.5-0.1-12.4c-0.8-3-4.7-1.4-7.1-1.4c-122.1-0.1-244.2-0.1-366.3,0c-9.4,0-8-1.2-8.1,8.3C95,416,95,416,101.8,416z"/><path fill="inherit" d="M101.3,170c61.5,0.1,122.9,0,184.4,0s122.9,0,184.4,0c1.3,0,2.7,0,4,0c1,0,2.4,0,2.5-1.1 c0.2-3.5,0.8-7.1,0-10.4c-0.7-2.8-4-1.4-6.2-1.4C347.5,157,224.5,157,101.6,157c-1.3,0-2.7-0.1-4,0.1c-0.8,0.1-2,0.4-2.1,0.9 c-0.8,3.6-1.1,7.4,0,10.8C96.2,171.2,99.3,169.9,101.3,170z"/><path fill="inherit" d="M456.2,607.1C339.4,607,222.6,607,105.8,607c-1.3,0-2.7,0-4,0c-1,0-2.4,0-2.5,1.1c-0.2,3.1-0.7,6.4,0,9.4 c0.7,2.6,3.7,1.4,5.7,1.4C163.7,619,222.4,619,281,619c58.3,0,116.6,0,174.9,0c1.5,0,3,0,4.5,0c1,0,2.3-0.1,2.3-1.4 c0.1-3.1,0.7-6.5-0.2-9.4C461.7,605.7,458.4,607.1,456.2,607.1z"/><path fill="inherit" d="M313.7,204.9c-35.5,0.1-71,0.1-106.4,0.1c-32.6,0-65.3,0-97.9,0c-14.7,0-14.6,0-14.4,14.6 c0,3.6,1.3,4.4,4.7,4.4c71.6-0.1,143.2-0.1,214.9,0c3.4,0,4.9-0.8,4.6-4.4c-0.3-3.1-0.3-6.4,0-9.5 C319.5,205.8,317.7,204.9,313.7,204.9z"/><path fill="inherit" d="M471.7,478c-61.8,0-123.6,0-185.4,0c-62,0-124,0-185.9-0.1c-4,0-5.8,0.9-5.4,5.2c0.4,4.3,3.5,2.8,5.6,2.8 c48.3,0.1,96.6,0.1,144.9,0.1c75.3,0,150.6,0,225.9,0c3.1,0,5.9,0.4,5.7-4.4C476.9,477.1,474.2,478,471.7,478z"/><path fill="inherit" d="M345.6,515c-40.8-0.1-81.6,0-122.4,0c-41,0-82,0.1-122.9-0.1c-4.1,0-5.8,0.9-5.3,5.2 c0.4,4.3,3.6,2.8,5.7,2.8C157.1,523,213.5,523,270,523c25.3,0,50.6-0.1,76,0.1c3.8,0,5.4-0.9,5.1-5 C350.8,513.8,347.8,515,345.6,515z"/></g></g></svg>