<?xml version="1.0" encoding="UTF-8" standalone="no"?><svg xmlns="http://www.w3.org/2000/svg" xmlns:xlink="http://www.w3.org/1999/xlink" contentScriptType="text/ecmascript" fill="#000000" width="56.6" zoomAndPan="magnify" contentStyleType="text/css" viewBox="0.0 -0.1 56.6 57.7" height="57.7" preserveAspectRatio="xMidYMid meet" version="1"><g id="change1_1"><path fill="#0583a6" d="M56.6,28.8c0-0.5-0.3-1-0.7-1.3l-7.5-4.4l7.5-4.4c0.5-0.3,0.7-0.8,0.7-1.3c0-0.5-0.3-1-0.7-1.3L29.1,0.2 c-0.5-0.3-1.1-0.3-1.5,0L0.7,16.1C0.3,16.3,0,16.8,0,17.3c0,0.5,0.3,1,0.7,1.3l7.5,4.4l-7.5,4.4C0.3,27.8,0,28.3,0,28.8 s0.3,1,0.7,1.3l7.5,4.4l-7.5,4.4C0.3,39.2,0,39.7,0,40.2s0.3,1,0.7,1.3l26.8,15.9c0.2,0.1,0.5,0.2,0.8,0.2s0.5-0.1,0.8-0.2 l26.8-15.9c0.5-0.3,0.7-0.8,0.7-1.3s-0.3-1-0.7-1.3l-7.5-4.4l7.5-4.4C56.3,29.8,56.6,29.3,56.6,28.8z M28.3,3.2l23.8,14.1l-7.5,4.4 c0,0,0,0,0,0l-16.4,9.7l-16.4-9.7c0,0,0,0,0,0l-7.5-4.4L28.3,3.2z M52.1,40.2L28.3,54.4L4.4,40.2l6.7-4l16.4,9.7 c0.2,0.1,0.5,0.2,0.8,0.2s0.5-0.1,0.8-0.2l16.4-9.7L52.1,40.2z M28.3,42.9L4.4,28.8l6.7-4l16.4,9.7c0.5,0.3,1.1,0.3,1.5,0l16.4-9.7 l6.7,4L28.3,42.9z"/></g></svg>