<?xml version="1.0" encoding="UTF-8" standalone="no"?><svg xmlns="http://www.w3.org/2000/svg" xmlns:xlink="http://www.w3.org/1999/xlink" contentScriptType="text/ecmascript" fill="#000000" width="51.3" zoomAndPan="magnify" contentStyleType="text/css" viewBox="0.0 0.0 51.3 51.7" height="51.7" preserveAspectRatio="xMidYMid meet" version="1"><g fill="#0583a6" id="change1_1"><path fill="inherit" d="M16,0H1.5C0.7,0,0,0.7,0,1.5V16c0,4.4,3.6,8,8,8h14.5c0.8,0,1.5-0.7,1.5-1.5V8C23.9,3.6,20.4,0,16,0z M20.9,20.9H8c-2.7,0-5-2.2-5-5V3h13c2.7,0,5,2.2,5,5V20.9z"/><path fill="inherit" d="M49.7,0H35.2c-4.4,0-8,3.6-8,8v14.5c0,0.8,0.7,1.5,1.5,1.5h14.5c4.4,0,8-3.6,8-8V1.5 C51.2,0.7,50.5,0,49.7,0z M48.2,16c0,2.7-2.2,5-5,5h-13V8c0-2.7,2.2-5,5-5h13V16z"/><path fill="inherit" d="M43.2,27.7H28.8c-0.8,0-1.5,0.7-1.5,1.5v14.5c0,4.4,3.6,8,8,8h14.5c0.8,0,1.5-0.7,1.5-1.5V35.7 C51.2,31.3,47.6,27.7,43.2,27.7z M48.2,48.7h-13c-2.7,0-5-2.2-5-5v-13h13c2.7,0,5,2.2,5,5V48.7z"/><path fill="inherit" d="M22.4,27.7H8c-4.4,0-8,3.6-8,8v14.5c0,0.8,0.7,1.5,1.5,1.5H16c4.4,0,8-3.6,8-8V29.2 C23.9,28.4,23.3,27.7,22.4,27.7z M20.9,43.7c0,2.7-2.2,5-5,5H3v-13c0-2.7,2.2-5,5-5h13V43.7z"/></g></svg>