<?xml version="1.0" encoding="UTF-8" standalone="no"?><svg xmlns="http://www.w3.org/2000/svg" xmlns:xlink="http://www.w3.org/1999/xlink" contentScriptType="text/ecmascript" zoomAndPan="magnify" contentStyleType="text/css" stroke="#000000" stroke-linecap="square" version="1" width="74" stroke-miterlimit="10" fill="#000000" preserveAspectRatio="xMidYMid meet" viewBox="0 0 74.1 58.96" height="59"><g><g fill="#8f8f8f" stroke="#8f8f8f"><path d="M4.12 57.46c-.54 0-1.26 0-1.8-.53-1.8-1.25-2.34-3.56-1.26-5.34 9.72-16.01 9.72-16.01 9.72-16.01.54-1.25 1.8-1.78 2.88-2.32 1.8 0 3.06.53 3.6 1.78 4.32 5.87 4.32 5.87 4.32 5.87 9-14.77 9-14.77 9-14.77.54-1.25 1.8-1.96 2.88-2.49 1.26 0 2.52.53 3.6 1.78 7.92 10.14 7.92 10.14 7.92 10.14C64.79 2.29 64.79 2.29 64.79 2.29c1.26-1.78 3.6-2.31 5.4-1.25 2.34 1.25 3.06 3.56 1.8 5.34C48.58 45 48.58 45 48.58 45c-.54 1.25-1.8 1.78-3.06 1.78-1.8 0-3.06-.53-3.6-1.78-7.74-9.97-7.74-9.97-7.74-9.97-9 14.77-9 14.77-9 14.77-.72 1.25-1.8 1.78-3.06 2.32-1.26 0-3.06-.53-3.6-1.78-4.14-5.87-4.14-5.87-4.14-5.87C7.72 55.68 7.72 55.68 7.72 55.68c-.54 1.25-1.8 1.78-3.6 1.78" stroke="none"/></g></g></svg>