<?xml version="1.0" encoding="UTF-8" standalone="no"?><svg xmlns="http://www.w3.org/2000/svg" xmlns:xlink="http://www.w3.org/1999/xlink" contentScriptType="text/ecmascript" zoomAndPan="magnify" contentStyleType="text/css" stroke="#000000" stroke-linecap="square" version="1" width="74" stroke-miterlimit="10" fill="#000000" preserveAspectRatio="xMidYMid meet" viewBox="0 0 74.1 79.07" height="79"><g><g fill="#ffffff" stroke="#ffffff"><path d="M37.66 54.86L67.49 39.15 56.58 33.17 40.05 41.87c-1.2.68-2.39.86-3.58.86s-2.38-.17-3.41-.86L16.52 33.17 5.44 38.97l30 15.88c.68.51 1.54.51 2.22 0Zm29.83 1.88L56.41 50.59 40.05 59.3c-1.2.68-2.39.85-3.58.85s-2.38-.17-3.41-.85L16.69 50.59 5.44 56.56l30 15.71c.68.51 1.54.51 2.22 0L67.49 56.74ZM35.44 5.67l-30 15.88 30 15.89c.68.51 1.54.51 2.22 0L67.49 21.72 37.66 5.67c-.34-.17-.68-.17-1.2-.17-.34 0-.68 0-1.02.17ZM69.87 34.53c1.71.86 2.73 2.56 2.73 4.44s-1.02 3.59-2.73 4.44l-8.18 4.44 8.18 4.27c1.71.86 2.73 2.56 2.73 4.44s-1.02 3.59-2.73 4.44L40.05 76.72c-1.2.68-2.39.85-3.58.85s-2.38-.17-3.41-.85L3.23 61.01C1.52 60.15.5 58.44.5 56.56s1.02-3.59 2.73-4.44l8.18-4.27-8.18-4.44C1.52 42.56.5 40.85.5 38.97s1.02-3.59 2.73-4.44l7.84-4.27-7.84-4.1C1.52 25.14.5 23.43.5 21.55s1.02-3.59 2.73-4.44L33.06 1.4c2.22-1.2 4.77-1.2 6.99 0L69.87 17.11c1.71.85 2.73 2.56 2.73 4.44s-1.02 3.59-2.73 4.61l-8.01 4.1 8.01 4.27Z" stroke="none"/></g></g></svg>