<?xml version="1.0" encoding="UTF-8" standalone="no"?><svg xmlns="http://www.w3.org/2000/svg" xmlns:xlink="http://www.w3.org/1999/xlink" contentScriptType="text/ecmascript" zoomAndPan="magnify" contentStyleType="text/css" stroke="#000000" stroke-linecap="square" version="1" width="73" stroke-miterlimit="10" fill="#000000" preserveAspectRatio="xMidYMid meet" viewBox="0 0 73.13 62.39" height="62"><g><g fill="#8f8f8f" stroke="#8f8f8f"><path d="M65.74.5C6.38.5 6.38.5 6.38.5 3.44.5.5 3.46.5 6.42.5 40.7.5 40.7.5 40.7c0 3.48 2.94 6.27 5.88 6.27 19.56 0 19.56 0 19.56 0 0 2.96 0 2.96 0 2.96-5.71 5.22-5.71 5.22-5.71 5.22-1.21.52-1.21 2.26-1.21 3.48.52 1.22 1.73 2.26 2.94 2.26 28.21 0 28.21 0 28.21 0 1.21 0 2.25-1.04 2.94-2.26 0-1.22 0-2.96-1.21-3.48-5.71-5.22-5.71-5.22-5.71-5.22 0-2.96 0-2.96 0-2.96 19.56 0 19.56 0 19.56 0 2.94 0 5.88-2.78 5.88-6.27 0-34.29 0-34.29 0-34.29C71.63 3.46 68.69.5 65.74.5ZM41.51 53.93c2.25 1.74 2.25 1.74 2.25 1.74-15.58 0-15.58 0-15.58 0 2.42-1.74 2.42-1.74 2.42-1.74.52-.52 1.04-1.74 1.04-2.26 0-4.7 0-4.7 0-4.7 9.35 0 9.35 0 9.35 0 0 4.7 0 4.7 0 4.7 0 .52 0 1.74.52 2.26ZM65.22 40.7c-58.32 0-58.32 0-58.32 0 0-33.76 0-33.76 0-33.76 58.32 0 58.32 0 58.32 0V40.7Z" stroke="none"/></g></g></svg>