<?xml version="1.0" encoding="UTF-8" standalone="no"?><svg xmlns="http://www.w3.org/2000/svg" xmlns:xlink="http://www.w3.org/1999/xlink" contentScriptType="text/ecmascript" fill="#000000" width="61" zoomAndPan="magnify" contentStyleType="text/css" viewBox="0.0 0.0 61.0 42.4" height="42.4" preserveAspectRatio="xMidYMid meet" version="1"><g fill="#ffffff" id="change1_1"><path fill="inherit" d="M59,4.9h-5L40.6,20.3L30.5,32L20.4,20.3L7.1,4.9h-5C0.9,4.9,0,5.9,0,7v32.6c0,1.6,1.3,2.8,2.8,2.8h55.4 c1.6,0,2.8-1.3,2.8-2.8V7C61,5.9,60.1,4.9,59,4.9z"/><path fill="inherit" d="M9.9,4.9l13.3,15.4l7.3,8.5l7.3-8.5L51.2,4.9l3-3.5C54.7,0.9,54.3,0,53.5,0h-46C6.8,0,6.4,0.9,6.9,1.5 L9.9,4.9z"/></g></svg>