<?xml version="1.0" encoding="UTF-8" standalone="no"?><svg xmlns="http://www.w3.org/2000/svg" xmlns:xlink="http://www.w3.org/1999/xlink" contentScriptType="text/ecmascript" fill="#000000" width="62.3" zoomAndPan="magnify" contentStyleType="text/css" viewBox="0.0 0.0 62.3 66.1" height="66.1" preserveAspectRatio="xMidYMid meet" version="1"><g fill="#ffffff" id="change1_1"><path fill="inherit" d="M35.7,34.5h-9.1C11.9,34.5,0,46.5,0,61.1v3.5c0,0.8,0.7,1.5,1.5,1.5h59.3c0.8,0,1.5-0.7,1.5-1.5v-3.5 C62.3,46.5,50.4,34.5,35.7,34.5z M59.3,63.1H3v-2c0-13,10.6-23.6,23.6-23.6h9.1c13,0,23.6,10.6,23.6,23.6V63.1z"/><path fill="inherit" d="M31.2,30.6c8.4,0,15.3-6.9,15.3-15.3C46.5,6.9,39.6,0,31.2,0S15.9,6.9,15.9,15.3 C15.9,23.7,22.7,30.6,31.2,30.6z M31.2,3c6.8,0,12.3,5.5,12.3,12.3c0,6.8-5.5,12.3-12.3,12.3s-12.3-5.5-12.3-12.3 C18.9,8.5,24.4,3,31.2,3z"/></g></svg>