<?xml version="1.0" encoding="UTF-8" standalone="no"?><svg xmlns="http://www.w3.org/2000/svg" xmlns:xlink="http://www.w3.org/1999/xlink" contentScriptType="text/ecmascript" fill="#000000" width="48.9" zoomAndPan="magnify" contentStyleType="text/css" viewBox="-0.2 0.0 48.9 53.1" height="53.1" preserveAspectRatio="xMidYMid meet" version="1"><g fill="#ffffff" id="change1_1"><path fill="inherit" d="M3.9,39.5c-0.8,0-1.5,0.7-1.5,1.5v10.6c0,0.8,0.7,1.5,1.5,1.5s1.5-0.7,1.5-1.5V41 C5.4,40.1,4.8,39.5,3.9,39.5z"/><path fill="inherit" d="M16.9,24.1c-0.8,0-1.5,0.7-1.5,1.5v26c0,0.8,0.7,1.5,1.5,1.5s1.5-0.7,1.5-1.5v-26 C18.4,24.8,17.8,24.1,16.9,24.1z"/><path fill="inherit" d="M30,29.2c-0.8,0-1.5,0.7-1.5,1.5v20.8c0,0.8,0.7,1.5,1.5,1.5s1.5-0.7,1.5-1.5V30.7 C31.5,29.9,30.8,29.2,30,29.2z"/><path fill="inherit" d="M43,24.1c-0.8,0-1.5,0.7-1.5,1.5v26c0,0.8,0.7,1.5,1.5,1.5s1.5-0.7,1.5-1.5v-26 C44.5,24.8,43.8,24.1,43,24.1z"/><path fill="inherit" d="M47.2,0H37.1c-0.8,0-1.5,0.7-1.5,1.5S36.3,3,37.1,3h6.8L28.2,18.7L16.9,7.4c-0.6-0.6-1.5-0.6-2.1,0 L0.4,21.7c-0.6,0.6-0.6,1.5,0,2.1c0.3,0.3,0.7,0.4,1.1,0.4s0.8-0.1,1.1-0.4l13.2-13.2l11.3,11.3c0.6,0.6,1.5,0.6,2.1,0L45.7,5.4 v6.3c0,0.8,0.7,1.5,1.5,1.5s1.5-0.7,1.5-1.5V1.5C48.7,0.7,48,0,47.2,0z"/></g></svg>