<?xml version="1.0" encoding="UTF-8" standalone="no"?><svg xmlns="http://www.w3.org/2000/svg" xmlns:xlink="http://www.w3.org/1999/xlink" contentScriptType="text/ecmascript" fill="#000000" width="63.2" zoomAndPan="magnify" contentStyleType="text/css" viewBox="0.0 0.0 63.2 57.3" height="57.3" preserveAspectRatio="xMidYMid meet" version="1"><g fill="#ffffff" id="change1_1"><path fill="inherit" d="M58.4,5.8H46V1.5C46,0.7,45.4,0,44.5,0H18.7c-0.8,0-1.5,0.7-1.5,1.5v4.3H4.8C2.2,5.8,0,7.7,0,9.9v43.2 c0,2.3,2.2,4.1,4.8,4.1c0.1,0,0.3,0,0.4-0.1l26.4-7.6L58,57.2c0.1,0,0.3,0.1,0.4,0.1c2.7,0,4.8-1.8,4.8-4.1V9.9 C63.2,7.7,61.1,5.8,58.4,5.8z M20.2,3H43v2.8H20.2V3z M60.2,53.1c0,0.5-0.7,1-1.6,1.1L32,46.6c-0.3-0.1-0.6-0.1-0.8,0L4.7,54.2 c-1-0.1-1.7-0.6-1.7-1.1V9.9c0-0.5,0.8-1.1,1.8-1.1h53.6c1.1,0,1.8,0.6,1.8,1.1V53.1z"/><path fill="inherit" d="M13.5,31c-2.9,0-5.3,2.4-5.3,5.3s2.4,5.3,5.3,5.3s5.3-2.4,5.3-5.3S16.4,31,13.5,31z M13.5,38.7 c-1.3,0-2.3-1-2.3-2.3s1-2.3,2.3-2.3s2.3,1,2.3,2.3S14.8,38.7,13.5,38.7z"/><path fill="inherit" d="M16.8,18.2l-5.1,5.1l-1.5-1.5c-0.6-0.6-1.5-0.6-2.1,0s-0.6,1.5,0,2.1l2.5,2.5c0.3,0.3,0.7,0.4,1.1,0.4 s0.8-0.1,1.1-0.4l6.1-6.1c0.6-0.6,0.6-1.5,0-2.1S17.3,17.6,16.8,18.2z"/><path fill="inherit" d="M51.6,20.8H25.7c-0.8,0-1.5,0.7-1.5,1.5s0.7,1.5,1.5,1.5h25.9c0.8,0,1.5-0.7,1.5-1.5S52.4,20.8,51.6,20.8z"/><path fill="inherit" d="M51.6,34.8H25.7c-0.8,0-1.5,0.7-1.5,1.5s0.7,1.5,1.5,1.5h25.9c0.8,0,1.5-0.7,1.5-1.5S52.4,34.8,51.6,34.8z"/></g></svg>